<svg width="8" height="6" viewBox="0 0 8 6" fill="none" xmlns="http://www.w3.org/2000/svg">
  <path
    d="M0.400241 5.67289H7.60044C7.67334 5.67267 7.7448 5.65363 7.80712 5.61781C7.86944 5.58199 7.92027 5.53075 7.95413 5.46961C7.988 5.40846 8.00361 5.33973 7.9993 5.2708C7.99498 5.20188 7.97091 5.13537 7.92965 5.07845L4.32955 0.153158C4.18035 -0.0510525 3.82114 -0.0510525 3.67153 0.153158L0.0714315 5.07845C0.0297603 5.13525 0.00532331 5.20179 0.000775592 5.27083C-0.00377212 5.33987 0.0117434 5.40877 0.0456364 5.47005C0.0795294 5.53132 0.130504 5.58263 0.193021 5.61839C0.255538 5.65415 0.327207 5.673 0.400241 5.67289Z"
    fill="#111111" />
</svg>
