<?xml version="1.0" encoding="UTF-8" standalone="no"?>
<svg
   width="64"
   height="64"
   viewBox="0 0 64 64"
   fill="none"
   version="1.1"
   id="svg9"
   sodipodi:docname="プロパティ1=バリアント5.svg"
   inkscape:version="1.3.2 (091e20e, 2023-11-25)"
   xmlns:inkscape="http://www.inkscape.org/namespaces/inkscape"
   xmlns:sodipodi="http://sodipodi.sourceforge.net/DTD/sodipodi-0.dtd"
   xmlns="http://www.w3.org/2000/svg"
   xmlns:svg="http://www.w3.org/2000/svg">
  <defs
     id="defs9" />
  <sodipodi:namedview
     id="namedview9"
     pagecolor="#505050"
     bordercolor="#ffffff"
     borderopacity="1"
     inkscape:showpageshadow="0"
     inkscape:pageopacity="0"
     inkscape:pagecheckerboard="1"
     inkscape:deskcolor="#505050"
     inkscape:zoom="4.6302919"
     inkscape:cx="40.710177"
     inkscape:cy="46.433358"
     inkscape:window-width="1640"
     inkscape:window-height="983"
     inkscape:window-x="0"
     inkscape:window-y="43"
     inkscape:window-maximized="0"
     inkscape:current-layer="svg9" />
  <mask
     id="mask0_1307_20136"
     style="mask-type:alpha"
     maskUnits="userSpaceOnUse"
     x="0"
     y="2"
     width="65"
     height="64">
    <rect
       x="0.361938"
       y="2"
       width="64"
       height="64"
       fill="#D9D9D9"
       id="rect1" />
  </mask>
  <g
     mask="url(#mask0_1307_20136)"
     id="g9">
    <path
       d="m 44.2177,14.9193 c 2.1103,-1.7582 8.0898,-5.979 12.6623,-7.73766 0,0 3.5173,1.75866 4.5725,4.22076 l -1.4069,1.407 c 4.9242,11.2554 1.7586,17.2348 1.7586,17.2348"
       fill="#7b4300"
       id="path1"
       style="display:inline" />
    <path
       d="m 1.21167,39.393 c 0,-14.2967 13.75153,-25.8862 30.71483,-25.8862 16.9638,0 30.7153,11.5895 30.7153,25.8862 0,14.2961 -14.1494,17.6755 -31.1133,17.6755 -16.9632,0 -30.31683,-3.3794 -30.31683,-17.6755 z"
       fill="#f03e64"
       stroke="#2a1f19"
       stroke-width="2"
       stroke-miterlimit="10"
       stroke-linejoin="round"
       id="path2"
       style="display:inline" />
    <path
       d="M 21,17 C 21,15.6667 12.2101,9.64391 7.63754,7.88525 c 0,0 -3.51732,1.75866 -4.57251,4.22075 l 1.40692,1.407 C -0.971272,24.1235 3.69539,32.1235 3.69539,32.1235"
       fill="#f03e64"
       id="path3"
       style="display:inline" />
    <path
       d="M2.5 32C1.25244 29.2887 0.0420579 21.2284 4.12277 13.4371L2.38731 12.0454C2.38731 12.0454 5.41454 7.91484 7.30807 7.86485C11.4249 7.88698 21.0033 15.2715 21.0033 15.2715"
       stroke="#2A1F19"
       stroke-width="2"
       id="path4" />
    <path
       d="M61.2725 31.8196C62.5201 29.1083 63.9436 21.2452 59.8629 13.4539L61.5984 12.0622C61.5984 12.0622 58.5711 7.93161 56.6776 7.88163C52.5607 7.90376 43.1624 15.6233 43.1624 15.6233"
       stroke="#2A1F19"
       stroke-width="2"
       id="path5" />
    <mask
       id="mask1_1307_20136"
       style="mask-type:alpha"
       maskUnits="userSpaceOnUse"
       x="43"
       y="-3"
       width="35"
       height="35">
      <circle
         cx="60.749"
         cy="14.5684"
         r="17.2349"
         fill="#AEAEAE"
         id="circle5" />
    </mask>
    <g
       mask="url(#mask1_1307_20136)"
       id="g8">
      <path
         d="M1.30627 39.3935C1.30627 25.0968 15.0578 13.5073 32.0211 13.5073C48.9849 13.5073 62.7364 25.0968 62.7364 39.3935C62.7364 53.6896 48.5869 57.0689 31.6231 57.0689C14.6599 57.0689 1.30627 53.6896 1.30627 39.3935Z"
         fill="#F03E64"
         stroke="#F03E64"
         stroke-width="2"
         stroke-miterlimit="10"
         stroke-linejoin="round"
         id="path6" />
      <path
         d="M44.3121 14.9198C46.4225 13.1616 52.402 8.94079 56.9745 7.18213C56.9745 7.18213 60.4918 8.94079 61.547 11.4029L60.1401 12.8098C65.0643 24.0653 61.8987 30.0447 61.8987 30.0447"
         fill="#F03E64"
         id="path7" />
      <path
         d="m 61.1007,32.155 c 1.2475,-2.7112 2.9375,-10.9094 -1.1433,-18.7007 l 1.7355,-1.3917 c 0,0 -3.0272,-4.13056 -4.9208,-4.18054 -4.1168,0.02213 -13.6098,7.74154 -13.6098,7.74154"
         stroke="#2a1f19"
         stroke-width="2"
         id="path8"
         style="display:inline" />
    </g>
    <path
       d="m 43.151555,17.030974 c 0,-1.3333 8.563744,-7.3560902 13.018656,-9.1147507 0,0 3.426822,1.7586605 4.454862,4.2207507 l -1.37072,1.407 c 5.303174,10.6105 0.75658,18.6105 0.75658,18.6105"
       fill="#f03e64"
       id="path9"
       style="display:inline;stroke-width:0.987052" />
    <path
       d="m 61.313436,32.366122 c 1.242816,-2.711688 2.448596,-10.773142 -1.6166,-18.565557 l 1.728861,-1.391899 c 0,0 -3.015718,-4.131152 -4.902049,-4.1811492 -4.101176,0.022133 -13.643154,7.4077112 -13.643154,7.4077112"
       stroke="#2a1f19"
       stroke-width="1.99634"
       id="path11" />
  </g>
</svg>
