<svg width="64" height="64" viewBox="0 0 64 64" fill="none" xmlns="http://www.w3.org/2000/svg">
<mask id="mask0_836_10739" style="mask-type:alpha" maskUnits="userSpaceOnUse" x="0" y="2" width="65" height="64">
<rect x="0.362061" y="2" width="64" height="64" fill="#D9D9D9"/>
</mask>
<g mask="url(#mask0_836_10739)">
<path d="M44.2175 14.9193C46.3279 13.1611 52.3074 8.9403 56.8799 7.18164C56.8799 7.18164 60.3972 8.9403 61.4524 11.4024L60.0455 12.8094C64.9697 24.0648 61.8041 30.0442 61.8041 30.0442" fill="#7B4300"/>
<path d="M1.21167 39.393C1.21167 25.0963 14.9632 13.5068 31.9265 13.5068C48.8903 13.5068 62.6418 25.0963 62.6418 39.393C62.6418 53.6891 48.4924 57.0685 31.5285 57.0685C14.5653 57.0685 1.21167 53.6891 1.21167 39.393Z" fill="#C8B180" stroke="#2A1F19" stroke-width="2" stroke-miterlimit="10" stroke-linejoin="round"/>
<path d="M21 17C21 15.6667 12.2101 9.64391 7.63754 7.88525C7.63754 7.88525 4.12022 9.64391 3.06503 12.106L4.47195 13.513C-0.971272 24.1235 3.69539 32.1235 3.69539 32.1235" fill="#C8B180"/>
<path d="M2.5 32C1.25244 29.2887 0.0420579 21.2284 4.12277 13.4371L2.38731 12.0454C2.38731 12.0454 5.41454 7.91484 7.30807 7.86485C11.4249 7.88698 21.0033 15.2715 21.0033 15.2715" stroke="#2A1F19" stroke-width="2"/>
<path d="M61.2724 31.8196C62.5199 29.1083 63.9435 21.2452 59.8628 13.4539L61.5982 12.0622C61.5982 12.0622 58.571 7.93161 56.6775 7.88163C52.5606 7.90376 43.1623 15.6233 43.1623 15.6233" stroke="#2A1F19" stroke-width="2"/>
<mask id="mask1_836_10739" style="mask-type:alpha" maskUnits="userSpaceOnUse" x="43" y="-3" width="35" height="35">
<circle cx="60.749" cy="14.5684" r="17.2349" fill="#AEAEAE"/>
</mask>
<g mask="url(#mask1_836_10739)">
<path d="M1.3064 39.3935C1.3064 25.0968 15.058 13.5073 32.0212 13.5073C48.985 13.5073 62.7365 25.0968 62.7365 39.3935C62.7365 53.6896 48.5871 57.0689 31.6232 57.0689C14.66 57.0689 1.3064 53.6896 1.3064 39.3935Z" fill="#C8B180" stroke="#C8B180" stroke-width="2" stroke-miterlimit="10" stroke-linejoin="round"/>
<path d="M44.3123 14.9198C46.4226 13.1616 52.4021 8.94079 56.9746 7.18213C56.9746 7.18213 60.4919 8.94079 61.5471 11.4029L60.1402 12.8098C65.0644 24.0653 61.8988 30.0447 61.8988 30.0447" fill="#C8B180"/>
<path d="M61.1007 32.155C62.3482 29.4438 64.0382 21.2456 59.9574 13.4543L61.6929 12.0626C61.6929 12.0626 58.6657 7.93204 56.7721 7.88206C52.6553 7.90419 43.1623 15.6236 43.1623 15.6236" stroke="#2A1F19" stroke-width="2"/>
</g>
</g>
</svg>
