<svg width="32" height="32" viewBox="0 0 32 32" fill="none" xmlns="http://www.w3.org/2000/svg">
<path d="M8 13.3332V10.6665C8 6.25317 9.33333 2.6665 16 2.6665C22.6667 2.6665 24 6.25317 24 10.6665V13.3332" stroke="#292D32" stroke-width="1.5" stroke-linecap="round" stroke-linejoin="round"/>
<path d="M16.0001 24.6667C17.841 24.6667 19.3334 23.1743 19.3334 21.3333C19.3334 19.4924 17.841 18 16.0001 18C14.1591 18 12.6667 19.4924 12.6667 21.3333C12.6667 23.1743 14.1591 24.6667 16.0001 24.6667Z" stroke="#292D32" stroke-width="1.5" stroke-linecap="round" stroke-linejoin="round"/>
<path d="M22.6667 29.3335H9.33341C4.00008 29.3335 2.66675 28.0002 2.66675 22.6668V20.0002C2.66675 14.6668 4.00008 13.3335 9.33341 13.3335H22.6667C28.0001 13.3335 29.3334 14.6668 29.3334 20.0002V22.6668C29.3334 28.0002 28.0001 29.3335 22.6667 29.3335Z" stroke="#292D32" stroke-width="1.5" stroke-linecap="round" stroke-linejoin="round"/>
</svg>
