<svg width="20" height="21" viewBox="0 0 20 21" fill="none" xmlns="http://www.w3.org/2000/svg">
<path d="M10.8501 1.92279C10.5699 1.11678 9.43006 1.11679 9.14989 1.92279L7.29081 7.27112L1.62976 7.38649C0.776622 7.40387 0.424388 8.48797 1.10436 9.00349L5.61644 12.4243L3.9768 17.8439C3.7297 18.6607 4.65189 19.3307 5.3523 18.8433L10 15.6091L14.6477 18.8433C15.3481 19.3307 16.2703 18.6607 16.0232 17.8439L14.3836 12.4243L18.8956 9.00349C19.5756 8.48796 19.2234 7.40387 18.3702 7.38649L12.7092 7.27112L10.8501 1.92279ZM5.6719 12.4663C5.67181 12.4663 5.67173 12.4662 5.67165 12.4662L5.6719 12.4663Z" fill="url(#paint0_linear_243_46201)" stroke="black"/>
<defs>
<linearGradient id="paint0_linear_243_46201" x1="10" y1="1" x2="10" y2="21" gradientUnits="userSpaceOnUse">
<stop stop-color="#EBDB4F"/>
<stop offset="1" stop-color="#FAAB72"/>
</linearGradient>
</defs>
</svg>
