<svg width="118" height="134" viewBox="0 0 118 134" fill="none" xmlns="http://www.w3.org/2000/svg">
<path d="M1.5 111.096C1.5 111.096 2 107.096 5.5 106.596C9.85239 106.161 12 110.596 12 110.596L17 118.5L30.5 122.096L32 126.596C32 126.596 23 129.596 14 127.596C14 127.596 8.99996 125.596 4.99996 122.096C4.99996 122.096 1.5 117.596 1.5 111.096Z" fill="#505050"/>
<path d="M37 102.058C37 102.058 42.5 88.5577 50 87.5579C55 86.0579 71 88.058 71 88.058C73.5 93.5578 77 121.058 77 121.058C76.5 126.058 74.5 129.058 74.5 129.058C73 131.058 68.5 129.058 68.5 129.058C66.5 131.558 64.5 132.558 63 131.558C53 133.558 43.5 131.558 37.5 129.058C33.5 126.558 31 123.558 31 118.058C32 113.058 34.5 107.558 37 102.058Z" fill="#505050"/>
<path d="M49.5 87.0576C37 94.0576 31 117.558 31 117.558C31.5 132.558 45 132.558 52 132.558L60 132.058C56.5 130.058 54.5 124.558 54.5 124.558C54.5 124.558 56.5 132.058 63.5 132.558C67 133.058 68 128.558 68 128.558C71 130.058 72 130.558 73.5 129.558C80 124.058 75.5 108.558 75.5 108.558C74 95.5576 71.5 87.5576 71.5 87.5576L49.5 87.0576Z" stroke="#2A1F19" stroke-width="2"/>
<mask id="mask0_260_845" style="mask-type:alpha" maskUnits="userSpaceOnUse" x="8" y="0" width="110" height="110">
<rect x="8" width="110" height="110" fill="#D9D9D9"/>
</mask>
<g mask="url(#mask0_260_845)">
<path d="M45.9067 25.2491C42.7412 22.6117 33.772 16.2806 26.9132 13.6426C26.9132 13.6426 21.6372 16.2806 20.0544 19.9738L22.1648 22.0841C15.8337 36.3293 19.5 46.5 19.5 46.5" fill="#505050"/>
<path d="M81.7837 24.1939C84.9493 21.5566 93.9184 15.2254 100.777 12.5874C100.777 12.5874 106.053 15.2254 107.636 18.9186L105.526 21.029C112.912 37.9121 108.164 46.8813 108.164 46.8813" fill="#442514"/>
<path d="M17.2744 60.9042C17.2744 39.4592 37.9017 22.075 63.3466 22.075C88.7924 22.075 109.42 39.4592 109.42 60.9042C109.42 82.3483 88.1954 87.4174 62.7497 87.4174C37.3048 87.4174 17.2744 82.3483 17.2744 60.9042Z" fill="#505050" stroke="#2A1F19" stroke-width="2" stroke-miterlimit="10" stroke-linejoin="round"/>
<path d="M19.5266 49.5189C17.6553 45.452 15.52 33.6573 21.6411 21.9704L19.0379 19.8829C19.0379 19.8829 23.5787 13.687 26.419 13.612C32.5943 13.6452 46.9619 24.722 46.9619 24.722" stroke="#2A1F19" stroke-width="2"/>
<path d="M107.366 49.5441C109.237 45.4772 111.372 33.6825 105.251 21.9955L107.854 19.908C107.854 19.908 103.314 13.7121 100.473 13.6371C94.2981 13.6703 80.2006 25.2497 80.2006 25.2497" stroke="#2A1F19" stroke-width="2"/>
<mask id="mask1_260_845" style="mask-type:alpha" maskUnits="userSpaceOnUse" x="80" y="-3" width="53" height="53">
<circle cx="106.58" cy="23.6667" r="25.8523" fill="#AEAEAE"/>
</mask>
<g mask="url(#mask1_260_845)">
<path d="M17.416 60.9042C17.416 39.4592 38.0434 22.075 63.4882 22.075C88.934 22.075 109.561 39.4592 109.561 60.9042C109.561 82.3483 88.337 87.4174 62.8913 87.4174C37.4464 87.4174 17.416 82.3483 17.416 60.9042Z" fill="#442514" stroke="#442514" stroke-width="2" stroke-miterlimit="10" stroke-linejoin="round"/>
<path d="M81.9248 24.1939C85.0904 21.5566 94.0596 15.2254 100.918 12.5874C100.918 12.5874 106.194 15.2254 107.777 18.9186L105.667 21.029C113.053 37.9121 108.305 46.8813 108.305 46.8813" fill="#442514"/>
<path d="M107.108 50.047C108.979 45.9801 111.514 33.6829 105.393 21.9959L107.996 19.9084C107.996 19.9084 103.455 13.7125 100.615 13.6375C94.4397 13.6707 80.2003 25.2498 80.2003 25.2498" stroke="#2A1F19" stroke-width="2"/>
</g>
</g>
<mask id="mask2_260_845" style="mask-type:alpha" maskUnits="userSpaceOnUse" x="1" y="106" width="31" height="22">
<path d="M1 110.53C1 110.53 1.5 106.53 5 106.03C9.35239 105.595 11.5 110.03 11.5 110.03L16 118.03L30 121.53L31.5 126.03C31.5 126.03 22.5 129.03 13.5 127.03C13.5 127.03 8.49996 125.03 4.49996 121.53C4.49996 121.53 1 117.03 1 110.53Z" fill="#5E5E5E"/>
</mask>
<g mask="url(#mask2_260_845)">
<ellipse cx="4.50019" cy="110.933" rx="13.7599" ry="7.9875" transform="rotate(58.4999 4.50019 110.933)" fill="#442514"/>
</g>
<path d="M17.2073 117.657C19.2072 119.157 27.2072 120.157 31.2073 121.657L33.2073 127.157C27.2072 129.157 17.2072 128.657 12.2073 127.157C7.20721 125.657 3.70721 121.157 2.20731 117.657C1.7072 116.657 1 115.038 1 110.538C1 106.157 6.20731 105.657 7.70731 106.157C11.5002 107.038 15.2072 116.157 17.2073 117.657Z" stroke="#2A1F19" stroke-width="2"/>
<path d="M29 64.5C28.7239 64.5 28.5 64.7239 28.5 65C28.5 65.2761 28.7239 65.5 29 65.5V64.5ZM29 65.5H44V64.5H29V65.5Z" fill="black"/>
<path d="M29.6232 53.9647C29.3637 53.8703 29.0767 54.0041 28.9823 54.2636C28.8879 54.523 29.0216 54.81 29.2811 54.9044L29.6232 53.9647ZM29.2811 54.9044L43.3765 60.0347L43.7185 59.095L29.6232 53.9647L29.2811 54.9044Z" fill="black"/>
<path d="M29.2811 75.0956C29.0216 75.19 28.8879 75.477 28.9823 75.7364C29.0767 75.9959 29.3637 76.1297 29.6232 76.0353L29.2811 75.0956ZM29.6232 76.0353L43.7185 70.905L43.3765 69.9653L29.2811 75.0956L29.6232 76.0353Z" fill="black"/>
<path d="M48.4719 48.0209C49.2847 46.9048 52.4691 47.8393 54.2548 49.1399C56.0405 50.4404 55.7514 51.6145 54.9386 52.7306C54.1257 53.8467 53.097 54.4821 51.3112 53.1816C49.5255 51.881 47.659 49.137 48.4719 48.0209Z" fill="black"/>
<path d="M76.9383 48.0209C76.1255 46.9048 72.9411 47.8393 71.1554 49.1399C69.3696 50.4404 69.6587 51.6145 70.4716 52.7306C71.2844 53.8467 72.3132 54.4821 74.0989 53.1816C75.8847 51.881 77.7511 49.137 76.9383 48.0209Z" fill="black"/>
<path d="M54.5 67C60 67 62.5 62.5 62.5 62.5C62.5 62.5 65 66.5 70 67" stroke="black" stroke-width="2" stroke-linecap="round"/>
<path d="M62.3101 37.5935H62.303L62.2959 37.5937C56.7273 37.7519 50.2061 36.983 45.093 35.3822C42.5342 34.5811 40.3603 33.5815 38.8364 32.4098C37.3116 31.2373 36.5 29.945 36.5 28.5496C36.5 26.9463 37.2774 25.4501 38.7099 24.066C40.1457 22.6788 42.2093 21.4361 44.6913 20.3607C49.6529 18.2108 56.1763 16.7759 62.3605 16.1499L62.3605 16.15L62.3682 16.1491C67.8701 15.506 74.1399 15.0218 79.0215 15.5751C81.4666 15.8521 83.5092 16.3843 84.9272 17.2465C86.3183 18.0925 87.0885 19.2382 87.0885 20.8113C87.0885 22.4278 86.2387 24.289 84.7132 26.2052C83.1962 28.1109 81.054 30.0161 78.5755 31.7108C73.6064 35.1083 67.3848 37.5935 62.3101 37.5935Z" fill="black" stroke="#B5B5B5"/>
<path d="M58.3479 7.61449C58.3479 7.61449 53.7049 8.13038 47.7722 7.35655C44.6769 7.87241 45.5436 23.0878 45.5436 23.0878C51.2185 27.4728 62.4749 25.9284 62.4749 25.9284C62.4749 25.9284 70.7293 25.1546 76.9197 18.706C76.9197 18.706 72.7926 3.74535 67.1179 4.0033C62.9908 6.84067 58.3479 7.61449 58.3479 7.61449Z" fill="black"/>
<path d="M62.052 26.1831C62.052 26.1831 70.7293 25.1546 76.9197 18.706L78.5602 22.8298C72.3698 29.2784 62.052 31.084 62.052 31.084C62.052 31.084 51.0316 32.651 45.2856 28.5045L45.5436 23.0878C51.2185 27.4728 62.052 26.1831 62.052 26.1831Z" fill="white"/>
<path d="M76.9197 18.706C76.9197 18.706 72.7926 3.74535 67.1179 4.0033C62.9908 6.84067 58.3479 7.61449 58.3479 7.61449C58.3479 7.61449 53.7049 8.13038 47.7722 7.35655C44.6769 7.87241 45.5436 23.0878 45.5436 23.0878M76.9197 18.706C70.7293 25.1546 62.4749 25.9284 62.4749 25.9284C62.4749 25.9284 51.2185 27.4728 45.5436 23.0878M76.9197 18.706C70.7293 25.1546 62.052 26.1831 62.052 26.1831C62.052 26.1831 51.2185 27.4728 45.5436 23.0878M76.9197 18.706L78.5602 22.8298C72.3698 29.2784 62.052 31.084 62.052 31.084C62.052 31.084 51.0316 32.651 45.2856 28.5045L45.5436 23.0878" stroke="#B5B5B5"/>
<path d="M49.6709 10.1904C54.3139 11.7381 59.2148 10.7063 59.2148 10.7063C59.2148 10.7063 63.8577 9.93247 66.953 6.83716" stroke="#B5B5B5"/>
<path d="M85.8118 53.4219C85.7392 53.72 85.6641 54.0265 85.5869 54.3394C84.8418 57.359 83.9053 60.9476 83.1276 63.2832C82.0357 66.0891 80.3963 69.6029 79.0246 72.4246C78.9835 72.5092 78.9426 72.5931 78.902 72.6764C78.9255 72.5939 78.9493 72.5108 78.9732 72.4271C79.8356 69.4086 80.9317 65.6506 81.8711 62.6748C83.1211 59.395 84.6059 56.0347 85.7801 53.4904C85.7907 53.4675 85.8013 53.4447 85.8118 53.4219Z" fill="#A4312E" stroke="#C13F47"/>
<path d="M90.8387 54.0503C90.7661 54.3485 90.691 54.655 90.6138 54.9678C89.8687 57.9875 88.9322 61.576 88.1545 63.9116C87.0626 66.7175 85.4231 70.2313 84.0515 73.053C84.0103 73.1376 83.9695 73.2216 83.9288 73.3049C83.9524 73.2223 83.9761 73.1392 84 73.0555C84.8625 70.037 85.9585 66.2791 86.898 63.3032C88.148 60.0235 89.6327 56.6631 90.807 54.1189C90.8176 54.0959 90.8281 54.0731 90.8387 54.0503Z" fill="#A4312E" stroke="#C13F47"/>
<path d="M95.866 55.3071C95.7934 55.6053 95.7183 55.9118 95.6411 56.2246C94.896 59.2443 93.9595 62.8329 93.1818 65.1685C92.0899 67.9743 90.4505 71.4881 89.0788 74.3098C89.0377 74.3944 88.9968 74.4784 88.9562 74.5617C88.9797 74.4792 89.0035 74.396 89.0274 74.3123C89.8898 71.2938 90.9859 67.5359 91.9253 64.5601C93.1753 61.2803 94.6601 57.9199 95.8343 55.3757C95.8449 55.3528 95.8555 55.3299 95.866 55.3071Z" fill="#A4312E" stroke="#C13F47"/>
<path d="M47.3404 41.8707C44.3554 41.8707 39.6294 42.8657 38.137 44.3581C38.137 44.3581 36.6446 45.6018 35.8985 47.3429C35.8985 47.3429 33.9085 46.8454 33.4112 47.0942C32.665 47.5917 33.1624 48.3379 33.1624 48.3379C33.6597 48.8353 35.8985 49.0841 35.8985 49.0841C35.8985 49.0841 35.6494 50.0789 35.6496 51.3226C35.6496 51.3226 35.4009 55.3024 37.3908 58.7847C37.726 59.2822 38.9697 61.0233 43.3606 61.0234C45.8478 61.0233 48.3351 60.0284 51.5689 58.2873C51.5689 58.2873 55.7972 55.5511 58.036 53.3126C58.036 53.3126 60.5232 51.0739 61.0208 48.0891C61.0208 48.0891 61.5181 45.8505 58.036 43.6119C56.5434 42.8658 54.3048 41.622 47.3404 41.8707Z" fill="black" stroke="black"/>
<path d="M47.3404 41.8707C44.3554 41.8707 39.6294 42.8657 38.137 44.3581C38.137 44.3581 36.6446 45.6018 35.8985 47.3429C35.8985 47.3429 33.9085 46.8454 33.4112 47.0942C32.665 47.5917 33.1624 48.3379 33.1624 48.3379C33.6597 48.8353 35.8985 49.0841 35.8985 49.0841C35.8985 49.0841 35.6494 50.0789 35.6496 51.3226C35.6496 51.3226 35.4009 55.3024 37.3908 58.7847C37.726 59.2822 38.9697 61.0233 43.3606 61.0234C45.8478 61.0233 48.3351 60.0284 51.5689 58.2873C51.5689 58.2873 55.7972 55.5511 58.036 53.3126C58.036 53.3126 60.5232 51.0739 61.0208 48.0891C61.0208 48.0891 61.5181 45.8505 58.036 43.6119C56.5434 42.8658 54.3048 41.622 47.3404 41.8707Z" stroke="black"/>
<mask id="mask3_260_845" style="mask-type:alpha" maskUnits="userSpaceOnUse" x="63" y="41" width="29" height="21">
<path d="M77.4618 41.6544C80.4469 41.6544 85.1728 42.6494 86.6652 44.1418C86.6652 44.1418 88.1577 45.3855 88.9037 47.1266C88.9037 47.1266 90.3717 46.8455 90.869 47.0943C91.6152 47.5917 91.3664 48.3379 91.3664 48.3379C90.8691 48.8354 88.9037 48.8678 88.9037 48.8678C88.9037 48.8678 89.1528 49.8626 89.1526 51.1063C89.1526 51.1063 89.1278 54.3076 87.6354 58.0386C87.2244 58.7848 85.9807 61.0235 81.9145 61.0235C79.4273 61.0234 76.4425 60.0285 73.2087 58.2874C73.2087 58.2874 68.9804 55.5512 66.7416 53.3126C66.7416 53.3126 64.279 50.8576 63.7814 47.8728C63.7814 47.8728 63.2841 45.6341 66.7662 43.3956C68.2588 42.6495 70.4974 41.4057 77.4618 41.6544Z" fill="black" stroke="black"/>
</mask>
<g mask="url(#mask3_260_845)">
<path d="M77.4618 41.6544C80.4469 41.6544 85.1728 42.6494 86.6652 44.1418C86.6652 44.1418 88.1577 45.3855 88.9037 47.1266C88.9037 47.1266 90.3717 46.8455 90.869 47.0943C91.6152 47.5917 91.3664 48.3379 91.3664 48.3379C90.8691 48.8354 88.9037 48.8678 88.9037 48.8678C88.9037 48.8678 89.1528 49.8626 89.1526 51.1063C89.1526 51.1063 89.1278 54.3076 87.6354 58.0386C87.2244 58.7848 85.9807 61.0235 81.9145 61.0235C79.4273 61.0234 76.4425 60.0285 73.2087 58.2874C73.2087 58.2874 68.9804 55.5512 66.7416 53.3126C66.7416 53.3126 64.279 50.8576 63.7814 47.8728C63.7814 47.8728 63.2841 45.6341 66.7662 43.3956C68.2588 42.6495 70.4974 41.4057 77.4618 41.6544Z" fill="black" stroke="black"/>
</g>
<path d="M63.5766 47.5918H60.8405C60.8405 47.5918 60.8405 48.0893 60.772 48.5867H63.5766C63.5081 48.338 63.5766 47.5918 63.5766 47.5918Z" fill="black" stroke="black"/>
<path d="M74.7873 41.6218C69.5639 40.8757 56.1322 40.6268 49.665 41.8705L50.4112 42.1304C56.3809 40.8866 68.3202 41.373 74.2899 42.1192L74.7873 41.6218Z" fill="black" stroke="black"/>
<path d="M74.7876 58.2872L84.737 43.363L86.4782 44.6067L76.7775 59.2821L74.7876 58.2872Z" fill="white" stroke="white" stroke-width="0.5"/>
<path d="M72.7979 57.2921L82.7473 42.6167L83.7422 43.1142L73.5441 57.7896L72.7979 57.2921Z" fill="white" stroke="white" stroke-width="0.5"/>
<path d="M39.5129 58.2676C40.9497 58.1007 42.5023 58.2229 44.8442 58.6785C50.1245 59.7058 56.8228 61.8203 56.8228 61.8203C58.4708 62.4531 59.9527 63.9294 60.0472 64.7427C60.045 65.3611 59.6004 66.8552 56.6473 67.4044C55.2297 67.5691 49.6638 66.6047 45.2643 65.842C42.0918 65.2919 39.8046 65.02 38.7983 64.5325C38.7983 64.5325 37.257 63.6813 37.3801 61.1942C37.7066 58.6835 39.5129 58.2676 39.5129 58.2676Z" fill="#AD8C6B"/>
<path d="M44.8442 58.6785C47.3498 62.5087 45.4204 65.4117 45.2643 65.842M44.8442 58.6785C42.5023 58.2229 40.9497 58.1007 39.5129 58.2676M44.8442 58.6785C50.1245 59.7058 56.8228 61.8203 56.8228 61.8203C58.4708 62.4531 59.9527 63.9294 60.0472 64.7427C60.045 65.3611 59.6004 66.8552 56.6473 67.4044C55.2297 67.5691 49.6638 66.6047 45.2643 65.842M45.2643 65.842C42.0918 65.2919 39.8046 65.02 38.7983 64.5325M39.5129 58.2676C39.5129 58.2676 37.7066 58.6835 37.3801 61.1942C37.257 63.6813 38.7983 64.5325 38.7983 64.5325M39.5129 58.2676C41.6949 61.7233 38.7983 64.5325 38.7983 64.5325M49.7095 59.7618C49.7095 59.7618 53.0664 62.0506 50.716 66.651M55.8892 61.5166C55.8892 61.5166 57.8844 62.7273 56.3473 67.2332" stroke="black"/>
<path d="M45.5853 65.2408C46.4321 63.4214 46.4107 61.1559 45.0679 59.0165C44.9299 58.7966 44.7013 58.6504 44.4462 58.6027C43.1415 58.3586 42.1309 58.2224 41.2293 58.1912C40.4934 58.1657 40.0984 58.9881 40.2933 59.6982C40.707 61.2052 40.2622 62.5031 39.773 63.371C39.4321 63.9759 39.6106 64.7922 40.287 64.9493C41.3341 65.1925 42.7786 65.4183 44.5913 65.7266C44.9969 65.7956 45.4117 65.6138 45.5853 65.2408Z" fill="#A68E68" stroke="black"/>
<path d="M37.3801 61.1942C37.3063 62.6855 37.8309 63.5886 38.2628 64.0728C38.5455 64.3896 39.0099 64.3422 39.2689 64.0057C39.933 63.1434 40.9484 61.2858 39.8534 58.9083C39.6725 58.5155 39.2212 58.3365 38.859 58.5729C38.3071 58.933 37.5764 59.6853 37.3801 61.1942Z" fill="#FC2424" stroke="black"/>
<path d="M31.0049 20.2115C31.0049 20.2115 31.2809 16.4615 34.5935 13C35.2887 16.75 36.5258 20.7885 36.5258 20.7885C37.497 23.3846 41.4946 26.8462 41.4946 26.8462C44.3981 29.7308 43.979 34.6346 43.979 34.6346C43.846 37.5192 41.9137 41.8462 40.9425 43.8654C39.9814 46.1731 37.497 49.6346 37.3539 51.3654V58C37.3539 58 34.7366 53.3846 34.5935 51.3654C34.4605 49.0577 35.2887 47.9038 35.9737 45.8846C36.6689 43.5769 37.497 39.25 37.3539 37.2308C37.497 35.2115 35.8407 31.4615 33.4893 28C33.4893 28 30.872 23.9615 31.0049 20.2115Z" fill="#D3D3D3" stroke="#D3D3D3" stroke-width="2"/>
</svg>
