<svg width="112" height="134" viewBox="0 0 112 134" fill="none" xmlns="http://www.w3.org/2000/svg">
<path d="M1.5 110.53C1.5 110.53 2 106.53 5.5 106.03C9.85239 105.595 12 110.03 12 110.03L17 117.934L30.5 121.53L32.5 127C32.5 127 23 129.03 14 127.03C14 127.03 8.5 126 4.99996 121.53C4.99996 121.53 1.5 117.03 1.5 110.53Z" fill="white"/>
<path d="M37 102.058C37 102.058 42.5 88.5577 50 87.5579C55 86.0579 71 88.058 71 88.058C73.5 93.5578 77 121.058 77 121.058C76.5 126.058 74.5 129.058 74.5 129.058C73 131.058 68.5 129.058 68.5 129.058C66.5 131.558 64.5 132.558 63 131.558C53 133.558 43.5 131.558 37.5 129.058C33.5 126.558 31 123.558 31 118.058C32 113.058 34.5 107.558 37 102.058Z" fill="white"/>
<path d="M49.5 87.0576C37 94.0576 31 117.558 31 117.558C31.5 132.558 45 132.558 52 132.558L60 132.058C56.5 130.058 54.5 124.558 54.5 124.558C54.5 124.558 56.5 132.058 63.5 132.558C67 133.058 68 128.558 68 128.558C71 130.058 72 130.558 73.5 129.558C80 124.058 75.5 108.558 75.5 108.558C74 95.5576 71.5 87.5576 71.5 87.5576L49.5 87.0576Z" stroke="#2A1F19" stroke-width="2"/>
<mask id="mask0_2940_18691" style="mask-type:alpha" maskUnits="userSpaceOnUse" x="2" y="0" width="110" height="110">
<rect x="2" width="110" height="110" fill="#D9D9D9"/>
</mask>
<g mask="url(#mask0_2940_18691)">
<path d="M39.9067 25.2491C36.7411 22.6117 27.7719 16.2806 20.9132 13.6426C20.9132 13.6426 15.6372 16.2806 14.0544 19.9738L16.1648 22.0841C9.8336 36.3293 13.4999 46.5 13.4999 46.5" fill="white"/>
<path d="M75.7834 24.1934C78.949 21.5561 87.9182 15.2249 94.777 12.5869C94.777 12.5869 100.053 15.2249 101.636 18.9181L99.5253 21.0285C106.912 37.9116 102.163 46.8808 102.163 46.8808" fill="#7B4300"/>
<path d="M11.2745 60.9045C11.2745 39.4594 31.9018 22.0752 57.3467 22.0752C82.7924 22.0752 103.42 39.4594 103.42 60.9045C103.42 82.3486 82.1955 87.4176 56.7497 87.4176C31.3049 87.4176 11.2745 82.3486 11.2745 60.9045Z" fill="white" stroke="#2A1F19" stroke-width="2" stroke-miterlimit="10" stroke-linejoin="round"/>
<path d="M13.5265 49.5189C11.6551 45.452 9.51984 33.6573 15.6409 21.9704L13.0377 19.8829C13.0377 19.8829 17.5786 13.687 20.4189 13.612C26.5941 13.6452 40.9618 24.722 40.9618 24.722" stroke="#2A1F19" stroke-width="2"/>
<path d="M101.366 49.5436C103.237 45.4767 105.372 33.682 99.2513 21.995L101.854 19.9075C101.854 19.9075 97.3136 13.7116 94.4733 13.6367C88.2981 13.6698 74.2006 25.2492 74.2006 25.2492" stroke="#2A1F19" stroke-width="2"/>
<mask id="mask1_2940_18691" style="mask-type:alpha" maskUnits="userSpaceOnUse" x="74" y="-3" width="53" height="53">
<circle cx="100.58" cy="23.6667" r="25.8523" fill="#AEAEAE"/>
</mask>
<g mask="url(#mask1_2940_18691)">
<path d="M11.4164 60.9045C11.4164 39.4594 32.0437 22.0752 57.4886 22.0752C82.9343 22.0752 103.562 39.4594 103.562 60.9045C103.562 82.3486 82.3374 87.4176 56.8917 87.4176C31.4468 87.4176 11.4164 82.3486 11.4164 60.9045Z" fill="#7B4300" stroke="#7B4300" stroke-width="2" stroke-miterlimit="10" stroke-linejoin="round"/>
<path d="M75.9252 24.1934C79.0908 21.5561 88.0599 15.2249 94.9187 12.5869C94.9187 12.5869 100.195 15.2249 101.777 18.9181L99.6671 21.0285C107.053 37.9116 102.305 46.8808 102.305 46.8808" fill="#7B4300"/>
<path d="M101.108 50.047C102.979 45.9801 105.514 33.6829 99.3931 21.9959L101.996 19.9084C101.996 19.9084 97.4555 13.7125 94.6152 13.6375C88.4399 13.6707 74.2005 25.2498 74.2005 25.2498" stroke="#2A1F19" stroke-width="2"/>
</g>
</g>
<mask id="mask2_2940_18691" style="mask-type:alpha" maskUnits="userSpaceOnUse" x="1" y="106" width="31" height="22">
<path d="M1 110.53C1 110.53 1.5 106.53 5 106.03C9.35239 105.595 11.5 110.03 11.5 110.03L16 118.03L30 121.53L31.5 126.03C31.5 126.03 22.5 129.03 13.5 127.03C13.5 127.03 8.49996 125.03 4.49996 121.53C4.49996 121.53 1 117.03 1 110.53Z" fill="#5E5E5E"/>
</mask>
<g mask="url(#mask2_2940_18691)">
<ellipse cx="4.50001" cy="110.933" rx="13.7599" ry="7.9875" transform="rotate(58.4999 4.50001 110.933)" fill="#7B4300"/>
</g>
<path d="M17.2073 117.657C19.2072 119.157 27.2072 120.157 31.2073 121.657L33.2073 127.157C27.2072 129.157 17.2072 128.657 12.2073 127.157C7.20721 125.657 3.70721 121.157 2.20731 117.657C1.7072 116.657 1 115.038 1 110.538C1 106.157 6.20731 105.657 7.70731 106.157C11.5002 107.038 15.2072 116.157 17.2073 117.657Z" stroke="#2A1F19" stroke-width="2"/>
<path d="M23 64.5C22.7239 64.5 22.5 64.7239 22.5 65C22.5 65.2761 22.7239 65.5 23 65.5V64.5ZM23 65.5H38V64.5H23V65.5Z" fill="black"/>
<path d="M23.6232 53.9647C23.3637 53.8703 23.0767 54.0041 22.9823 54.2636C22.8879 54.523 23.0216 54.81 23.2811 54.9044L23.6232 53.9647ZM23.2811 54.9044L37.3765 60.0347L37.7185 59.095L23.6232 53.9647L23.2811 54.9044Z" fill="black"/>
<path d="M23.2811 75.0956C23.0216 75.19 22.8879 75.477 22.9823 75.7364C23.0767 75.9959 23.3637 76.1297 23.6232 76.0353L23.2811 75.0956ZM23.6232 76.0353L37.7185 70.905L37.3765 69.9653L23.2811 75.0956L23.6232 76.0353Z" fill="black"/>
<path d="M89 65.0654C89.2761 65.0654 89.5 65.2893 89.5 65.5654C89.5 65.8416 89.2761 66.0654 89 66.0654V65.0654ZM89 66.0654H74V65.0654H89V66.0654Z" fill="black"/>
<path d="M88.3768 54.5302C88.6363 54.4357 88.9233 54.5695 89.0177 54.829C89.1121 55.0885 88.9784 55.3754 88.7189 55.4698L88.3768 54.5302ZM88.7189 55.4698L74.6235 60.6001L74.2815 59.6605L88.3768 54.5302L88.7189 55.4698Z" fill="black"/>
<path d="M88.7189 75.661C88.9784 75.7555 89.1121 76.0424 89.0177 76.3019C88.9233 76.5614 88.6363 76.6952 88.3768 76.6007L88.7189 75.661ZM88.3768 76.6007L74.2815 71.4704L74.6235 70.5307L88.7189 75.661L88.3768 76.6007Z" fill="black"/>
<path d="M50 63C53 68 56.5 63 56.5 63C56.5 63 60 68 63 63" stroke="black" stroke-width="2" stroke-linecap="round"/>
<path d="M43.2351 47.1326C42.9617 46.8592 42.9617 46.416 43.2351 46.1427L43.3058 46.0719C43.5792 45.7986 44.0224 45.7986 44.2958 46.0719L49.6698 51.446C49.9431 51.7193 49.9431 52.1625 49.6698 52.4359L49.5991 52.5066C49.3257 52.78 48.8825 52.78 48.6091 52.5066L43.2351 47.1326Z" fill="black"/>
<path d="M48.6093 46.072C48.8826 45.7986 49.3259 45.7986 49.5992 46.072L49.6699 46.1427C49.9433 46.4161 49.9433 46.8593 49.6699 47.1327L44.2959 52.5067C44.0226 52.7801 43.5793 52.7801 43.306 52.5067L43.2353 52.436C42.9619 52.1626 42.9619 51.7194 43.2353 51.446L48.6093 46.072Z" fill="black"/>
<path d="M63.2351 47.1326C62.9617 46.8592 62.9617 46.416 63.2351 46.1427L63.3058 46.0719C63.5792 45.7986 64.0224 45.7986 64.2958 46.0719L69.6698 51.446C69.9431 51.7193 69.9431 52.1625 69.6698 52.4359L69.5991 52.5066C69.3257 52.78 68.8825 52.78 68.6091 52.5066L63.2351 47.1326Z" fill="black"/>
<path d="M68.6093 46.072C68.8826 45.7986 69.3259 45.7986 69.5992 46.072L69.6699 46.1427C69.9433 46.4161 69.9433 46.8593 69.6699 47.1327L64.2959 52.5067C64.0226 52.7801 63.5793 52.7801 63.306 52.5067L63.2353 52.436C62.9619 52.1626 62.9619 51.7194 63.2353 51.446L68.6093 46.072Z" fill="black"/>
<path d="M55.5 36.5C50 36.5 38 36 38 30L56.5 31L75 30C75 36 61 36.5 55.5 36.5Z" fill="#805735" stroke="#00090E" stroke-width="1.5"/>
<path d="M42.8684 16C42.8684 16 38 22 38 29.5C43.8421 31 56.5 31 56.5 31C56.5 31 69.1579 31 75 29.5C75 22 71.1053 17 71.1053 17C67.2105 10 59.4211 10 56.5 10C53.5789 10 46.7632 10 42.8684 16Z" fill="#805735" stroke="#00000C" stroke-width="1.5"/>
<path d="M70.2422 17H43.0547C42.4998 17.5 41.2207 20 41.2207 20H72.0195C72.0195 20 70.5 17 70.2422 17Z" fill="#BF824F"/>
<path d="M73.2305 23H39.9414C39.8367 23 39.1729 25.5 39.1016 26H73.957C74 25.5 73.2305 23 73.2305 23Z" fill="#BF824F"/>
<path d="M45.5 16C45.5 16 43 19.5 43 29.5C46.5 30 52.5 30.5 56 30.5C59 30.5 66.5 30 70 29.5C70 19.5 67 16 67 16C63.5 10 56 10 56 10C56 10 49 10 45.5 16Z" fill="#B58C6A" stroke="#00090E" stroke-width="1.5"/>
<path d="M47.3698 6.46399C49.1806 7.81483 55.5 9.5 55.5 9.5C55.5 7.69413 51.8312 4.25769 50.182 3.2395C49.9068 3.06957 49.5645 3.10263 49.3003 3.28931C48.3299 3.97511 47.6268 4.68922 47.1912 5.6322C47.0555 5.92603 47.1104 6.27046 47.3698 6.46399Z" fill="#805735" stroke="#121212" stroke-width="1.5"/>
<path d="M65.1302 6.46399C63.3194 7.81483 57 9.5 57 9.5C57 7.69413 60.6688 4.25769 62.318 3.2395C62.5932 3.06957 62.9355 3.10263 63.1997 3.28931C64.1701 3.97511 64.8732 4.68922 65.3088 5.6322C65.4445 5.92603 65.3896 6.27046 65.1302 6.46399Z" fill="#805735" stroke="#121212" stroke-width="1.5"/>
<path d="M41.6101 86.5975L38.6667 84.9623L48.3145 83L52.239 88.8868L45.2075 110.145L30 99.3522C31.4717 95.2642 34.9057 91.6667 34.9057 91.6667C34.9057 91.6667 38.5031 88.0692 41.6101 86.5975Z" fill="#B58C6A"/>
<path d="M41.6101 86.5975L38.6667 84.9623L48.3145 83L52.239 88.8868L45.2075 110.145L30 99.3522C31.4717 95.2642 34.9057 91.6667 34.9057 91.6667C34.9057 91.6667 38.5031 88.0692 41.6101 86.5975ZM41.6101 86.5975H47.0063" stroke="black"/>
<path d="M70.3899 86.5975L73.3333 84.9623L63.6855 83L59.761 88.8868L66.7925 110.145L82 99.3522C80.5283 95.2642 77.0943 91.6667 77.0943 91.6667C77.0943 91.6667 73.4969 88.0692 70.3899 86.5975Z" fill="#B58C6A"/>
<path d="M70.3899 86.5975L73.3333 84.9623L63.6855 83L59.761 88.8868L66.7925 110.145L82 99.3522C80.5283 95.2642 77.0943 91.6667 77.0943 91.6667C77.0943 91.6667 73.4969 88.0692 70.3899 86.5975ZM70.3899 86.5975H64.9937" stroke="black"/>
<path d="M55.9999 90.5221C55.9999 90.5221 50.4401 90.5221 47.3332 89.541C46.3521 91.1762 46.3521 92.6479 46.3521 92.6479C46.3521 94.4467 47.3332 95.2643 47.3332 95.2643C50.2766 96.5725 55.9999 96.5725 55.9999 96.5725C55.9999 96.5725 61.7232 96.5725 64.6665 95.2643C64.6665 95.2643 65.6477 94.6102 65.6477 92.6479C65.6477 92.6479 65.6477 90.6857 64.6665 89.541C61.8867 90.5221 55.9999 90.5221 55.9999 90.5221Z" fill="#825126" stroke="black"/>
<circle cx="50.9308" cy="93.1383" r="1.05818" fill="#845126" stroke="#150000" stroke-width="0.5"/>
<circle cx="61.0691" cy="93.1383" r="1.05818" fill="#845126" stroke="#150000" stroke-width="0.5"/>
</svg>
