<svg width="118" height="134" viewBox="0 0 118 134" fill="none" xmlns="http://www.w3.org/2000/svg">
<path d="M1.5 111.096C1.5 111.096 2 107.096 5.5 106.596C9.85239 106.161 12 110.596 12 110.596L17 118.5L30.5 122.096L32 126.596C32 126.596 23 129.596 14 127.596C14 127.596 8.99996 125.596 4.99996 122.096C4.99996 122.096 1.5 117.596 1.5 111.096Z" fill="black"/>
<path d="M37 102.058C37 102.058 42.5 88.5577 50 87.5579C55 86.0579 71 88.058 71 88.058C73.5 93.5578 77 121.058 77 121.058C76.5 126.058 74.5 129.058 74.5 129.058C73 131.058 68.5 129.058 68.5 129.058C66.5 131.558 64.5 132.558 63 131.558C53 133.558 43.5 131.558 37.5 129.058C33.5 126.558 31 123.558 31 118.058C32 113.058 34.5 107.558 37 102.058Z" fill="black"/>
<path d="M49.5 87.0576C37 94.0576 31 117.558 31 117.558C31.5 132.558 45 132.558 52 132.558L60 132.058C56.5 130.058 54.5 124.558 54.5 124.558C54.5 124.558 56.5 132.058 63.5 132.558C67 133.058 68 128.558 68 128.558C71 130.058 72 130.558 73.5 129.558C80 124.058 75.5 108.558 75.5 108.558C74 95.5576 71.5 87.5576 71.5 87.5576L49.5 87.0576Z" stroke="#2A1F19" stroke-width="2"/>
<mask id="mask0_260_841" style="mask-type:alpha" maskUnits="userSpaceOnUse" x="8" y="0" width="110" height="110">
<rect x="8" width="110" height="110" fill="#D9D9D9"/>
</mask>
<g mask="url(#mask0_260_841)">
<path d="M45.9072 25.2492C42.7416 22.6119 33.7725 16.2807 26.9137 13.6427C26.9137 13.6427 21.6377 16.2807 20.0549 19.9739L22.1653 22.0843C15.8342 36.3294 19.5005 46.5001 19.5005 46.5001" fill="black"/>
<path d="M81.7832 24.194C84.9488 21.5567 93.918 15.2255 100.777 12.5875C100.777 12.5875 106.053 15.2255 107.635 18.9187L105.525 21.0291C112.911 37.9122 108.163 46.8814 108.163 46.8814" fill="white"/>
<path d="M17.2744 60.9042C17.2744 39.4592 37.9017 22.075 63.3466 22.075C88.7924 22.075 109.42 39.4592 109.42 60.9042C109.42 82.3483 88.1954 87.4174 62.7497 87.4174C37.3048 87.4174 17.2744 82.3483 17.2744 60.9042Z" fill="black" stroke="#2A1F19" stroke-width="2" stroke-miterlimit="10" stroke-linejoin="round"/>
<path d="M19.5266 49.5192C17.6553 45.4522 15.52 33.6576 21.6411 21.9706L19.0379 19.8831C19.0379 19.8831 23.5787 13.6872 26.419 13.6122C32.5943 13.6454 46.9619 24.7222 46.9619 24.7222" stroke="#2A1F19" stroke-width="2"/>
<path d="M107.366 49.5442C109.237 45.4773 111.372 33.6826 105.251 21.9956L107.854 19.9081C107.854 19.9081 103.314 13.7122 100.473 13.6373C94.2981 13.6705 80.2006 25.2498 80.2006 25.2498" stroke="#2A1F19" stroke-width="2"/>
<mask id="mask1_260_841" style="mask-type:alpha" maskUnits="userSpaceOnUse" x="80" y="-3" width="53" height="53">
<circle cx="106.581" cy="23.6669" r="25.8523" fill="#AEAEAE"/>
</mask>
<g mask="url(#mask1_260_841)">
<path d="M17.417 60.9042C17.417 39.4592 38.0443 22.075 63.4892 22.075C88.935 22.075 109.562 39.4592 109.562 60.9042C109.562 82.3483 88.338 87.4174 62.8923 87.4174C37.4474 87.4174 17.417 82.3483 17.417 60.9042Z" fill="white" stroke="white" stroke-width="2" stroke-miterlimit="10" stroke-linejoin="round"/>
<path d="M81.9258 24.194C85.0914 21.5567 94.0605 15.2255 100.919 12.5875C100.919 12.5875 106.195 15.2255 107.778 18.9187L105.668 21.0291C113.054 37.9122 108.306 46.8814 108.306 46.8814" fill="white"/>
<path d="M107.109 50.047C108.98 45.9801 111.515 33.6829 105.394 21.9959L107.997 19.9084C107.997 19.9084 103.456 13.7125 100.616 13.6375C94.4407 13.6707 80.2013 25.2498 80.2013 25.2498" stroke="#2A1F19" stroke-width="2"/>
</g>
</g>
<mask id="mask2_260_841" style="mask-type:alpha" maskUnits="userSpaceOnUse" x="1" y="106" width="31" height="22">
<path d="M1 110.53C1 110.53 1.5 106.53 5 106.03C9.35239 105.595 11.5 110.03 11.5 110.03L16 118.03L30 121.53L31.5 126.03C31.5 126.03 22.5 129.03 13.5 127.03C13.5 127.03 8.49996 125.03 4.49996 121.53C4.49996 121.53 1 117.03 1 110.53Z" fill="#5E5E5E"/>
</mask>
<g mask="url(#mask2_260_841)">
<ellipse cx="4.50019" cy="110.933" rx="13.7599" ry="7.9875" transform="rotate(58.4999 4.50019 110.933)" fill="white"/>
</g>
<path d="M17.2073 117.657C19.2072 119.157 27.2072 120.157 31.2073 121.657L33.2073 127.157C27.2072 129.157 17.2072 128.657 12.2073 127.157C7.20721 125.657 3.70721 121.157 2.20731 117.657C1.7072 116.657 1 115.038 1 110.538C1 106.157 6.20731 105.657 7.70731 106.157C11.5002 107.038 15.2072 116.157 17.2073 117.657Z" stroke="#2A1F19" stroke-width="2"/>
<path d="M29 64.5C28.7239 64.5 28.5 64.7239 28.5 65C28.5 65.2761 28.7239 65.5 29 65.5V64.5ZM29 65.5H44V64.5H29V65.5Z" fill="white"/>
<path d="M29.6232 53.9647C29.3637 53.8703 29.0767 54.0041 28.9823 54.2636C28.8879 54.523 29.0216 54.81 29.2811 54.9044L29.6232 53.9647ZM29.2811 54.9044L43.3765 60.0347L43.7185 59.095L29.6232 53.9647L29.2811 54.9044Z" fill="white"/>
<path d="M29.2811 75.0956C29.0216 75.19 28.8879 75.477 28.9823 75.7364C29.0767 75.9959 29.3637 76.1297 29.6232 76.0353L29.2811 75.0956ZM29.6232 76.0353L43.7185 70.905L43.3765 69.9653L29.2811 75.0956L29.6232 76.0353Z" fill="white"/>
<path d="M95 65.0654C95.2761 65.0654 95.5 65.2893 95.5 65.5654C95.5 65.8416 95.2761 66.0654 95 66.0654V65.0654ZM95 66.0654H80V65.0654H95V66.0654Z" fill="white"/>
<path d="M94.3768 54.5302C94.6363 54.4357 94.9233 54.5695 95.0177 54.829C95.1121 55.0885 94.9784 55.3754 94.7189 55.4698L94.3768 54.5302ZM94.7189 55.4698L80.6235 60.6001L80.2815 59.6605L94.3768 54.5302L94.7189 55.4698Z" fill="white"/>
<path d="M94.7189 75.661C94.9784 75.7555 95.1121 76.0424 95.0177 76.3019C94.9233 76.5614 94.6363 76.6952 94.3768 76.6007L94.7189 75.661ZM94.3768 76.6007L80.2815 71.4704L80.6235 70.5307L94.7189 75.661L94.3768 76.6007Z" fill="white"/>
<path d="M48.4719 48.0209C49.2847 46.9048 52.4691 47.8393 54.2548 49.1399C56.0405 50.4404 55.7514 51.6145 54.9386 52.7306C54.1257 53.8467 53.097 54.4821 51.3112 53.1816C49.5255 51.881 47.659 49.137 48.4719 48.0209Z" fill="#D9EC06"/>
<path d="M76.9383 48.0209C76.1255 46.9048 72.9411 47.8393 71.1554 49.1399C69.3696 50.4404 69.6587 51.6145 70.4716 52.7306C71.2844 53.8467 72.3132 54.4821 74.0989 53.1816C75.8847 51.881 77.7511 49.137 76.9383 48.0209Z" fill="#D9EC06"/>
<path d="M54.5 67C60 67 62.5 62.5 62.5 62.5C62.5 62.5 65 66.5 70 67" stroke="white" stroke-width="2" stroke-linecap="round"/>
<path d="M39.5129 58.2676C40.9497 58.1007 42.5023 58.2229 44.8442 58.6785C50.1245 59.7058 56.8228 61.8203 56.8228 61.8203C58.4708 62.4531 59.9527 63.9294 60.0472 64.7427C60.045 65.3611 59.6004 66.8552 56.6473 67.4044C55.2297 67.5691 49.6638 66.6047 45.2643 65.842C42.0918 65.2919 39.8046 65.02 38.7983 64.5325C38.7983 64.5325 37.257 63.6813 37.3801 61.1942C37.7066 58.6835 39.5129 58.2676 39.5129 58.2676Z" fill="#AD8C6B"/>
<path d="M44.8442 58.6785C47.3498 62.5087 45.4204 65.4117 45.2643 65.842M44.8442 58.6785C42.5023 58.2229 40.9497 58.1007 39.5129 58.2676M44.8442 58.6785C50.1245 59.7058 56.8228 61.8203 56.8228 61.8203C58.4708 62.4531 59.9527 63.9294 60.0472 64.7427C60.045 65.3611 59.6004 66.8552 56.6473 67.4044C55.2297 67.5691 49.6638 66.6047 45.2643 65.842M45.2643 65.842C42.0918 65.2919 39.8046 65.02 38.7983 64.5325M39.5129 58.2676C39.5129 58.2676 37.7066 58.6835 37.3801 61.1942C37.257 63.6813 38.7983 64.5325 38.7983 64.5325M39.5129 58.2676C41.6949 61.7233 38.7983 64.5325 38.7983 64.5325M49.7095 59.7618C49.7095 59.7618 53.0664 62.0506 50.716 66.651M55.8892 61.5166C55.8892 61.5166 57.8844 62.7273 56.3473 67.2332" stroke="black"/>
<path d="M45.5853 65.2407C46.4321 63.4213 46.4107 61.1558 45.0679 59.0163C44.9299 58.7965 44.7013 58.6503 44.4462 58.6026C43.1415 58.3585 42.1309 58.2222 41.2293 58.1911C40.4934 58.1656 40.0984 58.988 40.2933 59.6981C40.707 61.2051 40.2622 62.503 39.773 63.3709C39.4321 63.9758 39.6106 64.7921 40.287 64.9491C41.3341 65.1923 42.7786 65.4182 44.5913 65.7265C44.9969 65.7955 45.4117 65.6136 45.5853 65.2407Z" fill="#A68E68" stroke="black"/>
<path d="M37.3801 61.1942C37.3063 62.6855 37.8309 63.5886 38.2628 64.0728C38.5455 64.3896 39.0099 64.3422 39.2689 64.0057C39.933 63.1434 40.9484 61.2858 39.8534 58.9083C39.6725 58.5155 39.2212 58.3365 38.859 58.5729C38.3071 58.933 37.5764 59.6853 37.3801 61.1942Z" fill="#FC2424" stroke="black"/>
<path d="M31.0049 20.2115C31.0049 20.2115 31.2809 16.4615 34.5935 13C35.2887 16.75 36.5258 20.7885 36.5258 20.7885C37.497 23.3846 41.4946 26.8462 41.4946 26.8462C44.3981 29.7308 43.979 34.6346 43.979 34.6346C43.846 37.5192 41.9137 41.8462 40.9425 43.8654C39.9814 46.1731 37.497 49.6346 37.3539 51.3654V58C37.3539 58 34.7366 53.3846 34.5935 51.3654C34.4605 49.0577 35.2887 47.9038 35.9737 45.8846C36.6689 43.5769 37.497 39.25 37.3539 37.2308C37.497 35.2115 35.8407 31.4615 33.4893 28C33.4893 28 30.872 23.9615 31.0049 20.2115Z" fill="#D3D3D3" stroke="#D3D3D3" stroke-width="2"/>
</svg>
