<svg width="112" height="134" viewBox="0 0 112 134" fill="none" xmlns="http://www.w3.org/2000/svg">
<path d="M2.5 111.53C2.5 111.53 3 107.53 6.5 107.03C10.8524 106.595 13 111.03 13 111.03L18 118.934L31.5 122.53L33 127.03C33 127.03 24 130.03 15 128.03C15 128.03 9.99996 126.03 5.99996 122.53C5.99996 122.53 2.5 118.03 2.5 111.53Z" fill="#82451A"/>
<path d="M37 102.058C37 102.058 42.5 88.5577 50 87.5579C55 86.0579 71 88.058 71 88.058C73.5 93.5578 77 121.058 77 121.058C76.5 126.058 74.5 129.058 74.5 129.058C73 131.058 68.5 129.058 68.5 129.058C66.5 131.558 64.5 132.558 63 131.558C53 133.558 43.5 131.558 37.5 129.058C33.5 126.558 31 123.558 31 118.058C32 113.058 34.5 107.558 37 102.058Z" fill="#82451A"/>
<path d="M49.5 87.0576C37 94.0576 31 117.558 31 117.558C31.5 132.558 45 132.558 52 132.558L60 132.058C56.5 130.058 54.5 124.558 54.5 124.558C54.5 124.558 56.5 132.058 63.5 132.558C67 133.058 68 128.558 68 128.558C71 130.058 72 130.558 73.5 129.558C80 124.058 75.5 108.558 75.5 108.558C74 95.5576 71.5 87.5576 71.5 87.5576L49.5 87.0576Z" stroke="#2A1F19" stroke-width="2"/>
<mask id="mask0_260_837" style="mask-type:alpha" maskUnits="userSpaceOnUse" x="2" y="0" width="110" height="110">
<rect x="2" width="110" height="110" fill="#D9D9D9"/>
</mask>
<g mask="url(#mask0_260_837)">
<path d="M39.9072 25.2491C36.7416 22.6117 27.7725 16.2806 20.9137 13.6426C20.9137 13.6426 15.6377 16.2806 14.0549 19.9738L16.1653 22.0841C9.83415 36.3293 13.5005 46.5 13.5005 46.5" fill="#82451A"/>
<path d="M75.7832 24.1939C78.9488 21.5566 87.918 15.2254 94.7767 12.5874C94.7767 12.5874 100.053 15.2254 101.635 18.9186L99.5251 21.029C106.911 37.9121 102.163 46.8813 102.163 46.8813" fill="black"/>
<path d="M11.2744 60.9042C11.2744 39.4592 31.9017 22.075 57.3466 22.075C82.7924 22.075 103.42 39.4592 103.42 60.9042C103.42 82.3483 82.1954 87.4174 56.7497 87.4174C31.3048 87.4174 11.2744 82.3483 11.2744 60.9042Z" fill="#82451A" stroke="#2A1F19" stroke-width="2" stroke-miterlimit="10" stroke-linejoin="round"/>
<path d="M13.5266 49.5189C11.6553 45.452 9.52 33.6573 15.6411 21.9704L13.0379 19.8829C13.0379 19.8829 17.5787 13.687 20.419 13.612C26.5943 13.6452 40.9619 24.722 40.9619 24.722" stroke="#2A1F19" stroke-width="2"/>
<path d="M101.366 49.5441C103.237 45.4772 105.372 33.6825 99.2513 21.9955L101.854 19.908C101.854 19.908 97.3136 13.7121 94.4733 13.6371C88.2981 13.6703 74.2006 25.2497 74.2006 25.2497" stroke="#2A1F19" stroke-width="2"/>
<mask id="mask1_260_837" style="mask-type:alpha" maskUnits="userSpaceOnUse" x="74" y="-3" width="53" height="53">
<circle cx="100.581" cy="23.6667" r="25.8523" fill="#AEAEAE"/>
</mask>
<g mask="url(#mask1_260_837)">
<path d="M11.417 60.9042C11.417 39.4592 32.0443 22.075 57.4892 22.075C82.935 22.075 103.562 39.4592 103.562 60.9042C103.562 82.3483 82.338 87.4174 56.8923 87.4174C31.4474 87.4174 11.417 82.3483 11.417 60.9042Z" fill="black" stroke="black" stroke-width="2" stroke-miterlimit="10" stroke-linejoin="round"/>
<path d="M75.9258 24.1939C79.0914 21.5566 88.0605 15.2254 94.9193 12.5874C94.9193 12.5874 100.195 15.2254 101.778 18.9186L99.6677 21.029C107.054 37.9121 102.306 46.8813 102.306 46.8813" fill="black"/>
<path d="M101.109 50.047C102.98 45.9801 105.515 33.6829 99.3939 21.9959L101.997 19.9084C101.997 19.9084 97.4563 13.7125 94.616 13.6375C88.4407 13.6707 74.2013 25.2498 74.2013 25.2498" stroke="#2A1F19" stroke-width="2"/>
</g>
</g>
<mask id="mask2_260_837" style="mask-type:alpha" maskUnits="userSpaceOnUse" x="1" y="106" width="31" height="22">
<path d="M1 110.53C1 110.53 1.5 106.53 5 106.03C9.35239 105.595 11.5 110.03 11.5 110.03L16 118.03L30 121.53L31.5 126.03C31.5 126.03 22.5 129.03 13.5 127.03C13.5 127.03 8.49996 125.03 4.49996 121.53C4.49996 121.53 1 117.03 1 110.53Z" fill="#5E5E5E"/>
</mask>
<g mask="url(#mask2_260_837)">
<ellipse cx="4.50019" cy="110.933" rx="13.7599" ry="7.9875" transform="rotate(58.4999 4.50019 110.933)" fill="black"/>
</g>
<path d="M17.2073 117.657C19.2072 119.157 27.2072 120.157 31.2073 121.657L33.2073 127.157C27.2072 129.157 17.2072 128.657 12.2073 127.157C7.20721 125.657 3.70721 121.157 2.20731 117.657C1.7072 116.657 1 115.038 1 110.538C1 106.157 6.20731 105.657 7.70731 106.157C11.5002 107.038 15.2072 116.157 17.2073 117.657Z" stroke="#2A1F19" stroke-width="2"/>
<path d="M23 64.5C22.7239 64.5 22.5 64.7239 22.5 65C22.5 65.2761 22.7239 65.5 23 65.5V64.5ZM23 65.5H38V64.5H23V65.5Z" fill="black"/>
<path d="M23.6232 53.9647C23.3637 53.8703 23.0767 54.0041 22.9823 54.2636C22.8879 54.523 23.0216 54.81 23.2811 54.9044L23.6232 53.9647ZM23.2811 54.9044L37.3765 60.0347L37.7185 59.095L23.6232 53.9647L23.2811 54.9044Z" fill="black"/>
<path d="M23.2811 75.0956C23.0216 75.19 22.8879 75.477 22.9823 75.7364C23.0767 75.9959 23.3637 76.1297 23.6232 76.0353L23.2811 75.0956ZM23.6232 76.0353L37.7185 70.905L37.3765 69.9653L23.2811 75.0956L23.6232 76.0353Z" fill="black"/>
<path d="M89 65.0654C89.2761 65.0654 89.5 65.2893 89.5 65.5654C89.5 65.8416 89.2761 66.0654 89 66.0654V65.0654ZM89 66.0654H74V65.0654H89V66.0654Z" fill="black"/>
<path d="M88.3768 54.5302C88.6363 54.4357 88.9233 54.5695 89.0177 54.829C89.1121 55.0885 88.9784 55.3754 88.7189 55.4698L88.3768 54.5302ZM88.7189 55.4698L74.6235 60.6001L74.2815 59.6605L88.3768 54.5302L88.7189 55.4698Z" fill="black"/>
<path d="M88.7189 75.661C88.9784 75.7555 89.1121 76.0424 89.0177 76.3019C88.9233 76.5614 88.6363 76.6952 88.3768 76.6007L88.7189 75.661ZM88.3768 76.6007L74.2815 71.4704L74.6235 70.5307L88.7189 75.661L88.3768 76.6007Z" fill="black"/>
<path d="M42.4719 51.0209C43.2847 49.9048 46.4691 50.8393 48.2548 52.1399C50.0405 53.4404 49.7514 54.6145 48.9386 55.7306C48.1257 56.8467 47.097 57.4821 45.3112 56.1816C43.5255 54.881 41.659 52.137 42.4719 51.0209Z" fill="black"/>
<path d="M70.9383 51.0209C70.1255 49.9048 66.9411 50.8393 65.1554 52.1399C63.3696 53.4404 63.6587 54.6145 64.4716 55.7306C65.2844 56.8467 66.3132 57.4821 68.0989 56.1816C69.8847 54.881 71.7511 52.137 70.9383 51.0209Z" fill="black"/>
<path d="M50 63C53 68 56.5 63 56.5 63C56.5 63 60 68 63 63" stroke="black" stroke-width="2" stroke-linecap="round"/>
<path d="M57.3101 37.5935H57.303L57.2959 37.5937C51.7273 37.7519 45.2061 36.983 40.093 35.3822C37.5342 34.5811 35.3603 33.5815 33.8364 32.4098C32.3116 31.2373 31.5 29.945 31.5 28.5496C31.5 26.9463 32.2774 25.4501 33.7099 24.066C35.1457 22.6788 37.2093 21.4361 39.6913 20.3607C44.6529 18.2108 51.1763 16.7759 57.3605 16.1499L57.3605 16.15L57.3682 16.1491C62.8701 15.506 69.1399 15.0218 74.0215 15.5751C76.4666 15.8521 78.5092 16.3843 79.9272 17.2465C81.3183 18.0925 82.0885 19.2382 82.0885 20.8113C82.0885 22.4278 81.2387 24.289 79.7132 26.2052C78.1962 28.1109 76.054 30.0161 73.5755 31.7108C68.6064 35.1083 62.3848 37.5935 57.3101 37.5935Z" fill="black" stroke="#B5B5B5"/>
<path d="M53.3483 7.61449C53.3483 7.61449 48.7054 8.13038 42.7727 7.35655C39.6774 7.87241 40.5441 23.0878 40.5441 23.0878C46.219 27.4728 57.4754 25.9284 57.4754 25.9284C57.4754 25.9284 65.7298 25.1546 71.9202 18.706C71.9202 18.706 67.7931 3.74535 62.1184 4.0033C57.9913 6.84067 53.3483 7.61449 53.3483 7.61449Z" fill="black"/>
<path d="M57.0525 26.1831C57.0525 26.1831 65.7298 25.1546 71.9202 18.706L73.5607 22.8298C67.3703 29.2784 57.0525 31.084 57.0525 31.084C57.0525 31.084 46.0321 32.651 40.2861 28.5045L40.5441 23.0878C46.219 27.4728 57.0525 26.1831 57.0525 26.1831Z" fill="white"/>
<path d="M71.9202 18.706C71.9202 18.706 67.7931 3.74535 62.1184 4.0033C57.9913 6.84067 53.3483 7.61449 53.3483 7.61449C53.3483 7.61449 48.7054 8.13038 42.7727 7.35655C39.6774 7.87241 40.5441 23.0878 40.5441 23.0878M71.9202 18.706C65.7298 25.1546 57.4754 25.9284 57.4754 25.9284C57.4754 25.9284 46.219 27.4728 40.5441 23.0878M71.9202 18.706C65.7298 25.1546 57.0525 26.1831 57.0525 26.1831C57.0525 26.1831 46.219 27.4728 40.5441 23.0878M71.9202 18.706L73.5607 22.8298C67.3703 29.2784 57.0525 31.084 57.0525 31.084C57.0525 31.084 46.0321 32.651 40.2861 28.5045L40.5441 23.0878" stroke="#B5B5B5"/>
<path d="M44.6709 10.1904C49.3139 11.7381 54.2148 10.7063 54.2148 10.7063C54.2148 10.7063 58.8577 9.93247 61.953 6.83716" stroke="#B5B5B5"/>
</svg>
