<svg width="113" height="134" viewBox="0 0 113 134" fill="none" xmlns="http://www.w3.org/2000/svg">
<path d="M2 110.53C2 110.53 2.5 106.53 6 106.03C10.3524 105.595 12.5 110.03 12.5 110.03L17.5 117.934L31 121.53L33 127C33 127 23.5 129.03 14.5 127.03C14.5 127.03 9 126 5.49996 121.53C5.49996 121.53 2 117.03 2 110.53Z" fill="white"/>
<path d="M37.5 102.058C37.5 102.058 43 88.5577 50.5 87.5579C55.5 86.0579 71.5 88.058 71.5 88.058C74 93.5578 77.5 121.058 77.5 121.058C77 126.058 75 129.058 75 129.058C73.5 131.058 69 129.058 69 129.058C67 131.558 65 132.558 63.5 131.558C53.5 133.558 44 131.558 38 129.058C34 126.558 31.5 123.558 31.5 118.058C32.5 113.058 35 107.558 37.5 102.058Z" fill="white"/>
<path d="M50 87.0576C37.5 94.0576 31.5 117.558 31.5 117.558C32 132.558 45.5 132.558 52.5 132.558L60.5 132.058C57 130.058 55 124.558 55 124.558C55 124.558 57 132.058 64 132.558C67.5 133.058 68.5 128.558 68.5 128.558C71.5 130.058 72.5 130.558 74 129.558C80.5 124.058 76 108.558 76 108.558C74.5 95.5576 72 87.5576 72 87.5576L50 87.0576Z" stroke="#2A1F19" stroke-width="2"/>
<mask id="mask0_260_853" style="mask-type:alpha" maskUnits="userSpaceOnUse" x="2" y="0" width="111" height="110">
<rect x="2.5" width="110" height="110" fill="#D9D9D9"/>
</mask>
<g mask="url(#mask0_260_853)">
<path d="M40.4067 25.2492C37.2412 22.6119 28.272 16.2807 21.4132 13.6427C21.4132 13.6427 16.1372 16.2807 14.5544 19.9739L16.6648 22.0843C10.3337 36.3294 14 46.5001 14 46.5001" fill="white"/>
<path d="M76.2837 24.194C79.4493 21.5567 88.4184 15.2255 95.2772 12.5875C95.2772 12.5875 100.553 15.2255 102.136 18.9187L100.026 21.0291C107.412 37.9122 102.664 46.8814 102.664 46.8814" fill="#7B4300"/>
<path d="M11.7744 60.9042C11.7744 39.4592 32.4017 22.075 57.8466 22.075C83.2924 22.075 103.92 39.4592 103.92 60.9042C103.92 82.3483 82.6954 87.4174 57.2497 87.4174C31.8048 87.4174 11.7744 82.3483 11.7744 60.9042Z" fill="white" stroke="#2A1F19" stroke-width="2" stroke-miterlimit="10" stroke-linejoin="round"/>
<path d="M14.0266 49.5192C12.1553 45.4522 10.02 33.6576 16.1411 21.9706L13.5379 19.8831C13.5379 19.8831 18.0787 13.6872 20.919 13.6122C27.0943 13.6454 41.4619 24.7222 41.4619 24.7222" stroke="#2A1F19" stroke-width="2"/>
<path d="M101.866 49.5442C103.737 45.4773 105.872 33.6826 99.7513 21.9956L102.354 19.9081C102.354 19.9081 97.8136 13.7122 94.9733 13.6373C88.7981 13.6705 74.7006 25.2498 74.7006 25.2498" stroke="#2A1F19" stroke-width="2"/>
<mask id="mask1_260_853" style="mask-type:alpha" maskUnits="userSpaceOnUse" x="75" y="-3" width="52" height="53">
<circle cx="101.08" cy="23.6669" r="25.8523" fill="#AEAEAE"/>
</mask>
<g mask="url(#mask1_260_853)">
<path d="M11.916 60.9042C11.916 39.4592 32.5434 22.075 57.9882 22.075C83.434 22.075 104.061 39.4592 104.061 60.9042C104.061 82.3483 82.837 87.4174 57.3913 87.4174C31.9464 87.4174 11.916 82.3483 11.916 60.9042Z" fill="#7B4300" stroke="#7B4300" stroke-width="2" stroke-miterlimit="10" stroke-linejoin="round"/>
<path d="M76.4248 24.194C79.5904 21.5567 88.5596 15.2255 95.4183 12.5875C95.4183 12.5875 100.694 15.2255 102.277 18.9187L100.167 21.0291C107.553 37.9122 102.805 46.8814 102.805 46.8814" fill="#7B4300"/>
<path d="M101.608 50.047C103.479 45.9801 106.014 33.6829 99.893 21.9959L102.496 19.9084C102.496 19.9084 97.9553 13.7125 95.115 13.6375C88.9397 13.6707 74.7003 25.2498 74.7003 25.2498" stroke="#2A1F19" stroke-width="2"/>
</g>
</g>
<mask id="mask2_260_853" style="mask-type:alpha" maskUnits="userSpaceOnUse" x="1" y="106" width="31" height="22">
<path d="M1.5 110.53C1.5 110.53 2 106.53 5.5 106.03C9.85239 105.595 12 110.03 12 110.03L16.5 118.03L30.5 121.53L32 126.03C32 126.03 23 129.03 14 127.03C14 127.03 8.99996 125.03 4.99996 121.53C4.99996 121.53 1.5 117.03 1.5 110.53Z" fill="#5E5E5E"/>
</mask>
<g mask="url(#mask2_260_853)">
<ellipse cx="5.00019" cy="110.933" rx="13.7599" ry="7.9875" transform="rotate(58.4999 5.00019 110.933)" fill="#7B4300"/>
</g>
<path d="M17.7073 117.657C19.7072 119.157 27.7072 120.157 31.7073 121.657L33.7073 127.157C27.7072 129.157 17.7072 128.657 12.7073 127.157C7.70721 125.657 4.20721 121.157 2.70731 117.657C2.2072 116.657 1.5 115.038 1.5 110.538C1.5 106.157 6.70731 105.657 8.20731 106.157C12.0002 107.038 15.7072 116.157 17.7073 117.657Z" stroke="#2A1F19" stroke-width="2"/>
<path d="M23.5 64.5C23.2239 64.5 23 64.7239 23 65C23 65.2761 23.2239 65.5 23.5 65.5V64.5ZM23.5 65.5H38.5V64.5H23.5V65.5Z" fill="black"/>
<path d="M24.1232 53.9647C23.8637 53.8703 23.5767 54.0041 23.4823 54.2636C23.3879 54.523 23.5216 54.81 23.7811 54.9044L24.1232 53.9647ZM23.7811 54.9044L37.8765 60.0347L38.2185 59.095L24.1232 53.9647L23.7811 54.9044Z" fill="black"/>
<path d="M23.7811 75.0956C23.5216 75.19 23.3879 75.477 23.4823 75.7364C23.5767 75.9959 23.8637 76.1297 24.1232 76.0353L23.7811 75.0956ZM24.1232 76.0353L38.2185 70.905L37.8765 69.9653L23.7811 75.0956L24.1232 76.0353Z" fill="black"/>
<path d="M89.5 65.0654C89.7761 65.0654 90 65.2893 90 65.5654C90 65.8416 89.7761 66.0654 89.5 66.0654V65.0654ZM89.5 66.0654H74.5V65.0654H89.5V66.0654Z" fill="black"/>
<path d="M88.8768 54.5302C89.1363 54.4357 89.4233 54.5695 89.5177 54.829C89.6121 55.0885 89.4784 55.3754 89.2189 55.4698L88.8768 54.5302ZM89.2189 55.4698L75.1235 60.6001L74.7815 59.6605L88.8768 54.5302L89.2189 55.4698Z" fill="black"/>
<path d="M89.2189 75.661C89.4784 75.7555 89.6121 76.0424 89.5177 76.3019C89.4233 76.5614 89.1363 76.6952 88.8768 76.6007L89.2189 75.661ZM88.8768 76.6007L74.7815 71.4704L75.1235 70.5307L89.2189 75.661L88.8768 76.6007Z" fill="black"/>
<path d="M50.5 63C53.5 68 57 63 57 63C57 63 60.5 68 63.5 63" stroke="black" stroke-width="2" stroke-linecap="round"/>
<path d="M47 54C45.6193 54 44.5 50.8758 44.5 48.6667C44.5 46.4575 45.6193 46 47 46C48.3807 46 49.5 46.4575 49.5 48.6667C49.5 50.8758 48.3807 54 47 54Z" fill="black"/>
<path d="M67 54C65.6193 54 64.5 50.8758 64.5 48.6667C64.5 46.4575 65.6193 46 67 46C68.3807 46 69.5 46.4575 69.5 48.6667C69.5 50.8758 68.3807 54 67 54Z" fill="black"/>
<path d="M56 36.5C50.5 36.5 38.5 36 38.5 30L57 31L75.5 30C75.5 36 61.5 36.5 56 36.5Z" fill="#805735" stroke="#00090E" stroke-width="1.5"/>
<path d="M43.3684 16C43.3684 16 38.5 22 38.5 29.5C44.3421 31 57 31 57 31C57 31 69.6579 31 75.5 29.5C75.5 22 71.6053 17 71.6053 17C67.7105 10 59.9211 10 57 10C54.0789 10 47.2632 10 43.3684 16Z" fill="#805735" stroke="#00000C" stroke-width="1.5"/>
<path d="M70.7422 17H43.5547C42.9998 17.5 41.7207 20 41.7207 20H72.5195C72.5195 20 71 17 70.7422 17Z" fill="#BF824F"/>
<path d="M73.7305 23H40.4414C40.3367 23 39.6729 25.5 39.6016 26H74.457C74.5 25.5 73.7305 23 73.7305 23Z" fill="#BF824F"/>
<path d="M46 16C46 16 43.5 19.5 43.5 29.5C47 30 53 30.5 56.5 30.5C59.5 30.5 67 30 70.5 29.5C70.5 19.5 67.5 16 67.5 16C64 10 56.5 10 56.5 10C56.5 10 49.5 10 46 16Z" fill="#B58C6A" stroke="#00090E" stroke-width="1.5"/>
<path d="M47.8698 6.46399C49.6806 7.81483 56 9.5 56 9.5C56 7.69413 52.3312 4.25769 50.682 3.2395C50.4068 3.06957 50.0645 3.10263 49.8003 3.28931C48.8299 3.97511 48.1268 4.68922 47.6912 5.6322C47.5555 5.92603 47.6104 6.27046 47.8698 6.46399Z" fill="#805735" stroke="#121212" stroke-width="1.5"/>
<path d="M65.6302 6.46399C63.8194 7.81483 57.5 9.5 57.5 9.5C57.5 7.69413 61.1688 4.25769 62.818 3.2395C63.0932 3.06957 63.4355 3.10263 63.6997 3.28931C64.6701 3.97511 65.3732 4.68922 65.8088 5.6322C65.9445 5.92603 65.8896 6.27046 65.6302 6.46399Z" fill="#805735" stroke="#121212" stroke-width="1.5"/>
<path d="M42.1101 86.5975L39.1667 84.9623L48.8145 83L52.739 88.8868L45.7075 110.145L30.5 99.3522C31.9717 95.2642 35.4057 91.6667 35.4057 91.6667C35.4057 91.6667 39.0031 88.0692 42.1101 86.5975Z" fill="#B58C6A"/>
<path d="M42.1101 86.5975L39.1667 84.9623L48.8145 83L52.739 88.8868L45.7075 110.145L30.5 99.3522C31.9717 95.2642 35.4057 91.6667 35.4057 91.6667C35.4057 91.6667 39.0031 88.0692 42.1101 86.5975ZM42.1101 86.5975H47.5063" stroke="black"/>
<path d="M70.8899 86.5975L73.8333 84.9623L64.1855 83L60.261 88.8868L67.2925 110.145L82.5 99.3522C81.0283 95.2642 77.5943 91.6667 77.5943 91.6667C77.5943 91.6667 73.9969 88.0692 70.8899 86.5975Z" fill="#B58C6A"/>
<path d="M70.8899 86.5975L73.8333 84.9623L64.1855 83L60.261 88.8868L67.2925 110.145L82.5 99.3522C81.0283 95.2642 77.5943 91.6667 77.5943 91.6667C77.5943 91.6667 73.9969 88.0692 70.8899 86.5975ZM70.8899 86.5975H65.4937" stroke="black"/>
<path d="M56.4999 90.5219C56.4999 90.5219 50.9401 90.5219 47.8332 89.5408C46.8521 91.176 46.8521 92.6477 46.8521 92.6477C46.8521 94.4464 47.8332 95.264 47.8332 95.264C50.7766 96.5722 56.4999 96.5722 56.4999 96.5722C56.4999 96.5722 62.2231 96.5722 65.1665 95.264C65.1665 95.264 66.1476 94.61 66.1476 92.6477C66.1476 92.6477 66.1476 90.6854 65.1665 89.5408C62.3866 90.5219 56.4999 90.5219 56.4999 90.5219Z" fill="#825126" stroke="black"/>
<circle cx="51.4307" cy="93.1384" r="1.05818" fill="#845126" stroke="#150000" stroke-width="0.5"/>
<circle cx="61.5689" cy="93.1384" r="1.05818" fill="#845126" stroke="#150000" stroke-width="0.5"/>
</svg>
