<svg width="132" height="142" viewBox="0 0 132 142" fill="none" xmlns="http://www.w3.org/2000/svg">
<mask id="mask0_260_833" style="mask-type:alpha" maskUnits="userSpaceOnUse" x="0" y="0" width="132" height="107">
<path d="M23.918 13.6613C32.7228 8.2649 40.1075 3.1526 64.5333 2.01651C83.8471 1.73249 90.9475 5.13881 102.308 10.2512C112.733 15.3224 116.17 19.8347 120.661 25.7288L120.77 25.8724C125.598 34.1089 127.586 40.3556 129.007 46.038C131.847 59.3871 129.007 67.3397 127.018 73.5902C123.717 83.4915 118.018 89.1316 117.663 89.4767C117.651 89.488 117.64 89.4994 117.629 89.5111C112.128 95.2771 103.716 99.4482 103.187 99.7075C103.169 99.7162 103.152 99.7239 103.133 99.7314C90.2038 105.055 65.3684 104.558 64.8264 104.547C64.8094 104.547 64.8229 104.547 64.8059 104.547C64.2665 104.562 44.774 105.06 33.2907 101.14C27.3263 98.8682 14.8293 94.0399 8.01262 80.4068C5.30614 74.9939 -0.792094 62.2293 3.46825 45.7559C5.45655 36.9512 9.7169 23.3181 23.918 13.6613Z" fill="#339943" stroke="black" stroke-width="3"/>
</mask>
<g mask="url(#mask0_260_833)">
<path d="M23.9476 13.6888C32.7642 8.27966 40.1589 3.15532 64.6177 2.01655C83.9574 1.73186 91.0674 5.1462 102.444 10.2707C112.882 15.3538 116.324 19.8767 120.821 25.7847L120.93 25.9286C125.765 34.1845 127.756 40.4459 129.178 46.1417C132.022 59.5222 129.178 67.4936 127.187 73.7588C123.881 83.6836 118.175 89.337 117.819 89.6827C117.807 89.694 117.796 89.7054 117.785 89.7171C112.277 95.4968 103.853 99.6777 103.323 99.9376C103.305 99.9463 103.288 99.954 103.27 99.9615C90.3228 105.298 65.4537 104.8 64.9111 104.788C64.8941 104.788 64.9077 104.788 64.8906 104.789C64.3507 104.803 44.8317 105.302 33.3329 101.374C27.3605 99.0963 14.8466 94.2566 8.02073 80.5914C5.3106 75.1658 -0.79586 62.3711 3.47023 45.859C5.46121 37.0335 9.72731 23.3683 23.9476 13.6888Z" fill="#339943" stroke="#050000" stroke-width="2"/>
<path d="M48.586 14.2028C48.7997 22.9659 42.1289 26.7149 41.5 27.0486C41.4653 27.0671 41.4359 27.0843 41.4029 27.1057C36.4129 30.3373 29.0492 28.3196 28.9743 28.2989C28.972 28.2983 28.9725 28.2984 28.9701 28.2978C20.9961 26.1475 19.7878 18.8035 19.7059 18.2353C19.7021 18.2094 19.6983 18.1868 19.6931 18.1612C18.3996 11.7253 22.834 8.18993 23.3172 7.82652C23.347 7.80414 23.3739 7.78246 23.4019 7.75789C27.6979 3.98508 34.2341 6.18591 34.9326 6.43654C34.9758 6.45206 35.0151 6.47068 35.0553 6.49303C40.0903 9.29653 39.5231 13.5149 39.4611 13.8929C39.4577 13.9132 39.4548 13.9314 39.4521 13.9518C38.5024 21.0394 32.3411 19.8779 32.099 19.8295C32.0913 19.8279 32.0873 19.8272 32.0796 19.8257C26.2507 18.7282 27.7876 14.5765 27.9562 14.1634C27.9661 14.1393 27.9749 14.1169 27.9838 14.0923C29.3526 10.3071 32.3196 11.5505 32.3196 11.5505" stroke="white" stroke-width="2" stroke-linecap="round"/>
<path d="M80.0724 24.0046C72.0571 27.5532 66.042 22.8231 65.4932 22.3696C65.4629 22.3446 65.4357 22.3241 65.4034 22.3017C60.5091 18.9268 59.5575 11.3512 59.5479 11.2741C59.5476 11.2717 59.5477 11.2722 59.5474 11.2698C58.4849 3.07953 64.8086 -0.845335 65.3022 -1.13834C65.3247 -1.15168 65.3441 -1.16387 65.3658 -1.17842C70.8178 -4.83484 75.7803 -2.08942 76.3009 -1.78194C76.3329 -1.763 76.3633 -1.7464 76.3967 -1.72994C81.5256 0.79679 81.9916 7.67778 82.0271 8.41898C82.0293 8.46487 82.0271 8.50832 82.0218 8.55395C81.3569 14.2784 77.2422 15.3675 76.8692 15.4547C76.8492 15.4594 76.8313 15.4637 76.8114 15.469C69.8993 17.3018 68.6164 11.1647 68.5685 10.9224C68.567 10.9147 68.5662 10.9108 68.5646 10.9031C67.3496 5.0975 71.7735 4.93 72.2197 4.92779C72.2457 4.92766 72.2698 4.92726 72.2959 4.92608C76.3169 4.74333 76.3026 7.96023 76.3026 7.96023" stroke="white" stroke-width="2" stroke-linecap="round"/>
<path d="M102.697 40.0527C95.7984 34.645 97.1472 27.1127 97.2896 26.4151C97.2974 26.3766 97.3028 26.343 97.3073 26.304C97.9866 20.3978 104.227 15.998 104.29 15.9533C104.292 15.9519 104.292 15.9522 104.294 15.9508C111.024 11.1643 117.46 14.902 117.951 15.2001C117.973 15.2137 117.993 15.2251 118.016 15.2374C123.805 18.3318 123.714 24.0024 123.687 24.6064C123.686 24.6436 123.685 24.6781 123.686 24.7153C123.866 30.4301 118.011 34.0748 117.373 34.4544C117.334 34.4779 117.295 34.4964 117.252 34.5132C111.886 36.6162 108.991 33.4959 108.739 33.2076C108.726 33.1922 108.713 33.1783 108.699 33.1633C103.833 27.9231 108.648 23.9068 108.839 23.7507C108.845 23.7458 108.849 23.7432 108.855 23.7382C113.408 19.9376 115.635 23.7639 115.847 24.1567C115.859 24.1797 115.871 24.2008 115.884 24.2232C117.935 27.6867 115.088 29.1858 115.088 29.1858" stroke="white" stroke-width="2" stroke-linecap="round"/>
<path d="M105.788 64.8932C106.34 56.145 113.313 52.9929 113.969 52.7154C114.005 52.7001 114.035 52.6855 114.07 52.6671C119.323 49.8837 126.483 52.5368 126.556 52.5639C126.558 52.5648 126.557 52.5646 126.56 52.5654C134.315 55.404 134.878 62.8254 134.91 63.3986C134.911 63.4247 134.913 63.4475 134.916 63.4735C135.642 69.9977 130.916 73.1324 130.403 73.4522C130.371 73.4719 130.343 73.4911 130.313 73.5131C125.703 76.8963 119.384 74.133 118.711 73.8223C118.669 73.8031 118.631 73.7811 118.593 73.7554C113.822 70.5228 114.756 66.3701 114.851 65.9989C114.856 65.979 114.86 65.9611 114.865 65.9411C116.43 58.9635 122.466 60.6587 122.703 60.7281C122.711 60.7303 122.714 60.7314 122.722 60.7335C128.433 62.3359 126.539 66.3375 126.335 66.7343C126.323 66.7575 126.312 66.7791 126.301 66.8027C124.607 70.4539 121.76 68.9562 121.76 68.9562" stroke="white" stroke-width="2" stroke-linecap="round"/>
<path d="M79.6904 84.2712C87.0856 79.5649 93.7398 83.3433 94.3503 83.7097C94.384 83.7299 94.4139 83.7461 94.4492 83.7634C99.7928 86.3692 101.866 93.7176 101.886 93.7924C101.887 93.7948 101.887 93.7942 101.888 93.7966C104.162 101.736 98.4956 106.562 98.0512 106.925C98.031 106.942 98.0136 106.957 97.9943 106.974C93.1498 111.404 87.8328 109.431 87.2722 109.205C87.2376 109.191 87.2052 109.179 87.1697 109.168C81.7208 107.436 80.232 100.701 80.0862 99.9739C80.0772 99.9289 80.0728 99.8856 80.0712 99.8397C79.8735 94.0801 83.7792 92.3885 84.135 92.2466C84.1541 92.2389 84.1712 92.232 84.19 92.2238C90.7507 89.3789 92.9362 95.2554 93.0196 95.4878C93.0223 95.4953 93.0237 95.499 93.0264 95.5064C95.0951 101.065 90.746 101.892 90.3051 101.961C90.2794 101.965 90.2556 101.969 90.23 101.974C86.2814 102.755 85.8149 99.5723 85.8149 99.5723" stroke="white" stroke-width="2" stroke-linecap="round"/>
<path d="M43.9069 77.5361C52.1445 80.5327 53.2027 88.1113 53.2841 88.8186C53.2886 88.8576 53.2939 88.8912 53.3018 88.9297C54.4911 94.7546 49.9271 100.875 49.8805 100.938C49.8791 100.94 49.8794 100.939 49.8779 100.941C44.9678 107.582 37.6889 106.029 37.13 105.898C37.1045 105.892 37.0821 105.887 37.0564 105.883C30.592 104.74 28.9171 99.3219 28.755 98.7395C28.745 98.7036 28.7346 98.6707 28.7219 98.6356C26.7756 93.2596 31.2084 87.9761 31.6964 87.4172C31.7267 87.3825 31.7583 87.3527 31.7938 87.3235C36.2404 83.6575 39.9614 85.724 40.2908 85.9196C40.3084 85.9301 40.3243 85.9394 40.3423 85.9494C46.5955 89.4184 43.2672 94.7318 43.1338 94.9396C43.1295 94.9462 43.1274 94.9496 43.1232 94.9563C39.9756 99.9836 36.6704 97.0385 36.3472 96.7308C36.3283 96.7129 36.3106 96.6964 36.2911 96.6792C33.2656 94.0243 35.5053 91.7151 35.5053 91.7151" stroke="white" stroke-width="2" stroke-linecap="round"/>
<path d="M27.4359 54.1165C30.8174 62.2037 25.9636 68.1193 25.4988 68.6587C25.4731 68.6885 25.4521 68.7151 25.4291 68.747C21.9533 73.5702 14.3596 74.3645 14.2823 74.3725C14.2799 74.3727 14.2805 74.3727 14.2781 74.3729C6.0675 75.2653 2.27466 68.8615 1.99195 68.3619C1.97908 68.3391 1.96731 68.3195 1.9532 68.2975C-1.58933 62.7708 1.25844 57.8663 1.57666 57.3523C1.59626 57.3206 1.61348 57.2906 1.63063 57.2576C4.26321 52.1822 11.1524 51.8591 11.8942 51.8389C11.9401 51.8377 11.9835 51.8407 12.029 51.847C17.7384 52.6305 18.7419 56.7669 18.8214 57.1416C18.8257 57.1617 18.8296 57.1797 18.8344 57.1997C20.5235 64.1483 14.3611 65.3037 14.1179 65.3465C14.1101 65.3478 14.1062 65.3486 14.0985 65.35C8.26893 66.4443 8.19324 62.0179 8.20028 61.5718C8.20069 61.5457 8.20079 61.5216 8.20015 61.4956C8.10085 57.4716 11.3168 57.5526 11.3168 57.5526" stroke="white" stroke-width="2" stroke-linecap="round"/>
<path d="M80.264 47.2996C83.6455 55.3868 78.7917 61.3024 78.3269 61.8418C78.3013 61.8716 78.2802 61.8982 78.2572 61.9301C74.7814 66.7533 67.1878 67.5476 67.1105 67.5556C67.1081 67.5558 67.1086 67.5558 67.1062 67.556C58.8956 68.4484 55.1028 62.0446 54.8201 61.545C54.8072 61.5222 54.7954 61.5026 54.7813 61.4806C51.2388 55.9539 54.0866 51.0494 54.4048 50.5354C54.4244 50.5037 54.4416 50.4737 54.4588 50.4407C57.0913 45.3653 63.9805 45.0422 64.7223 45.022C64.7682 45.0208 64.8116 45.0238 64.8571 45.0301C70.5665 45.8136 71.57 49.95 71.6495 50.3247C71.6538 50.3448 71.6577 50.3628 71.6625 50.3828C73.3516 57.3315 67.1892 58.4868 66.946 58.5296C66.9383 58.5309 66.9343 58.5317 66.9266 58.5331C61.0971 59.6274 61.0214 55.201 61.0284 54.7549C61.0288 54.7288 61.0289 54.7047 61.0283 54.6787C60.929 50.6547 64.1449 50.7357 64.1449 50.7357" stroke="white" stroke-width="2" stroke-linecap="round"/>
<path d="M24.1879 13.2659C33.0044 7.8568 40.3991 2.73246 64.8579 1.5937C84.1977 1.309 91.3077 4.72335 102.684 9.8478C113.122 14.9309 116.565 19.4538 121.061 25.3618L121.17 25.5057C126.005 33.7616 127.996 40.023 129.418 45.7188C132.262 59.0994 129.418 67.0707 127.427 73.3359C124.1 83.3244 118.342 88.9866 118.053 89.2658C118.044 89.2748 118.037 89.2813 118.028 89.2905C112.182 95.3068 104.043 99.7093 103.526 99.9862C103.508 99.9956 103.492 100.004 103.473 100.012C92.5431 104.96 65.4344 104.508 65.0052 104.5C64.9918 104.5 65.0062 104.5 64.9929 104.5C64.5661 104.509 45.1056 104.891 33.5731 100.951C27.6007 98.6735 15.0869 93.8337 8.26097 80.1685C5.55084 74.7429 -0.555619 61.9482 3.71047 45.4361C5.70145 36.6107 9.96755 22.9455 24.1879 13.2659Z" stroke="black" stroke-width="2"/>
<path d="M23.9476 13.6888C32.7642 8.27966 40.1589 3.15532 64.6177 2.01655C83.9574 1.73186 91.0674 5.1462 102.444 10.2707C112.882 15.3538 116.324 19.8767 120.821 25.7847L120.93 25.9286C125.765 34.1845 127.756 40.4459 129.178 46.1417C132.022 59.5222 129.178 67.4936 127.187 73.7588C123.881 83.6836 118.175 89.337 117.819 89.6827C117.807 89.694 117.796 89.7054 117.785 89.7171C112.277 95.4968 103.853 99.6777 103.323 99.9376C103.305 99.9463 103.288 99.954 103.27 99.9615C90.3228 105.298 65.4537 104.8 64.9111 104.788C64.8941 104.788 64.9077 104.788 64.8906 104.789C64.3507 104.803 44.8317 105.302 33.3329 101.374C27.3605 99.0963 14.8466 94.2566 8.02073 80.5914C5.3106 75.1658 -0.79586 62.3711 3.47023 45.859C5.46121 37.0335 9.72731 23.3683 23.9476 13.6888Z" stroke="black" stroke-width="2"/>
</g>
<path d="M5.25977 118.519C5.25977 118.519 5.75977 114.519 9.25977 114.019C13.6122 113.584 15.7598 118.019 15.7598 118.019L20.7598 125.923L34.2598 129.519L35.7598 134.019C35.7598 134.019 26.7598 137.019 17.7598 135.019C17.7598 135.019 12.7597 133.019 8.75973 129.519C8.75973 129.519 5.25977 125.019 5.25977 118.519Z" fill="#9F9F9F"/>
<path d="M40.7598 109.481C40.7598 109.481 46.2598 95.9806 53.7598 94.9807C58.7598 93.4807 74.7598 95.4808 74.7598 95.4808C77.2598 100.981 80.7598 128.481 80.7598 128.481C80.2598 133.481 78.2598 136.481 78.2598 136.481C76.7598 138.481 72.2598 136.481 72.2598 136.481C70.2598 138.981 68.2598 139.981 66.7598 138.981C56.7598 140.981 47.2598 138.981 41.2598 136.481C37.2598 133.981 34.7598 130.981 34.7598 125.481C35.7598 120.481 38.2598 114.981 40.7598 109.481Z" fill="#9F9F9F"/>
<path d="M53.2598 94.4805C40.7598 101.48 34.7598 124.98 34.7598 124.98C35.2598 139.98 48.7598 139.98 55.7598 139.98L63.7598 139.48C60.2598 137.48 58.2598 131.98 58.2598 131.98C58.2598 131.98 60.2598 139.48 67.2598 139.98C70.7598 140.48 71.7598 135.98 71.7598 135.98C74.7598 137.48 75.7598 137.98 77.2598 136.98C83.7598 131.48 79.2598 115.98 79.2598 115.98C77.7598 102.98 75.2598 94.9805 75.2598 94.9805L53.2598 94.4805Z" stroke="#2A1F19" stroke-width="2"/>
<mask id="mask1_260_833" style="mask-type:alpha" maskUnits="userSpaceOnUse" x="11" y="7" width="111" height="111">
<rect x="11.7598" y="7.42285" width="110" height="110" fill="#D9D9D9"/>
</mask>
<g mask="url(#mask1_260_833)">
<path d="M49.667 32.6719C46.5014 30.0346 37.5322 23.7034 30.6735 21.0654C30.6735 21.0654 25.3975 23.7034 23.8147 27.3966L25.9251 29.507C19.5939 43.7521 23.2603 53.9229 23.2603 53.9229" fill="#9F9F9F"/>
<path d="M85.543 31.6167C88.7086 28.9794 97.6777 22.6482 104.536 20.0103C104.536 20.0103 109.812 22.6482 111.395 26.3414L109.285 28.4518C116.671 45.3349 111.923 54.3041 111.923 54.3041" fill="#AC0000"/>
<path d="M21.0342 68.3271C21.0342 46.882 41.6615 29.4978 67.1064 29.4978C92.5521 29.4978 113.179 46.882 113.179 68.3271C113.179 89.7712 91.9552 94.8402 66.5094 94.8402C41.0646 94.8402 21.0342 89.7712 21.0342 68.3271Z" fill="#9F9F9F" stroke="#2A1F19" stroke-width="2" stroke-miterlimit="10" stroke-linejoin="round"/>
<path d="M23.2864 56.9418C21.4151 52.8749 19.2798 41.0802 25.4008 29.3932L22.7976 27.3057C22.7976 27.3057 27.3385 21.1098 30.1788 21.0348C36.354 21.068 50.7217 32.1448 50.7217 32.1448" stroke="#2A1F19" stroke-width="2"/>
<path d="M111.125 56.967C112.997 52.9 115.132 41.1053 109.011 29.4184L111.614 27.3309C111.614 27.3309 107.073 21.135 104.233 21.06C98.0578 21.0932 83.9604 32.6725 83.9604 32.6725" stroke="#2A1F19" stroke-width="2"/>
<mask id="mask2_260_833" style="mask-type:alpha" maskUnits="userSpaceOnUse" x="84" y="5" width="53" height="52">
<circle cx="110.341" cy="31.0896" r="25.8523" fill="#AEAEAE"/>
</mask>
<g mask="url(#mask2_260_833)">
<path d="M21.1768 68.3271C21.1768 46.882 41.8041 29.4978 67.249 29.4978C92.6947 29.4978 113.322 46.882 113.322 68.3271C113.322 89.7712 92.0978 94.8402 66.652 94.8402C41.2071 94.8402 21.1768 89.7712 21.1768 68.3271Z" fill="#AC0000" stroke="#AC0000" stroke-width="2" stroke-miterlimit="10" stroke-linejoin="round"/>
<path d="M85.6855 31.6167C88.8511 28.9794 97.8203 22.6482 104.679 20.0103C104.679 20.0103 109.955 22.6482 111.538 26.3414L109.427 28.4518C116.814 45.3349 112.065 54.3041 112.065 54.3041" fill="#AC0000"/>
<path d="M110.869 57.4699C112.74 53.4029 115.275 41.1057 109.154 29.4187L111.757 27.3312C111.757 27.3312 107.216 21.1353 104.376 21.0604C98.2005 21.0936 83.9611 32.6726 83.9611 32.6726" stroke="#2A1F19" stroke-width="2"/>
</g>
</g>
<mask id="mask3_260_833" style="mask-type:alpha" maskUnits="userSpaceOnUse" x="4" y="113" width="32" height="23">
<path d="M4.75977 117.953C4.75977 117.953 5.25977 113.953 8.75977 113.453C13.1122 113.018 15.2598 117.453 15.2598 117.453L19.7598 125.453L33.7598 128.953L35.2598 133.453C35.2598 133.453 26.2598 136.453 17.2598 134.453C17.2598 134.453 12.2597 132.453 8.25973 128.953C8.25973 128.953 4.75977 124.453 4.75977 117.953Z" fill="#5E5E5E"/>
</mask>
<g mask="url(#mask3_260_833)">
<ellipse cx="8.25995" cy="118.356" rx="13.7599" ry="7.9875" transform="rotate(58.4999 8.25995 118.356)" fill="#AC0000"/>
</g>
<path d="M20.9671 125.08C22.967 126.58 30.967 127.58 34.9671 129.08L36.9671 134.58C30.967 136.58 20.967 136.08 15.9671 134.58C10.967 133.08 7.46698 128.58 5.96707 125.08C5.46697 124.08 4.75977 122.461 4.75977 117.961C4.75977 113.58 9.96707 113.08 11.4671 113.58C15.2599 114.461 18.967 123.58 20.9671 125.08Z" stroke="#2A1F19" stroke-width="2"/>
<path d="M32.7598 71.9229C32.4836 71.9229 32.2598 72.1467 32.2598 72.4229C32.2598 72.699 32.4836 72.9229 32.7598 72.9229V71.9229ZM32.7598 72.9229H47.7598V71.9229H32.7598V72.9229Z" fill="black"/>
<path d="M33.3829 61.3876C33.1234 61.2931 32.8365 61.4269 32.7421 61.6864C32.6476 61.9459 32.7814 62.2328 33.0409 62.3273L33.3829 61.3876ZM33.0409 62.3273L47.1363 67.4576L47.4783 66.5179L33.3829 61.3876L33.0409 62.3273Z" fill="black"/>
<path d="M33.0409 82.5184C32.7814 82.6129 32.6476 82.8998 32.7421 83.1593C32.8365 83.4188 33.1234 83.5526 33.3829 83.4581L33.0409 82.5184ZM33.3829 83.4581L47.4783 78.3278L47.1363 77.3881L33.0409 82.5184L33.3829 83.4581Z" fill="black"/>
<path d="M98.7598 72.4883C99.0359 72.4883 99.2598 72.7121 99.2598 72.9883C99.2598 73.2644 99.0359 73.4883 98.7598 73.4883V72.4883ZM98.7598 73.4883H83.7598V72.4883H98.7598V73.4883Z" fill="black"/>
<path d="M98.1366 61.953C98.3961 61.8586 98.683 61.9924 98.7775 62.2518C98.8719 62.5113 98.7381 62.7983 98.4786 62.8927L98.1366 61.953ZM98.4786 62.8927L84.3832 68.023L84.0412 67.0833L98.1366 61.953L98.4786 62.8927Z" fill="black"/>
<path d="M98.4786 83.0839C98.7381 83.1783 98.8719 83.4652 98.7775 83.7247C98.683 83.9842 98.3961 84.118 98.1366 84.0236L98.4786 83.0839ZM98.1366 84.0236L84.0412 78.8933L84.3832 77.9536L98.4786 83.0839L98.1366 84.0236Z" fill="black"/>
<path d="M52.2316 55.4437C53.0445 54.3277 56.2288 55.2622 58.0146 56.5627C59.8003 57.8633 59.5112 59.0374 58.6983 60.1535C57.8855 61.2695 56.8567 61.905 55.071 60.6044C53.2852 59.3039 51.4188 56.5598 52.2316 55.4437Z" fill="black"/>
<path d="M80.6981 55.4437C79.8852 54.3277 76.7009 55.2622 74.9151 56.5627C73.1294 57.8633 73.4185 59.0374 74.2313 60.1535C75.0442 61.2695 76.073 61.905 77.8587 60.6044C79.6444 59.3039 81.5109 56.5598 80.6981 55.4437Z" fill="black"/>
<path d="M59.7598 70.4229C62.7598 75.4229 66.2598 70.4229 66.2598 70.4229C66.2598 70.4229 69.7598 75.4229 72.7598 70.4229" stroke="black" stroke-width="2" stroke-linecap="round"/>
<path d="M59.8809 95.2503C59.7463 92.5215 60.8765 89.2521 65.2432 89.3172C69.9698 89.7726 70.8552 92.9617 70.5959 95.6526C70.4848 96.8058 70.5083 100.688 64.9569 100.541C62.1996 100.275 60.2613 99.5547 59.8809 95.2503Z" fill="#339943"/>
<path d="M49.5562 94.4014C51.4851 92.5385 52.5277 93.4824 57.7853 92.1047C58.531 91.9093 59.9125 94.4963 59.8809 95.2503C59.8809 95.2503 60.121 97.3608 60.7864 98.5512C60.9385 98.8234 60.9133 99.1566 60.7105 99.3936C59.8033 100.454 57.1066 103.434 53.7098 105.613C53.6633 105.643 53.6139 105.668 53.562 105.687C52.0003 106.276 50.0073 107.138 44.4802 106.371C44.0282 106.309 43.7326 105.882 43.8576 105.454C44.3921 103.624 46.0083 98.9198 49.5562 94.4014Z" fill="#339943"/>
<path d="M80.8567 94.942C78.5007 93.174 78.3245 92.7552 71.56 91.3942C71.0903 91.2997 70.6247 95.1858 70.5959 95.6526C70.583 95.8624 70.262 98.2879 70.3188 100.683C70.3251 100.948 70.4411 101.197 70.6386 101.373C71.8268 102.434 74.762 104.886 78.2235 106.554C78.2736 106.578 78.3259 106.597 78.38 106.61C80.0076 107.011 82.0993 107.632 87.4814 106.222C87.9216 106.107 88.1582 105.648 87.9774 105.238C87.2044 103.486 84.9765 99.0082 80.8567 94.942Z" fill="#339943"/>
<path d="M59.8809 95.2503C59.7463 92.5215 60.8765 89.2521 65.2432 89.3172C69.9698 89.7726 70.8552 92.9617 70.5959 95.6526M59.8809 95.2503C60.2613 99.5547 62.1996 100.275 64.9569 100.541C70.5083 100.688 70.4848 96.8058 70.5959 95.6526M59.8809 95.2503C59.8809 95.2503 60.121 97.3608 60.7864 98.5512C60.9385 98.8234 60.9133 99.1566 60.7105 99.3936C59.8033 100.454 57.1066 103.434 53.7098 105.613C53.6633 105.643 53.6139 105.668 53.562 105.687C52.0003 106.276 50.0073 107.138 44.4802 106.371C44.0282 106.309 43.7326 105.882 43.8576 105.454C44.3921 103.624 46.0083 98.9198 49.5562 94.4014C51.4851 92.5385 52.5277 93.4824 57.7853 92.1047C58.531 91.9093 59.9125 94.4963 59.8809 95.2503ZM70.5959 95.6526C70.583 95.8624 70.262 98.2879 70.3188 100.683C70.3251 100.948 70.4411 101.197 70.6386 101.373C71.8268 102.434 74.762 104.886 78.2235 106.554C78.2736 106.578 78.3259 106.597 78.38 106.61C80.0076 107.011 82.0994 107.632 87.4814 106.222C87.9216 106.107 88.1582 105.648 87.9774 105.238C87.2044 103.486 84.9765 99.0082 80.8567 94.942C78.5007 93.174 78.3246 92.7552 71.56 91.3942C71.0903 91.2997 70.6247 95.1858 70.5959 95.6526Z" stroke="black" stroke-width="1.5" stroke-linecap="round"/>
</svg>
