<svg width="163" height="165" viewBox="0 0 163 165" fill="none" xmlns="http://www.w3.org/2000/svg">
<mask id="mask0_3429_19813" style="mask-type:alpha" maskUnits="userSpaceOnUse" x="17" y="17" width="113" height="107">
<path d="M21.7937 61.3308C25.5388 53.0163 28.3886 45.6149 45.6531 32.6473C59.6096 22.8422 66.4852 21.8 77.3185 19.886C87.4476 18.4072 92.1991 19.9926 98.4057 22.0635L98.5569 22.114C106.174 25.7266 110.73 29.2982 114.59 32.7403C123.297 41.0727 125.176 48.289 126.831 53.8395C129.338 62.6941 127.989 69.6357 127.897 70.0826C127.894 70.0986 127.891 70.1135 127.889 70.1295C126.74 77.0603 122.684 84.2722 122.416 84.7443C122.406 84.7614 122.396 84.7766 122.386 84.7931C115.602 95.0886 97.2742 107.046 96.8209 107.341C96.8067 107.35 96.8157 107.344 96.8019 107.354C96.3655 107.668 82.4177 117.686 72.1074 120.527C66.6247 121.832 55.1033 124.518 43.3527 117.954C38.6872 115.348 27.8926 109.062 22.816 94.9201C19.8919 87.5052 16.2267 75.4368 21.7937 61.3308Z" fill="#339943" stroke="black" stroke-width="3"/>
</mask>
<g mask="url(#mask0_3429_19813)">
<path d="M21.8289 61.3362C25.5763 53.0065 28.4274 45.5914 45.7147 32.6055C59.6899 22.7869 66.5764 21.7458 77.4269 19.8329C87.5722 18.3559 92.3324 19.9468 98.5503 22.0248L98.7017 22.0754C106.334 25.699 110.898 29.28 114.767 32.7308C123.492 41.0843 125.378 48.3162 127.038 53.8788C129.553 62.7528 128.205 69.708 128.114 70.1555C128.11 70.1714 128.108 70.1863 128.105 70.2024C126.958 77.1468 122.898 84.3716 122.629 84.8444C122.62 84.8616 122.61 84.8767 122.599 84.8932C115.809 95.2066 97.4565 107.18 97.0028 107.475C96.9885 107.484 96.9975 107.478 96.9837 107.488C96.5469 107.803 82.5804 117.835 72.2542 120.676C66.7629 121.982 55.2236 124.668 43.4503 118.085C38.7759 115.472 27.9604 109.167 22.8687 94.9943C19.9362 87.5629 16.2593 75.4683 21.8289 61.3362Z" fill="#339943" stroke="#050000" stroke-width="2"/>
<path d="M40.0683 49.4675C44.5625 55.7345 41.595 61.7646 41.2831 62.359C41.2648 62.3938 41.2498 62.4254 41.2345 62.4616C39.1965 67.2925 32.8317 69.4774 32.7583 69.5025C32.756 69.5033 32.7564 69.5031 32.7541 69.5039C25.8827 71.8907 21.3568 67.1607 20.9944 66.7656C20.9768 66.7464 20.961 66.73 20.9423 66.7117C16.8233 62.6765 18.2694 57.9204 18.4527 57.3778C18.4646 57.3425 18.4752 57.3079 18.4846 57.2718C19.743 52.4111 25.5534 50.7633 26.2335 50.5861C26.278 50.5745 26.3229 50.5672 26.3687 50.5632C31.4133 50.1133 33.0996 53.4462 33.2522 53.7726C33.2609 53.7912 33.2689 53.8082 33.2781 53.8266C36.0959 59.4546 31.0578 61.6709 30.8318 61.7669C30.8245 61.77 30.82 61.7719 30.8128 61.7751C26.0336 63.8608 25.0805 60.1071 24.9915 59.6955C24.986 59.67 24.9805 59.6457 24.9741 59.6204C24.0958 56.1813 26.8769 55.615 26.8769 55.615" stroke="white" stroke-width="2" stroke-linecap="round"/>
<path d="M67.9226 40.9746C63.8505 47.5238 57.1439 47.0878 56.4755 47.0269C56.4363 47.0233 56.4014 47.0216 56.3621 47.0213C51.119 46.9856 46.6662 41.9401 46.6149 41.8819C46.6133 41.8801 46.6136 41.8804 46.612 41.8786C41.779 36.4421 44.4187 30.4515 44.6451 29.9656C44.6562 29.9419 44.6653 29.9211 44.675 29.8968C46.8284 24.5478 51.776 24.0652 52.3474 24.027C52.3846 24.0245 52.4206 24.0211 52.4575 24.0159C57.43 23.3199 61.1746 28.0585 61.5984 28.6191C61.6261 28.6558 61.65 28.6945 61.6712 28.7352C64.0161 33.2244 61.5814 36.0571 61.3382 36.3229C61.3243 36.3381 61.3116 36.352 61.2982 36.3675C57.1755 41.1233 53.201 37.3157 53.0258 37.1436C53.0202 37.1381 53.0167 37.1346 53.011 37.1292C49.2563 33.5108 52.3602 31.1948 52.7064 30.9551C52.7278 30.9403 52.7482 30.9259 52.7691 30.9103C55.611 28.7836 57.1978 31.1367 57.1978 31.1367" stroke="white" stroke-width="2" stroke-linecap="round"/>
<path d="M92.4122 41.446C84.7176 40.929 81.951 34.8041 81.6907 34.1854C81.6754 34.1492 81.6606 34.1175 81.6424 34.0827C79.2101 29.4378 81.5714 23.1363 81.5988 23.0637C81.5996 23.0614 81.5995 23.0618 81.6003 23.0596C84.1281 16.2387 90.6565 15.7538 91.1919 15.7254C91.218 15.724 91.2406 15.7222 91.2666 15.7194C97.0002 15.1067 99.7511 19.2473 100.053 19.7338C100.073 19.7654 100.093 19.7956 100.115 19.8257C103.066 23.8879 100.643 29.4201 100.347 30.0576C100.327 30.0993 100.305 30.1386 100.279 30.1765C97.4178 34.3558 93.7732 33.5377 93.4242 33.4479C93.4044 33.4428 93.3861 33.4382 93.3661 33.4336C87.2308 32.0292 88.7242 26.7316 88.7938 26.4962C88.796 26.4886 88.7974 26.4838 88.7996 26.4763C90.2292 21.4616 93.7322 23.1132 94.1064 23.3062C94.1296 23.3181 94.1518 23.3294 94.1754 23.3405C97.3881 24.8497 96.0566 27.3561 96.0566 27.3561" stroke="white" stroke-width="2" stroke-linecap="round"/>
<path d="M107.012 58.0417C103.083 51.406 106.566 45.6581 106.928 45.0933C106.95 45.0602 106.967 45.0301 106.986 44.9953C109.438 40.3609 115.969 38.7402 116.044 38.7216C116.047 38.7211 116.046 38.7212 116.049 38.7206C123.102 36.9431 127.198 42.0503 127.524 42.4755C127.54 42.4963 127.554 42.5139 127.571 42.5338C131.322 46.9133 129.466 51.525 129.236 52.0495C129.221 52.0836 129.208 52.1171 129.195 52.1522C127.517 56.8845 121.585 58.0185 120.892 58.1357C120.847 58.1433 120.801 58.1466 120.755 58.1467C115.691 58.1542 114.302 54.6868 114.179 54.3483C114.171 54.329 114.165 54.3114 114.157 54.2923C111.842 48.4397 117.054 46.6718 117.288 46.5959C117.295 46.5935 117.3 46.5919 117.308 46.5894C122.251 44.9292 122.872 48.7518 122.925 49.1695C122.928 49.1954 122.932 49.2201 122.936 49.2458C123.51 52.7485 120.69 53.0698 120.69 53.0698" stroke="white" stroke-width="2" stroke-linecap="round"/>
<path d="M97.5926 85.1557C100.641 78.0716 107.337 77.5007 108.007 77.4611C108.046 77.4588 108.081 77.4553 108.12 77.4497C113.31 76.7017 118.466 81.0253 118.526 81.0752C118.527 81.0768 118.527 81.0765 118.529 81.078C124.12 85.7314 122.405 92.0492 122.254 92.5635C122.246 92.5885 122.24 92.6105 122.234 92.6359C120.904 98.2466 116.084 99.463 115.525 99.5861C115.489 99.5941 115.454 99.6029 115.418 99.6135C110.605 101.045 106.195 96.9186 105.692 96.4277C105.659 96.3956 105.63 96.3608 105.602 96.3237C102.613 92.2353 104.597 89.0706 104.798 88.7714C104.81 88.7544 104.82 88.7387 104.831 88.7214C108.197 83.403 112.696 86.5741 112.895 86.7181C112.901 86.7227 112.905 86.7256 112.911 86.7301C117.165 89.7469 114.442 92.5007 114.135 92.7894C114.116 92.8073 114.098 92.8245 114.08 92.8431C111.587 95.3705 109.667 93.2809 109.667 93.2809" stroke="white" stroke-width="2" stroke-linecap="round"/>
<path d="M68.1264 98.0209C75.6008 96.1216 80.1335 101.084 80.5732 101.591C80.599 101.621 80.6229 101.646 80.6511 101.674C84.4061 105.333 84.1195 112.056 84.1161 112.134C84.116 112.136 84.116 112.136 84.1159 112.138C83.8325 119.407 77.7778 121.896 77.2778 122.089C77.2534 122.099 77.2324 122.108 77.2086 122.118C71.9491 124.482 68.0479 121.401 67.6095 121.033C67.581 121.009 67.5526 120.986 67.5225 120.964C63.4554 118.02 64.0399 112.009 64.1229 111.311C64.1283 111.265 64.138 111.221 64.1509 111.177C65.5716 106.315 69.2899 105.961 69.6495 105.938C69.67 105.936 69.6888 105.935 69.7092 105.933C75.9772 105.362 76.2037 110.861 76.2107 111.107C76.2109 111.114 76.211 111.119 76.2113 111.127C76.4106 116.338 72.5678 115.857 72.1521 115.789C72.1264 115.785 72.1017 115.781 72.0759 115.778C68.5533 115.342 69.0401 112.546 69.0401 112.546" stroke="white" stroke-width="2" stroke-linecap="round"/>
<path d="M44.4657 89.1119C50.929 93.319 50.354 100.015 50.2792 100.682C50.2748 100.721 50.2723 100.756 50.2712 100.795C50.1268 106.037 44.99 110.384 44.9307 110.434C44.9289 110.435 44.9292 110.435 44.9274 110.437C39.3918 115.156 33.4573 112.392 32.9761 112.156C32.9527 112.144 32.9321 112.135 32.908 112.125C27.6048 109.861 27.2249 104.904 27.1986 104.332C27.1969 104.295 27.1942 104.259 27.1898 104.222C26.5971 99.236 31.4124 95.5905 31.9817 95.1784C32.0189 95.1515 32.0581 95.1284 32.0993 95.108C36.6361 92.8568 39.4177 95.3497 39.6784 95.5984C39.6933 95.6126 39.7069 95.6256 39.7222 95.6393C44.3914 99.8598 40.5022 103.754 40.3265 103.926C40.3209 103.931 40.3173 103.935 40.3117 103.941C36.6163 107.619 34.3651 104.468 34.1327 104.117C34.1183 104.095 34.1044 104.075 34.0892 104.053C32.0219 101.168 34.4074 99.6303 34.4074 99.6303" stroke="white" stroke-width="2" stroke-linecap="round"/>
<path d="M79.6389 57.8834C86.1022 62.0905 85.5272 68.7865 85.4524 69.4536C85.4481 69.4927 85.4455 69.5275 85.4445 69.5668C85.3 74.808 80.1633 79.1552 80.104 79.2053C80.1021 79.2068 80.1025 79.2065 80.1006 79.2081C74.5651 83.9274 68.6305 81.164 68.1494 80.9275C68.1259 80.9159 68.1053 80.9064 68.0812 80.8961C62.778 78.6323 62.3981 73.6757 62.3718 73.1036C62.3701 73.0664 62.3674 73.0303 62.363 72.9934C61.7703 68.0075 66.5856 64.362 67.1549 63.9499C67.1921 63.923 67.2313 63.8999 67.2725 63.8795C71.8093 61.6283 74.5909 64.1212 74.8516 64.3699C74.8665 64.3841 74.8801 64.397 74.8954 64.4108C79.5646 68.6312 75.6754 72.5259 75.4997 72.6975C75.4941 72.703 75.4905 72.7064 75.485 72.712C71.7895 76.3909 69.5383 73.2396 69.3059 72.8885C69.2915 72.8667 69.2776 72.846 69.2624 72.8248C67.1951 69.9395 69.5806 68.4018 69.5806 68.4018" stroke="white" stroke-width="2" stroke-linecap="round"/>
<path d="M21.7941 60.9084C25.5416 52.5788 28.3926 45.1636 45.6799 32.1777C59.6551 22.3591 66.5416 21.3181 77.3921 19.4052C87.5374 17.9282 92.2976 19.519 98.5155 21.597L98.667 21.6477C106.299 25.2712 110.864 28.8522 114.732 32.3031C123.457 40.6566 125.343 47.8885 127.003 53.4511C129.53 62.3645 128.158 69.342 128.078 69.7333C128.075 69.746 128.073 69.757 128.071 69.7697C126.794 77.0545 123.052 84.2996 122.802 84.7792C122.792 84.797 122.784 84.8122 122.773 84.8294C117.257 93.8629 97.2856 106.983 96.9273 107.218C96.9161 107.226 96.9268 107.218 96.9159 107.226C96.569 107.473 82.5799 117.397 72.2194 120.248C66.7282 121.554 55.1888 124.24 43.4155 117.657C38.7411 115.044 27.9256 108.739 22.8339 94.5666C19.9014 87.1352 16.2245 75.0405 21.7941 60.9084Z" stroke="black" stroke-width="2"/>
<path d="M21.8289 61.3362C25.5763 53.0065 28.4274 45.5914 45.7147 32.6055C59.6899 22.7869 66.5764 21.7458 77.4269 19.8329C87.5722 18.3559 92.3324 19.9468 98.5503 22.0248L98.7017 22.0754C106.334 25.699 110.898 29.28 114.767 32.7308C123.492 41.0843 125.378 48.3162 127.038 53.8788C129.553 62.7528 128.205 69.708 128.114 70.1555C128.11 70.1714 128.108 70.1863 128.105 70.2024C126.958 77.1468 122.898 84.3716 122.629 84.8444C122.62 84.8616 122.61 84.8767 122.599 84.8932C115.809 95.2066 97.4565 107.18 97.0028 107.475C96.9885 107.484 96.9975 107.478 96.9837 107.488C96.5469 107.803 82.5804 117.835 72.2542 120.676C66.7629 121.982 55.2236 124.668 43.4503 118.085C38.7759 115.472 27.9604 109.167 22.8687 94.9943C19.9362 87.5629 16.2593 75.4683 21.8289 61.3362Z" stroke="black" stroke-width="2"/>
</g>
<path d="M60.2826 147.141C60.2826 147.141 58.6598 143.972 60.9661 141.868C63.9267 139.388 67.6984 141.558 67.6984 141.558L75.2759 144.842L86.917 140.758L90.2481 143.298C90.2481 143.298 85.1696 149.96 77.6064 152.973C77.6064 152.973 72.9628 153.998 68.3038 153.431C68.3038 153.431 63.5128 151.885 60.2826 147.141Z" fill="#9F9F9F"/>
<path d="M81.7037 122.902C81.7037 122.902 79.0095 110.315 83.9871 105.858C86.8913 102.278 99.5641 95.787 99.5641 95.787C104.122 98.5592 120.343 116.893 120.343 116.893C122.463 120.791 122.494 123.975 122.494 123.975C122.393 126.18 118.114 126.957 118.114 126.957C117.897 129.775 116.934 131.499 115.342 131.515C109.036 137.944 101.108 141.205 95.4862 142.362C91.3241 142.525 88.0084 141.577 85.2753 137.563C83.5204 133.416 82.6121 128.159 81.7037 122.902Z" fill="#9F9F9F"/>
<path d="M83.3735 105.741C77.728 117.062 85.0266 137.197 85.0266 137.197C92.8458 147.898 102.7 141.189 107.809 137.711L113.4 133.37C109.852 133.649 105.659 130.629 105.659 130.629C105.659 130.629 110.846 135.109 116.204 131.996C119.007 130.621 117.5 126.84 117.5 126.84C120.436 126.444 121.414 126.312 122.012 124.836C124.023 117.592 113.036 108.514 113.036 108.514C105.481 99.7703 99.6804 95.1733 99.6804 95.1733L83.3735 105.741Z" stroke="#2A1F19" stroke-width="2"/>
<mask id="mask1_3429_19813" style="mask-type:alpha" maskUnits="userSpaceOnUse" x="9" y="8" width="136" height="136">
<rect x="9.81854" y="62.8184" width="97.1339" height="97.1339" transform="rotate(-34.2475 9.81854 62.8184)" fill="#D9D9D9"/>
</mask>
<g mask="url(#mask1_3429_19813)">
<path d="M50.0352 62.4104C46.414 62.0585 36.7209 61.8943 30.4035 63.3772C30.4035 63.3772 27.8634 67.9246 28.5434 71.407L31.1325 71.8986C33.5903 85.4428 41.3208 91.0448 41.3208 91.0448" fill="#9F9F9F"/>
<path d="M75.6983 43.8118C76.6984 40.3136 80.099 31.2351 83.7945 25.9011C83.7945 25.9011 88.9565 25.2048 91.9471 27.114L91.4554 29.7032C105.237 38.356 106.228 47.2626 106.228 47.2626" fill="#AC0000"/>
<path d="M46.8543 102.665C36.1973 87.0115 42.6148 64.0716 61.1878 51.4269C79.7614 38.7817 103.457 41.2204 114.114 56.8738C124.77 72.5264 111.797 86.7738 93.2237 99.4189C74.6507 112.064 57.5108 118.318 46.8543 102.665Z" fill="#9F9F9F" stroke="#2A1F19" stroke-width="2" stroke-miterlimit="10" stroke-linejoin="round"/>
<path d="M42.8404 93.2356C39.4534 91.197 32.0334 83.6488 30.6936 72.0763L27.7561 71.8462C27.7561 71.8462 27.9916 65.0671 30.0275 63.6009C34.5515 60.5564 50.5435 61.5018 50.5435 61.5018" stroke="#2A1F19" stroke-width="2"/>
<path d="M106.969 49.6029C106.314 45.7044 102.011 36.0339 91.7357 30.5451L92.5985 27.7277C92.5985 27.7277 86.205 25.4617 84.0945 26.8185C79.6035 29.9115 75.0676 45.3692 75.0676 45.3692" stroke="#2A1F19" stroke-width="2"/>
<mask id="mask2_3429_19813" style="mask-type:alpha" maskUnits="userSpaceOnUse" x="70" y="8" width="47" height="46">
<ellipse cx="93.5365" cy="31.1042" rx="22.8285" ry="22.8285" transform="rotate(-34.2475 93.5365 31.1042)" fill="#AEAEAE"/>
</mask>
<g mask="url(#mask2_3429_19813)">
<path d="M46.9579 102.595C36.3009 86.9412 42.7184 64.0013 61.2914 51.3566C79.865 38.7114 103.56 41.1501 114.217 56.8035C124.874 72.4561 111.901 86.7034 93.3272 99.3486C74.7542 111.993 57.6144 118.247 46.9579 102.595Z" fill="#AC0000" stroke="#AC0000" stroke-width="2" stroke-miterlimit="10" stroke-linejoin="round"/>
<path d="M75.8018 43.7415C76.8018 40.2433 80.2024 31.1648 83.8979 25.8308C83.8979 25.8308 89.06 25.1345 92.0506 27.0437L91.5589 29.6329C105.34 38.2857 106.332 47.1923 106.332 47.1923" fill="#AC0000"/>
<path d="M107.031 50.0975C106.376 46.199 102.115 35.9632 91.8394 30.4744L92.7022 27.657C92.7022 27.657 86.3087 25.391 84.1982 26.7477C79.7072 29.8407 75.0676 45.3688 75.0676 45.3688" stroke="#2A1F19" stroke-width="2"/>
</g>
</g>
<mask id="mask3_3429_19813" style="mask-type:alpha" maskUnits="userSpaceOnUse" x="59" y="140" width="31" height="14">
<path d="M59.6365 146.976C59.6365 146.976 58.0136 143.807 60.3199 141.703C63.2805 139.222 67.0522 141.393 67.0522 141.393L74.3125 144.996L86.2708 140.593L89.6019 143.133C89.6019 143.133 84.5235 149.795 76.9602 152.808C76.9602 152.808 72.3166 153.833 67.6576 153.266C67.6576 153.266 62.8666 151.72 59.6365 146.976Z" fill="#5E5E5E"/>
</mask>
<g mask="url(#mask3_3429_19813)">
<ellipse cx="62.3915" cy="145.53" rx="12.1505" ry="7.05324" transform="rotate(24.2523 62.3915 145.53)" fill="#AC0000"/>
</g>
<path d="M75.0084 144.124C77.2136 144.225 83.55 140.979 87.2152 140.086L91.4082 143.107C88.0225 147.549 80.4747 152.153 76.0797 153.543C71.6846 154.933 66.8936 153.387 64.0594 151.578C63.1975 151.096 61.8768 150.266 59.6405 146.982C57.4632 143.783 61.0158 140.831 62.3592 140.45C65.5656 139.209 72.8031 144.023 75.0084 144.124Z" stroke="#2A1F19" stroke-width="2"/>
<path d="M57.1671 99.4148C56.9388 99.5702 56.8798 99.8812 57.0352 100.11C57.1906 100.338 57.5016 100.397 57.7299 100.241L57.1671 99.4148ZM57.7299 100.241L68.6788 92.7873L68.116 91.9606L57.1671 99.4148L57.7299 100.241Z" fill="black"/>
<path d="M52.405 91.407C52.1374 91.4749 51.9755 91.747 52.0435 92.0147C52.1114 92.2823 52.3835 92.4442 52.6511 92.3762L52.405 91.407ZM52.6511 92.3762L65.4893 89.1163L65.2431 88.1471L52.405 91.407L52.6511 92.3762Z" fill="black"/>
<path d="M62.6232 107.023C62.4619 107.247 62.5127 107.56 62.7368 107.721C62.961 107.883 63.2734 107.832 63.4348 107.608L62.6232 107.023ZM63.4348 107.608L71.1739 96.8582L70.3624 96.2739L62.6232 107.023L63.4348 107.608Z" fill="black"/>
<path d="M105.623 67.0291C105.852 66.8737 106.163 66.9327 106.318 67.161C106.474 67.3893 106.414 67.7003 106.186 67.8557L105.623 67.0291ZM106.186 67.8557L95.2373 75.3099L94.6745 74.4833L105.623 67.0291L106.186 67.8557Z" fill="black"/>
<path d="M99.9186 59.6629C100.08 59.4388 100.392 59.388 100.616 59.5493C100.841 59.7106 100.891 60.0231 100.73 60.2472L99.9186 59.6629ZM100.73 60.2472L92.991 70.9966L92.1794 70.4123L99.9186 59.6629L100.73 60.2472Z" fill="black"/>
<path d="M110.702 74.8943C110.97 74.8263 111.242 74.9882 111.31 75.2559C111.378 75.5235 111.216 75.7956 110.948 75.8635L110.702 74.8943ZM110.948 75.8635L98.1101 79.1234L97.864 78.1542L110.702 74.8943L110.948 75.8635Z" fill="black"/>
<path d="M63.2239 77.7578C63.2626 76.5392 66.0514 75.6389 68.0011 75.7008C69.9509 75.7627 70.3233 76.7634 70.2846 77.982C70.246 79.2006 69.8108 80.1757 67.861 80.1138C65.9113 80.0519 63.1852 78.9765 63.2239 77.7578Z" fill="black"/>
<path d="M84.0024 63.6118C82.8545 63.2011 80.9945 65.4656 80.3373 67.3023C79.6802 69.1391 80.4747 69.8524 81.6226 70.2632C82.7706 70.6739 83.8373 70.6264 84.4944 68.7897C85.1516 66.953 85.1504 64.0225 84.0024 63.6118Z" fill="black"/>
<path d="M76.1627 84.9502C80.8372 87.109 80.9073 81.7201 80.9073 81.7201C80.9073 81.7201 85.9467 83.6304 85.6518 78.4899" stroke="black" stroke-width="2" stroke-linecap="round"/>
<path d="M88.5889 103.013C87.1346 101.088 86.3348 98.14 89.5545 96.0175C93.2309 94.001 95.462 95.8889 96.61 97.9819C97.102 98.8789 99.0483 101.701 94.9231 104.352C92.7786 105.529 91.0056 105.966 88.5889 103.013Z" fill="#339943"/>
<path d="M80.6307 107.524C81.1129 105.206 82.343 105.377 85.4961 101.758C85.9433 101.245 88.2373 102.447 88.5889 103.013C88.5889 103.013 89.8129 104.434 90.8902 104.972C91.1365 105.096 91.2837 105.351 91.2534 105.625C91.1181 106.85 90.6307 110.365 89.2343 113.644C89.2152 113.689 89.1914 113.731 89.1632 113.772C88.3158 114.977 87.2896 116.597 82.8741 118.784C82.513 118.963 82.0849 118.798 81.9636 118.424C81.4446 116.823 80.2864 112.585 80.6307 107.524Z" fill="#339943"/>
<path d="M103.747 92.3641C101.148 92.2444 100.812 92.0263 95.1975 94.3945C94.8077 94.5589 96.399 97.6268 96.61 97.9819C96.7041 98.1403 97.6611 100.042 98.8795 101.752C99.0331 101.968 99.2686 102.109 99.5311 102.143C100.953 102.327 104.277 102.646 107.595 102.149C107.644 102.142 107.691 102.129 107.737 102.112C109.124 101.596 110.96 101.01 114.188 97.3055C114.452 97.0026 114.396 96.5504 114.061 96.3411C112.626 95.4462 108.774 93.2849 103.747 92.3641Z" fill="#339943"/>
<path d="M88.5889 103.013C87.1346 101.088 86.3348 98.14 89.5545 96.0175C93.2309 94.001 95.462 95.8889 96.61 97.9819M88.5889 103.013C91.0056 105.966 92.7786 105.529 94.9231 104.352C99.0483 101.701 97.102 98.8789 96.61 97.9819M88.5889 103.013C88.5889 103.013 89.8129 104.434 90.8902 104.972C91.1365 105.096 91.2837 105.351 91.2534 105.625C91.1181 106.85 90.6307 110.365 89.2343 113.644C89.2152 113.689 89.1914 113.731 89.1632 113.772C88.3158 114.977 87.2896 116.597 82.8741 118.784C82.513 118.963 82.0849 118.798 81.9636 118.424C81.4446 116.823 80.2864 112.585 80.6307 107.524C81.1129 105.206 82.343 105.377 85.4961 101.758C85.9433 101.245 88.2373 102.447 88.5889 103.013ZM96.61 97.9819C96.7041 98.1403 97.6611 100.042 98.8795 101.752C99.0331 101.968 99.2686 102.109 99.5311 102.143C100.953 102.327 104.277 102.646 107.595 102.149C107.644 102.142 107.691 102.129 107.737 102.112C109.124 101.596 110.96 101.01 114.188 97.3055C114.452 97.0026 114.396 96.5504 114.061 96.3411C112.626 95.4462 108.774 93.2849 103.747 92.3641C101.148 92.2444 100.812 92.0263 95.1975 94.3945C94.8077 94.5589 96.399 97.6268 96.61 97.9819Z" stroke="black" stroke-width="1.5" stroke-linecap="round"/>
<path d="M17 75C17.8571 78.9 19.5714 80.6333 23 81.5C19.5714 82.3667 17.8571 84.1 17 88C16.1429 84.1 14.4286 82.3667 11 81.5C14.4286 80.6333 16.1429 78.9 17 75Z" fill="#FFDA29"/>
<path d="M10 89C10.8571 92.9 12.5714 94.6333 16 95.5C12.5714 96.3667 10.8571 98.1 10 102C9.14286 98.1 7.42857 96.3667 4 95.5C7.42857 94.6333 9.14286 92.9 10 89Z" fill="#FFDA29"/>
<path d="M9 63C9.85714 66.9 11.5714 68.6333 15 69.5C11.5714 70.3667 9.85714 72.1 9 76C8.14286 72.1 6.42857 70.3667 3 69.5C6.42857 68.6333 8.14286 66.9 9 63Z" fill="#FFDA29"/>
<path d="M18 47C18.8571 50.9 20.5714 52.6333 24 53.5C20.5714 54.3667 18.8571 56.1 18 60C17.1429 56.1 15.4286 54.3667 12 53.5C15.4286 52.6333 17.1429 50.9 18 47Z" fill="#FFDA29"/>
</svg>
