<svg width="112" height="134" viewBox="0 0 112 134" fill="none" xmlns="http://www.w3.org/2000/svg">
<path d="M1.5 110.53C1.5 110.53 2 106.53 5.5 106.03C9.85239 105.595 12 110.03 12 110.03L17 117.934L30.5 121.53L32.5 127C32.5 127 23 129.03 14 127.03C14 127.03 8.5 126 4.99996 121.53C4.99996 121.53 1.5 117.03 1.5 110.53Z" fill="white"/>
<path d="M37 102.058C37 102.058 42.5 88.5577 50 87.5579C55 86.0579 71 88.058 71 88.058C73.5 93.5578 77 121.058 77 121.058C76.5 126.058 74.5 129.058 74.5 129.058C73 131.058 68.5 129.058 68.5 129.058C66.5 131.558 64.5 132.558 63 131.558C53 133.558 43.5 131.558 37.5 129.058C33.5 126.558 31 123.558 31 118.058C32 113.058 34.5 107.558 37 102.058Z" fill="white"/>
<path d="M49.5 87.0576C37 94.0576 31 117.558 31 117.558C31.5 132.558 45 132.558 52 132.558L60 132.058C56.5 130.058 54.5 124.558 54.5 124.558C54.5 124.558 56.5 132.058 63.5 132.558C67 133.058 68 128.558 68 128.558C71 130.058 72 130.558 73.5 129.558C80 124.058 75.5 108.558 75.5 108.558C74 95.5576 71.5 87.5576 71.5 87.5576L49.5 87.0576Z" stroke="#2A1F19" stroke-width="2"/>
<mask id="mask0_1064_10405" style="mask-type:alpha" maskUnits="userSpaceOnUse" x="2" y="0" width="110" height="110">
<rect x="2" width="110" height="110" fill="#D9D9D9"/>
</mask>
<g mask="url(#mask0_1064_10405)">
<path d="M39.9067 25.2492C36.7412 22.6119 27.772 16.2807 20.9132 13.6427C20.9132 13.6427 15.6372 16.2807 14.0544 19.9739L16.1648 22.0843C9.83367 36.3294 13.5 46.5001 13.5 46.5001" fill="white"/>
<path d="M75.7837 24.194C78.9493 21.5567 87.9184 15.2255 94.7772 12.5875C94.7772 12.5875 100.053 15.2255 101.636 18.9187L99.5256 21.0291C106.912 37.9122 102.164 46.8814 102.164 46.8814" fill="#7B4300"/>
<path d="M11.2749 60.9042C11.2749 39.4592 31.9022 22.075 57.3471 22.075C82.7929 22.075 103.42 39.4592 103.42 60.9042C103.42 82.3483 82.1959 87.4174 56.7502 87.4174C31.3053 87.4174 11.2749 82.3483 11.2749 60.9042Z" fill="white" stroke="#2A1F19" stroke-width="2" stroke-miterlimit="10" stroke-linejoin="round"/>
<path d="M13.5266 49.5192C11.6553 45.4522 9.52 33.6576 15.6411 21.9706L13.0379 19.8831C13.0379 19.8831 17.5787 13.6872 20.419 13.6122C26.5943 13.6454 40.9619 24.7222 40.9619 24.7222" stroke="#2A1F19" stroke-width="2"/>
<path d="M101.366 49.5442C103.237 45.4773 105.372 33.6826 99.2513 21.9956L101.854 19.9081C101.854 19.9081 97.3136 13.7122 94.4733 13.6373C88.2981 13.6705 74.2006 25.2498 74.2006 25.2498" stroke="#2A1F19" stroke-width="2"/>
<mask id="mask1_1064_10405" style="mask-type:alpha" maskUnits="userSpaceOnUse" x="74" y="-3" width="53" height="53">
<circle cx="100.58" cy="23.6669" r="25.8523" fill="#AEAEAE"/>
</mask>
<g mask="url(#mask1_1064_10405)">
<path d="M11.416 60.9042C11.416 39.4592 32.0434 22.075 57.4882 22.075C82.934 22.075 103.561 39.4592 103.561 60.9042C103.561 82.3483 82.337 87.4174 56.8913 87.4174C31.4464 87.4174 11.416 82.3483 11.416 60.9042Z" fill="#7B4300" stroke="#7B4300" stroke-width="2" stroke-miterlimit="10" stroke-linejoin="round"/>
<path d="M75.9248 24.194C79.0904 21.5567 88.0596 15.2255 94.9183 12.5875C94.9183 12.5875 100.194 15.2255 101.777 18.9187L99.6667 21.0291C107.053 37.9122 102.305 46.8814 102.305 46.8814" fill="#7B4300"/>
<path d="M101.108 50.047C102.979 45.9801 105.514 33.6829 99.393 21.9959L101.996 19.9084C101.996 19.9084 97.4553 13.7125 94.615 13.6375C88.4397 13.6707 74.2003 25.2498 74.2003 25.2498" stroke="#2A1F19" stroke-width="2"/>
</g>
</g>
<mask id="mask2_1064_10405" style="mask-type:alpha" maskUnits="userSpaceOnUse" x="1" y="106" width="31" height="22">
<path d="M1 110.53C1 110.53 1.5 106.53 5 106.03C9.35239 105.595 11.5 110.03 11.5 110.03L16 118.03L30 121.53L31.5 126.03C31.5 126.03 22.5 129.03 13.5 127.03C13.5 127.03 8.49996 125.03 4.49996 121.53C4.49996 121.53 1 117.03 1 110.53Z" fill="#5E5E5E"/>
</mask>
<g mask="url(#mask2_1064_10405)">
<ellipse cx="4.50019" cy="110.933" rx="13.7599" ry="7.9875" transform="rotate(58.4999 4.50019 110.933)" fill="#7B4300"/>
</g>
<path d="M17.2073 117.657C19.2072 119.157 27.2072 120.157 31.2073 121.657L33.2073 127.157C27.2072 129.157 17.2072 128.657 12.2073 127.157C7.20721 125.657 3.70721 121.157 2.20731 117.657C1.7072 116.657 1 115.038 1 110.538C1 106.157 6.20731 105.657 7.70731 106.157C11.5002 107.038 15.2072 116.157 17.2073 117.657Z" stroke="#2A1F19" stroke-width="2"/>
<path d="M23 64.5C22.7239 64.5 22.5 64.7239 22.5 65C22.5 65.2761 22.7239 65.5 23 65.5V64.5ZM23 65.5H38V64.5H23V65.5Z" fill="black"/>
<path d="M23.6232 53.9647C23.3637 53.8703 23.0767 54.0041 22.9823 54.2636C22.8879 54.523 23.0216 54.81 23.2811 54.9044L23.6232 53.9647ZM23.2811 54.9044L37.3765 60.0347L37.7185 59.095L23.6232 53.9647L23.2811 54.9044Z" fill="black"/>
<path d="M23.2811 75.0956C23.0216 75.19 22.8879 75.477 22.9823 75.7364C23.0767 75.9959 23.3637 76.1297 23.6232 76.0353L23.2811 75.0956ZM23.6232 76.0353L37.7185 70.905L37.3765 69.9653L23.2811 75.0956L23.6232 76.0353Z" fill="black"/>
<path d="M89 65.0654C89.2761 65.0654 89.5 65.2893 89.5 65.5654C89.5 65.8416 89.2761 66.0654 89 66.0654V65.0654ZM89 66.0654H74V65.0654H89V66.0654Z" fill="black"/>
<path d="M88.3768 54.5302C88.6363 54.4357 88.9233 54.5695 89.0177 54.829C89.1121 55.0885 88.9784 55.3754 88.7189 55.4698L88.3768 54.5302ZM88.7189 55.4698L74.6235 60.6001L74.2815 59.6605L88.3768 54.5302L88.7189 55.4698Z" fill="black"/>
<path d="M88.7189 75.661C88.9784 75.7555 89.1121 76.0424 89.0177 76.3019C88.9233 76.5614 88.6363 76.6952 88.3768 76.6007L88.7189 75.661ZM88.3768 76.6007L74.2815 71.4704L74.6235 70.5307L88.7189 75.661L88.3768 76.6007Z" fill="black"/>
<path d="M50 63C53 68 56.5 63 56.5 63C56.5 63 60 68 63 63" stroke="black" stroke-width="2" stroke-linecap="round"/>
<path d="M46.5 54C45.1193 54 44 50.8758 44 48.6667C44 46.4575 45.1193 46 46.5 46C47.8807 46 49 46.4575 49 48.6667C49 50.8758 47.8807 54 46.5 54Z" fill="black"/>
<path d="M66.5 54C65.1193 54 64 50.8758 64 48.6667C64 46.4575 65.1193 46 66.5 46C67.8807 46 69 46.4575 69 48.6667C69 50.8758 67.8807 54 66.5 54Z" fill="black"/>
<path d="M23.4464 42.904C22.9426 45.077 22.4277 46.0154 21.0075 47.0033L14.5038 47.0032L8 47.0031C8.00357 45.767 8.07625 43.6316 8.81297 42.611C8.72279 40.3692 9.13738 39.4556 10.4389 38.219C11.175 32.2928 12.5141 29.9914 16.1297 27.2387C17.2434 22.6515 18.5746 20.8454 22.6335 19.1865C24.25 17.9187 26.125 15.6484 28.6494 14.9406C30.5 12.243 32.957 11.2971 35.641 11.8662C38.5268 9.96965 40.1253 9.19946 42.9577 8.93816L50.2744 7.47411C53.5263 5.39648 56.2827 6.14071 58.4041 6.12841C59.7549 6.12058 63.2819 5.39644 65.7209 7.47411C70.5987 8.93816 74.8261 7.8904 79.7039 11.5505C82.6105 11.1337 84.8771 11.7212 87.671 15.5264C89.875 15.6484 90.1099 16.9904 93.3618 19.1865C96.9805 20.9542 98.638 22.4312 99.8656 27.2387C104.07 30.7419 106.014 32.629 105.565 38.2341C106.375 39.6881 107.181 40.4227 106.695 42.6112C107.856 44.6493 108.034 45.7657 107.995 47.7353L100.679 47.8754L94.1748 48C92.9514 46.3145 92.5896 44.3623 92.5489 42.6112C93.4543 43.1772 94.25 43.4595 94.9878 42.6112C96.0382 41.4033 85.8056 37.1273 82.7932 33.8269C80.8852 32.3647 80.3543 31.6308 79.8665 30.1668C75.0434 29.2598 72.6558 28.3016 68.9727 25.7747C67.5 26.4323 67.375 26.4323 65 26.2139C66.25 25.7512 65.8568 24.4341 65.8568 24.4341C65.8568 24.4341 60.0301 25.0426 57.5912 25.0426C55.1522 25.0426 50.5 24.162 50.5 24.162C50.5 24.162 49.6812 25.6118 51.0874 26.2139C48.5192 26.3409 48.2849 26.2835 46.2498 25.7845L46.2096 25.7747C43.8995 27.9472 41.1841 28.8821 35.9776 30.1668C35.2868 31.9452 34.4382 32.7402 33.2021 33.8269C31.8673 34.8914 31.4069 35.5458 29.9502 36.755C27.5198 38.9116 19.875 41.7567 21.0075 42.6112C21.7009 43.1551 22.3974 42.9047 23.4464 42.904Z" fill="#F1E9E3"/>
<path d="M65.8568 24.4341C66.0964 24.3626 66.0964 24.3627 66.0964 24.3628L66.0965 24.3631L66.0967 24.3637L66.0972 24.3654L66.0985 24.3701L66.1027 24.3852C66.106 24.3977 66.1103 24.4151 66.1152 24.4367C66.1249 24.4799 66.1368 24.5405 66.1466 24.6143C66.166 24.7607 66.1778 24.9644 66.1444 25.1875C66.1027 25.4659 65.9897 25.772 65.7445 26.0297C66.483 26.0928 66.9247 26.1142 67.2981 26.0742C67.7657 26.0241 68.1313 25.8766 68.8708 25.5464L68.9987 25.4893L69.1142 25.5685C72.7656 28.0738 75.1201 29.0199 79.9127 29.9211L80.0572 29.9483L80.1037 30.0878C80.3422 30.8037 80.5855 31.3241 80.9938 31.8429C81.4062 32.367 81.9958 32.9008 82.9453 33.6285L82.9629 33.642L82.9779 33.6584C83.7078 34.458 84.8887 35.3296 86.253 36.212C87.504 37.0211 88.8921 37.8289 90.1988 38.5892C90.3132 38.6557 90.4269 38.7219 90.5399 38.7877C91.9382 39.602 93.225 40.3596 94.0959 40.9907C94.5284 41.3042 94.8784 41.6004 95.0866 41.8692C95.1904 42.0031 95.2747 42.15 95.303 42.3048C95.3337 42.4733 95.295 42.6388 95.1764 42.7752C94.7619 43.2518 94.3034 43.4337 93.8095 43.3906C93.4774 43.3616 93.1448 43.2316 92.8167 43.0567C92.9046 44.6176 93.279 46.2847 94.3019 47.7475L100.674 47.6255L107.749 47.49C107.758 46.6281 107.715 45.9435 107.552 45.2566C107.374 44.5076 107.051 43.7419 106.477 42.735L106.43 42.6511L106.45 42.557C106.685 41.5025 106.604 40.8222 106.382 40.2357C106.269 39.9366 106.116 39.6547 105.936 39.3509C105.878 39.252 105.816 39.1494 105.751 39.0432C105.621 38.8294 105.483 38.6005 105.346 38.3558L105.31 38.2896L105.316 38.2141C105.538 35.4449 105.166 33.6282 104.245 32.0758C103.315 30.5086 101.814 29.1873 99.7055 27.4308L99.6434 27.379L99.6234 27.3006C99.0143 24.9153 98.3056 23.3856 97.3205 22.2353C96.3345 21.084 95.0533 20.291 93.2521 19.4111L93.2364 19.4034L93.2219 19.3936C91.967 18.5462 91.1491 17.8183 90.5093 17.2488C90.3126 17.0738 90.1328 16.9137 89.9622 16.7697C89.5982 16.4625 89.2805 16.2312 88.9277 16.0678C88.5775 15.9056 88.1813 15.805 87.6572 15.776L87.5394 15.7694L87.4695 15.6743C86.0865 13.7907 84.8526 12.7296 83.6279 12.1835C82.4074 11.6393 81.1666 11.5933 79.7394 11.798L79.6368 11.8127L79.5539 11.7505C77.1575 9.95235 74.9235 9.30995 72.6714 8.9354C71.9806 8.82051 71.2815 8.73043 70.5728 8.63911C68.9847 8.43448 67.3484 8.22362 65.649 7.71356L65.5987 7.69847L65.5587 7.66442C64.3974 6.67509 62.968 6.3449 61.6402 6.26879C60.9772 6.23079 60.3451 6.25642 59.7906 6.29267C59.6176 6.30397 59.4498 6.31655 59.2903 6.3285C58.9475 6.35419 58.6426 6.37703 58.4056 6.37841C57.9585 6.381 57.4925 6.35241 57.0069 6.32262C55.118 6.20674 52.9323 6.07264 50.409 7.68479L50.3695 7.71005L50.3235 7.71925L43.0068 9.1833L42.9938 9.18589L42.9807 9.1871C40.2062 9.44306 38.6479 10.1892 35.7783 12.0752L35.6911 12.1324L35.5891 12.1108C34.2914 11.8356 33.059 11.9283 31.9306 12.4084C30.8011 12.889 29.7592 13.7648 28.8556 15.082L28.8043 15.1568L28.7169 15.1813C27.5044 15.5213 26.4365 16.2401 25.4602 17.0463C24.9971 17.4288 24.5588 17.8272 24.1359 18.2116C24.1134 18.232 24.091 18.2524 24.0686 18.2728C23.6271 18.6739 23.2002 19.0597 22.7877 19.3832L22.7603 19.4047L22.728 19.4179C20.7183 20.2393 19.4148 21.0849 18.4729 22.27C17.5279 23.4591 16.927 25.0144 16.3726 27.2977L16.3517 27.3839L16.2811 27.4376C14.4888 28.8022 13.2808 30.0397 12.4254 31.6558C11.5677 33.2763 11.0537 35.298 10.687 38.2498L10.676 38.3386L10.6111 38.4003C9.97246 39.0071 9.57334 39.5143 9.33738 40.1278C9.10021 40.7445 9.01822 41.4937 9.06277 42.6009L9.06624 42.6873L9.01567 42.7573C8.68548 43.2147 8.48903 43.9509 8.37928 44.7598C8.28496 45.455 8.25826 46.1732 8.25173 46.7531L14.5038 46.7532L20.9285 46.7533C21.5821 46.2901 22.0195 45.8437 22.355 45.2716C22.6697 44.7347 22.902 44.075 23.1278 43.1615C22.9934 43.1673 22.8639 43.1759 22.7371 43.1845L22.7161 43.1859C22.5025 43.2003 22.2917 43.2145 22.0902 43.2118C21.6636 43.206 21.2573 43.1242 20.8548 42.8091C20.7423 42.7235 20.6582 42.603 20.6455 42.4488C20.6335 42.3041 20.6886 42.1732 20.7567 42.0674C20.8902 41.8599 21.1408 41.6468 21.441 41.4348C22.0523 41.003 22.9929 40.4923 24.0266 39.95C24.277 39.8186 24.5334 39.6852 24.7927 39.5502C25.6108 39.1243 26.4588 38.6828 27.2461 38.2416C28.2857 37.6589 29.1985 37.0878 29.7843 36.568L29.7904 36.5625L29.7905 36.5626C30.4882 35.9834 30.9542 35.5336 31.4042 35.0993L31.4482 35.0568C31.9123 34.6089 32.367 34.1734 33.0415 33.6352C34.2665 32.5581 35.0768 31.7954 35.7446 30.0763L35.7916 29.9552L35.9177 29.9241C41.126 28.639 43.781 27.7155 46.0383 25.5925L46.1372 25.4995L46.2691 25.5318L46.3093 25.5417C47.3318 25.7924 47.8802 25.9263 48.4926 25.9851C48.9789 26.0318 49.5092 26.0313 50.3495 25.9973C50.2838 25.922 50.2287 25.8425 50.1832 25.7595C50.0332 25.4861 50.0002 25.1977 50.0169 24.9457C50.0335 24.6945 50.0999 24.4694 50.1601 24.3098C50.1905 24.2292 50.22 24.1635 50.2423 24.1171C50.2535 24.0939 50.2629 24.0754 50.2698 24.0622L50.2782 24.0465L50.2808 24.0417L50.2817 24.0401L50.2821 24.0395L50.2822 24.0393C50.2823 24.0392 50.2823 24.0391 50.5 24.162M65.8568 24.4341L66.0964 24.3626L66.0371 24.1639L65.8308 24.1854L65.8568 24.4341ZM65.8568 24.4341L65.8308 24.1854L65.8306 24.1855L65.8298 24.1855L65.8267 24.1859L65.8142 24.1872L65.7652 24.1922L65.5765 24.2115C65.4126 24.2281 65.1758 24.2519 64.884 24.2804C64.3003 24.3373 63.4967 24.4133 62.6171 24.4893C60.854 24.6416 58.7981 24.7926 57.5912 24.7926C56.3923 24.7926 54.6362 24.5753 53.1681 24.3551C52.4365 24.2454 51.7808 24.1356 51.3079 24.0533C51.0715 24.0122 50.8809 23.9779 50.7495 23.9539C50.6838 23.9419 50.633 23.9325 50.5986 23.9261L50.5595 23.9188L50.5497 23.917L50.5473 23.9165L50.5467 23.9164L50.5465 23.9164L50.5 24.162M50.5 24.162L50.5465 23.9164L50.3704 23.8831L50.2823 24.0391L50.5 24.162Z" stroke="black" stroke-opacity="0.28" stroke-width="0.5"/>
<g filter="url(#filter0_f_1064_10405)">
<path d="M22.4925 29.9072C23.3472 31.3744 22.9646 32.108 22.4926 32.108C22.0206 32.108 21.6378 32.1081 20.0997 30.6411C19.074 29.174 19.074 29.174 19.5869 28.1467C20.7832 26.9734 21.1446 27.5932 22.4925 29.9072Z" fill="#CBC4CC" fill-opacity="0.6"/>
<path d="M20.0587 30.6697L20.0579 30.6703L20.0652 30.6772C20.8349 31.4114 21.3192 31.7821 21.6726 31.9689C22.0301 32.1578 22.2534 32.158 22.4926 32.158C22.7605 32.158 22.9895 31.9486 23.0396 31.5643C23.0895 31.1819 22.9657 30.6202 22.5357 29.882L22.4925 29.9072L22.5357 29.882L22.5357 29.882C22.199 29.304 21.9229 28.8299 21.6798 28.4633C21.4372 28.0975 21.2242 27.8332 21.0123 27.6788C20.7969 27.5219 20.5811 27.4776 20.3409 27.5537C20.106 27.6282 19.852 27.8166 19.5519 28.111L19.5459 28.1168L19.5422 28.1243C19.5395 28.1297 19.5368 28.1351 19.5341 28.1404C19.2855 28.6383 19.1498 28.9102 19.2174 29.239C19.2512 29.4036 19.335 29.5792 19.4721 29.803C19.6091 30.0266 19.8022 30.3027 20.0577 30.6682L20.0587 30.6697Z" stroke="black" stroke-opacity="0.25" stroke-width="0.1"/>
</g>
<g filter="url(#filter1_f_1064_10405)">
<path d="M93.5075 29.9072C92.6528 31.3744 93.0354 32.108 93.5074 32.108C93.9794 32.108 94.3622 32.1081 95.9003 30.6411C96.926 29.174 96.926 29.174 96.4131 28.1467C95.2168 26.9734 94.8554 27.5932 93.5075 29.9072Z" fill="#CBC4CC" fill-opacity="0.6"/>
<path d="M95.9413 30.6697L95.9421 30.6703L95.9348 30.6772C95.1651 31.4114 94.6808 31.7821 94.3274 31.9689C93.9699 32.1578 93.7466 32.158 93.5074 32.158C93.2395 32.158 93.0105 31.9486 92.9604 31.5643C92.9105 31.1819 93.0343 30.6202 93.4643 29.882L93.5075 29.9072L93.4643 29.882L93.4643 29.882C93.801 29.304 94.0771 28.8299 94.3202 28.4633C94.5628 28.0975 94.7758 27.8332 94.9877 27.6788C95.2031 27.5219 95.4189 27.4776 95.6591 27.5537C95.894 27.6282 96.148 27.8166 96.4481 28.111L96.4541 28.1168L96.4578 28.1243C96.4605 28.1297 96.4632 28.1351 96.4659 28.1404C96.7145 28.6383 96.8502 28.9102 96.7826 29.239C96.7488 29.4036 96.665 29.5792 96.5279 29.803C96.3909 30.0266 96.1978 30.3027 95.9423 30.6682L95.9413 30.6697Z" stroke="black" stroke-opacity="0.25" stroke-width="0.1"/>
</g>
<g filter="url(#filter2_f_1064_10405)">
<path d="M31.4117 21.9613C31.9815 23.4285 31.7264 24.162 31.4117 24.162C31.0971 24.162 30.8419 24.1622 29.8165 22.6951C29.1327 21.2281 29.1327 21.2281 29.4746 20.2007C30.2721 19.0275 30.513 19.6473 31.4117 21.9613Z" fill="#CBC4CC" fill-opacity="0.5"/>
<path d="M29.7712 22.7163L29.7705 22.7166L29.7755 22.7238C30.2883 23.4575 30.612 23.8296 30.8496 24.0179C30.9693 24.1128 31.0687 24.1623 31.1608 24.1874C31.2514 24.212 31.332 24.212 31.4095 24.212H31.4117C31.5123 24.212 31.6011 24.1529 31.6666 24.0516C31.7317 23.9508 31.7768 23.8045 31.7932 23.6162C31.826 23.2391 31.7448 22.681 31.4583 21.9432C31.2338 21.3651 31.0498 20.8912 30.8878 20.5248C30.7264 20.1597 30.5844 19.895 30.4421 19.7395C30.3705 19.6613 30.2957 19.6071 30.2148 19.584C30.1325 19.5604 30.0495 19.5705 29.9659 19.6103C29.8036 19.6875 29.6324 19.8796 29.4332 20.1726L29.4316 20.1715L29.4272 20.1849L29.4236 20.1956C29.256 20.6992 29.167 20.9665 29.2114 21.2898C29.2336 21.4519 29.2888 21.626 29.3802 21.8498C29.4715 22.0733 29.6001 22.3493 29.7706 22.715L29.7712 22.7163Z" stroke="black" stroke-opacity="0.25" stroke-width="0.1"/>
</g>
<g filter="url(#filter3_f_1064_10405)">
<path d="M46.75 15.2989L45.7846 16.2158C45.2514 16.2158 45.0122 16.2161 45.0122 16.2161C44.819 15.2989 43.8536 14.3819 44.4329 13.098C44.8192 12.548 45.7846 12.5481 46.75 15.2989Z" fill="#CBC4CC" fill-opacity="0.5"/>
<path d="M46.7844 15.3352L46.8079 15.3129L46.7972 15.2824C46.3138 13.9051 45.8267 13.2038 45.4021 12.9191C45.1882 12.7757 44.9875 12.7364 44.8117 12.7742C44.6367 12.8118 44.494 12.9241 44.392 13.0693L44.3912 13.0688L44.3873 13.0775C44.0902 13.7359 44.1903 14.3009 44.3861 14.8124C44.4602 15.0059 44.5486 15.1932 44.634 15.3743C44.6609 15.4313 44.6875 15.4877 44.7133 15.5435C44.8218 15.7781 44.9162 16.003 44.9632 16.2264L44.9716 16.2662L45.0122 16.2661H45.0122H45.0123L45.0124 16.2661L45.0129 16.2661L45.015 16.2661L45.0236 16.2661L45.0579 16.2661L45.1985 16.2659L45.7846 16.2658H45.8046L45.819 16.252L46.7844 15.3352Z" stroke="black" stroke-opacity="0.25" stroke-width="0.1"/>
</g>
<g filter="url(#filter4_f_1064_10405)">
<path d="M45.3572 19.6215L44.6129 19.6214C44.2018 19.6214 43.7119 20.47 43.7119 20.47C43.563 21.3191 42.6776 22.6768 43.1242 23.8653C43.7119 24.9354 46.1016 23.0166 45.3572 19.6215Z" fill="#CBC4CC" fill-opacity="0.3"/>
<path d="M45.3572 19.5715L45.3974 19.5715L45.4061 19.6108C45.7811 21.3214 45.3675 22.665 44.7802 23.4479C44.4873 23.8384 44.1483 24.0928 43.8392 24.1792C43.6841 24.2226 43.5345 24.2241 43.4025 24.1765C43.2698 24.1286 43.1591 24.0327 43.0804 23.8894L43.0799 23.8896L43.0774 23.8829C42.848 23.2725 42.962 22.6224 43.147 22.0256C43.2205 21.7884 43.3059 21.5577 43.3863 21.3404C43.4071 21.2842 43.4276 21.2288 43.4475 21.1745C43.5446 20.9089 43.6263 20.6687 43.6627 20.4614L43.6642 20.4527L43.6686 20.445L43.7119 20.47L43.6686 20.445L43.6687 20.445L43.6687 20.4448L43.6691 20.4443L43.6702 20.4424L43.6745 20.435L43.6911 20.4075C43.7056 20.3839 43.7266 20.3503 43.7531 20.31C43.8061 20.2295 43.8812 20.1219 43.9696 20.014C44.0577 19.9065 44.1602 19.7972 44.2682 19.7143C44.3752 19.6323 44.4937 19.5714 44.6129 19.5714L45.3572 19.5715Z" stroke="black" stroke-opacity="0.2" stroke-width="0.1"/>
</g>
<g filter="url(#filter5_f_1064_10405)">
<path d="M70.6423 20.7566L71.3866 20.7566C71.7977 20.7566 72.2876 21.393 72.2876 21.393C72.4366 22.0298 73.322 23.0481 72.8753 23.9395C72.2876 24.742 69.898 23.303 70.6423 20.7566Z" fill="#CBC4CC" fill-opacity="0.3"/>
<path d="M70.6423 20.7066L70.6048 20.7066L70.5943 20.7426C70.2168 22.0341 70.6338 23.0492 71.2239 23.6392C71.5183 23.9335 71.8572 24.1235 72.1635 24.1878C72.4692 24.2518 72.7527 24.1915 72.9156 23.969L72.9162 23.9695L72.92 23.9619C73.1536 23.4958 73.0364 23.0003 72.851 22.5517C72.7772 22.3732 72.6915 22.1994 72.611 22.0364C72.5902 21.9943 72.5698 21.9529 72.55 21.9123C72.4528 21.7129 72.3721 21.5346 72.3363 21.3816L72.3338 21.3711L72.3272 21.3625L72.2876 21.393L72.3272 21.3625L72.3272 21.3625L72.3271 21.3623L72.3268 21.3619L72.3256 21.3604L72.3212 21.3549L72.3045 21.3341C72.2899 21.3163 72.2688 21.2909 72.2422 21.2606C72.189 21.2 72.1137 21.119 72.025 21.0379C71.9366 20.9569 71.8338 20.8748 71.7258 20.8127C71.6183 20.7508 71.5017 20.7066 71.3866 20.7066H71.3866L70.6423 20.7066Z" stroke="black" stroke-opacity="0.2" stroke-width="0.1"/>
</g>
<g filter="url(#filter6_f_1064_10405)">
<path d="M69.25 15.6046L70.2154 16.2159C70.7486 16.2159 70.9878 16.2161 70.9878 16.2161C71.181 15.6046 72.1464 14.9933 71.5671 14.1374C71.1808 13.7707 70.2154 13.7707 69.25 15.6046Z" fill="#CBC4CC" fill-opacity="0.5"/>
<path d="M69.2233 15.6469L69.1843 15.6222L69.2058 15.5814C69.691 14.6595 70.1805 14.19 70.6053 14.0001C71.0321 13.8094 71.3921 13.9024 71.6016 14.1011L71.6024 14.1002L71.6085 14.1094C71.759 14.3317 71.8109 14.5412 71.7981 14.7405C71.7853 14.9385 71.7089 15.1219 71.6105 15.2933C71.5359 15.4232 71.4467 15.5492 71.3611 15.6702C71.3344 15.708 71.3079 15.7454 71.2824 15.7822C71.1738 15.9388 71.0813 16.0862 71.0355 16.2312L71.0245 16.2661L70.9878 16.2661H70.9878H70.9877H70.9876L70.9871 16.2661L70.985 16.2661L70.9765 16.2661L70.9421 16.2661L70.8015 16.266L70.2154 16.2659H70.2009L70.1886 16.2581L69.2233 15.6469Z" stroke="black" stroke-opacity="0.25" stroke-width="0.1"/>
</g>
<g filter="url(#filter7_f_1064_10405)">
<path d="M83.5075 19.6909C82.6528 21.1581 83.0354 21.8916 83.5074 21.8916C83.9794 21.8916 84.3622 21.8918 85.9003 20.4247C86.926 18.9577 86.926 18.9577 86.4131 17.9304C85.2168 16.7571 84.8554 17.3769 83.5075 19.6909Z" fill="#CBC4CC" fill-opacity="0.5"/>
<path d="M85.9413 20.4534L85.9421 20.454L85.9348 20.4609C85.1651 21.195 84.6808 21.5658 84.3274 21.7526C83.9699 21.9415 83.7466 21.9416 83.5074 21.9416C83.2395 21.9416 83.0105 21.7322 82.9604 21.3479C82.9105 20.9656 83.0343 20.4039 83.4643 19.6657L83.5075 19.6909L83.4643 19.6657L83.4643 19.6657C83.801 19.0877 84.0771 18.6136 84.3202 18.247C84.5628 17.8812 84.7758 17.6169 84.9877 17.4625C85.2031 17.3056 85.4189 17.2613 85.6591 17.3374C85.894 17.4119 86.148 17.6003 86.4481 17.8947L86.4541 17.9005L86.4578 17.908C86.4605 17.9134 86.4632 17.9188 86.4659 17.9241C86.7145 18.422 86.8502 18.6939 86.7826 19.0227C86.7488 19.1873 86.665 19.3629 86.5279 19.5867C86.3909 19.8103 86.1978 20.0864 85.9423 20.4519L85.9413 20.4534Z" stroke="black" stroke-opacity="0.25" stroke-width="0.1"/>
</g>
<g filter="url(#filter8_f_1064_10405)">
<path d="M56.75 11.6754V15.0808" stroke="black" stroke-width="0.1"/>
</g>
<g filter="url(#filter9_f_1064_10405)">
<path d="M59.25 11.6754V15.0808" stroke="black" stroke-width="0.1"/>
</g>
<path d="M57.5946 13.9487C32.4595 13.6572 13 35.3441 13 47.0353H15.5C23.6081 28.0371 40.5676 18.9225 57.5946 19.0607C78.6757 19.2319 94.8919 34.2918 99.7568 47.8866L103 47.8412C97.3243 27.3817 79.4865 13.9487 57.5946 13.9487Z" fill="#4E3749"/>
<path d="M49.958 26.0578C49.8573 25.9348 49.7986 25.7734 49.7767 25.5792C49.7509 25.3511 49.7777 25.0909 49.8367 24.8292C49.9366 24.3854 50.1205 23.9725 50.2467 23.7563L52.3977 24.1131L51.0197 26.0096L49.958 26.0578Z" fill="#C5B9C3" stroke="#AEA8A3" stroke-width="0.4"/>
<path d="M66.238 26.1111C66.4666 25.8393 66.4989 25.4287 66.4317 24.9857C66.375 24.6122 66.2557 24.264 66.1755 24.0359L63.8146 24.2693L65.1192 26.0136L66.238 26.1111Z" fill="#C5B9C3" stroke="#AEA8A3" stroke-width="0.4"/>
<path d="M23.7871 39.9954C23.2882 40.1861 22.5851 40.5015 21.9475 40.8837C21.5646 41.1132 21.2122 41.3626 20.9429 41.619C20.6787 41.8703 20.5112 42.1124 20.4556 42.3348C20.4665 42.6625 20.7499 42.9755 21.2785 43.1742C21.7776 43.3619 22.449 43.4249 23.1476 43.2956C23.2367 42.9628 23.3896 42.3306 23.5247 41.6686C23.6508 41.0513 23.7575 40.4263 23.7871 39.9954Z" fill="#D1C7C5" stroke="#AEA8A3" stroke-width="0.4"/>
<path d="M92.543 39.8709C93.0326 40.1068 93.7364 40.4825 94.3396 40.9179C94.6999 41.178 95.0145 41.4525 95.2268 41.7239C95.4372 41.9929 95.5281 42.2337 95.5001 42.4441C95.3808 42.8707 95.059 43.2582 94.587 43.4417C94.1352 43.6173 93.5234 43.6143 92.7853 43.2414C92.7359 42.9099 92.6584 42.2528 92.6028 41.5655C92.5521 40.9374 92.5213 40.3028 92.543 39.8709Z" fill="#D1C7C5" stroke="#AEA8A3" stroke-width="0.4"/>
<path d="M12.5441 47.9575L12.5216 47.9647L12.5129 47.9866C10.4972 53.0603 9.53888 56.6162 7.95108 64.1201L7.94594 64.1444L7.96219 64.1632C9.47147 65.9071 10.5538 66.7336 12.535 67.839L12.6033 67.8772L12.6092 67.7991C13.3054 58.5764 13.826 54.2578 14.8885 47.2796L14.9006 47.1998L14.8238 47.2245L12.5441 47.9575Z" fill="#4E3749" stroke="black" stroke-width="0.1"/>
<path d="M14.8388 47.2221H14.7943L14.7891 47.2662C14.6162 48.7265 14.452 50.0817 14.2963 51.3671C13.4851 58.0627 12.9037 62.8617 12.5091 70.7248L12.5046 70.8144L12.5832 70.7711C12.6453 70.7368 12.707 70.7028 12.7682 70.6691C16.5632 68.5774 18.7552 67.3693 20.9553 64.8967L20.9696 64.8806L20.9677 64.8591C20.3687 58.0982 19.6686 54.2376 17.9269 47.26L17.9174 47.2221H17.8783H14.8388Z" fill="#4E3749" stroke="black" stroke-width="0.1"/>
<path d="M13.2006 41.4312L13.2038 41.4129L13.1942 41.3969C13.1418 41.3096 13.0878 41.2183 13.0325 41.1245C12.777 40.6917 12.4906 40.2067 12.1758 39.8271C11.7959 39.369 11.3563 39.0421 10.8622 39.1745C9.9368 39.2981 9.29153 39.8513 8.87913 40.623C8.46706 41.3941 8.28628 42.3847 8.28594 43.3906C8.28559 44.397 8.46582 45.4231 8.77978 46.2676C9.09286 47.1097 9.54272 47.781 10.0888 48.0638C10.5584 48.3071 10.9895 48.4305 11.4968 48.3982C12.0023 48.3661 12.5791 48.1796 13.3411 47.8121L13.3694 47.7984V47.767C13.3694 47.3965 13.3214 47.0268 13.2593 46.6295C13.2436 46.5288 13.227 46.4265 13.21 46.3219C13.1598 46.0124 13.1063 45.6828 13.0631 45.3189C12.9476 44.3469 12.9056 43.1322 13.2006 41.4312Z" fill="#4E3749" stroke="black" stroke-width="0.1"/>
<path d="M14.0488 41.8633L14.0295 41.8784L14.0295 41.9028C14.0295 42.0685 14.029 42.2322 14.0286 42.3941C14.0232 44.3774 14.0185 46.0867 14.7939 47.7873L14.8048 47.8112L14.8306 47.8158C17.3959 48.2761 18.7243 48.2945 20.9292 47.8154L20.957 47.8094L20.966 47.7824C21.2076 47.0587 21.438 46.3917 21.6516 45.7734C22.1823 44.2366 22.609 43.0012 22.8455 41.9474C23.178 40.4661 23.1376 39.3326 22.4806 38.2129L22.473 38.1999L22.4595 38.1933C21.8011 37.8703 20.9385 37.8224 19.6224 38.3368C18.3077 38.8506 16.5346 39.9277 14.0488 41.8633Z" fill="#4E3749" stroke="black" stroke-width="0.1"/>
<path d="M13.3162 41.413H13.2783L13.268 41.4494C12.6979 43.4635 12.6306 45.167 13.2708 47.7786L13.2801 47.8167H13.3194H14.8392H14.9119L14.8859 47.7488C13.7729 44.8416 14.1302 42.6425 14.5716 41.4808L14.5973 41.413H14.5248H13.3162Z" fill="#4E3749" stroke="black" stroke-width="0.1"/>
<g filter="url(#filter10_f_1064_10405)">
<path d="M16.9669 43.7158C16.9669 44.4951 16.2495 45.2748 15.2447 45.2748C14.769 45.2748 14.3833 44.9257 14.3833 44.4951C14.3833 43.9086 15.2442 43.7158 15.2442 43.7158C15.2442 43.7158 16.9675 42.9355 16.9669 43.7158Z" fill="#43303E"/>
</g>
<g filter="url(#filter11_f_1064_10405)">
<path d="M12.2551 44.102C12.2551 44.835 12.2551 44.835 12.2551 45.5679C11.8354 45.5679 11.0396 45.2625 11.0396 44.102C11.0401 43.5691 11.8354 43.369 12.2551 43.369C12.6748 43.369 12.2551 43.6972 12.2551 44.102Z" fill="#3D2B39"/>
</g>
<path d="M104.456 47.9575L104.478 47.9647L104.487 47.9866C106.503 53.0603 107.461 56.6162 109.049 64.1201L109.054 64.1444L109.038 64.1632C107.529 65.9071 106.446 66.7336 104.465 67.839L104.397 67.8772L104.391 67.7991C103.695 58.5764 103.174 54.2578 102.112 47.2796L102.099 47.1998L102.176 47.2245L104.456 47.9575Z" fill="#4E3749" stroke="black" stroke-width="0.1"/>
<path d="M102.161 47.2221H102.206L102.211 47.2662C102.384 48.7265 102.548 50.0817 102.704 51.3671C103.515 58.0627 104.096 62.8617 104.491 70.7248L104.495 70.8144L104.417 70.7711C104.355 70.7368 104.293 70.7028 104.232 70.6691C100.437 68.5774 98.2448 67.3693 96.0447 64.8967L96.0304 64.8806L96.0323 64.8591C96.6313 58.0982 97.3314 54.2376 99.0731 47.26L99.0826 47.2221H99.1217H102.161Z" fill="#4E3749" stroke="black" stroke-width="0.1"/>
<path d="M103.799 41.4312L103.796 41.4129L103.806 41.3969C103.858 41.3096 103.912 41.2183 103.968 41.1245C104.223 40.6917 104.509 40.2067 104.824 39.8271C105.204 39.369 105.644 39.0421 106.138 39.1745C107.063 39.2981 107.708 39.8513 108.121 40.623C108.533 41.3941 108.714 42.3847 108.714 43.3906C108.714 44.397 108.534 45.4231 108.22 46.2676C107.907 47.1097 107.457 47.781 106.911 48.0638C106.442 48.3071 106.011 48.4305 105.503 48.3982C104.998 48.3661 104.421 48.1796 103.659 47.8121L103.631 47.7984V47.767C103.631 47.3965 103.679 47.0268 103.741 46.6295C103.756 46.5288 103.773 46.4265 103.79 46.3219C103.84 46.0124 103.894 45.6828 103.937 45.3189C104.052 44.3469 104.094 43.1322 103.799 41.4312Z" fill="#4E3749" stroke="black" stroke-width="0.1"/>
<path d="M102.951 41.8633L102.97 41.8784L102.97 41.9028C102.971 42.0685 102.971 42.2322 102.971 42.3941C102.977 44.3774 102.982 46.0867 102.206 47.7873L102.195 47.8112L102.169 47.8158C99.6041 48.2761 98.2757 48.2945 96.0708 47.8154L96.043 47.8094L96.034 47.7824C95.7924 47.0587 95.562 46.3917 95.3484 45.7734C94.8177 44.2366 94.391 43.0012 94.1545 41.9474C93.822 40.4661 93.8624 39.3326 94.5194 38.2129L94.527 38.1999L94.5405 38.1933C95.1989 37.8703 96.0615 37.8224 97.3776 38.3368C98.6923 38.8506 100.465 39.9277 102.951 41.8633Z" fill="#4E3749" stroke="black" stroke-width="0.1"/>
<path d="M103.684 41.413H103.722L103.732 41.4494C104.302 43.4635 104.369 45.167 103.729 47.7786L103.72 47.8167H103.681H102.161H102.088L102.114 47.7488C103.227 44.8416 102.87 42.6425 102.428 41.4808L102.403 41.413H102.475H103.684Z" fill="#4E3749" stroke="black" stroke-width="0.1"/>
<g filter="url(#filter12_f_1064_10405)">
<path d="M100.033 43.7158C100.033 44.4951 100.75 45.2748 101.755 45.2748C102.231 45.2748 102.617 44.9257 102.617 44.4951C102.617 43.9086 101.756 43.7158 101.756 43.7158C101.756 43.7158 100.033 42.9355 100.033 43.7158Z" fill="#43303E"/>
</g>
<g filter="url(#filter13_f_1064_10405)">
<path d="M104.745 44.102C104.745 44.835 104.745 44.835 104.745 45.5679C105.165 45.5679 105.96 45.2625 105.96 44.102C105.96 43.5691 105.165 43.369 104.745 43.369C104.325 43.369 104.745 43.6972 104.745 44.102Z" fill="#3D2B39"/>
</g>
<path d="M44.0074 89C44.0074 89 44.0066 88.5 43.0065 87.5L42.2451 88.1409L44.0996 91.8829H72.841L74.5073 89V87.5C73.5073 87.5 73.1676 88.7805 73.1676 88.7805L71.5074 88.5L70.5064 90.5L66.0064 89L65.5074 90.5L61.5074 89.5L60.0074 91.5H57.0074L55.5074 89.5L52.0064 90.5L51.0074 89.5L47.0074 90L45.9591 88.1409L44.0074 89Z" fill="#C1BBB7" stroke="#C1BBB7" stroke-width="0.7"/>
<path d="M42.0115 88.3176C42.01 88.3149 42.0086 88.3122 42.0072 88.3094L42.0115 88.3176C42.5571 89.3466 45.9532 87.3767 45.96 87.9C45.9661 88.3726 43.5615 88.3779 44.1004 89.9501C46.2223 91.2587 50.7509 88.1184 51.2898 88.9049C51.6481 89.4279 48.6223 89.9516 49.1612 90.7381C50.7509 91.7848 55.5402 87.8565 56.0791 88.9049C56.1797 89.1006 56.1301 89.2962 56.0072 89.4878C55.6373 90.0648 54.6035 90.6051 55.0081 90.9983C56.3384 91.2602 57.1434 91.2619 58.4738 91C60.1214 91.2138 60.6191 91.3449 61.926 90.9992C62.1921 90.2135 60.5 89.5 61.1345 88.9049C61.7264 88.286 63.2064 89.4967 65.0669 90.2445C65.9266 90.5901 66.6091 90.7381 67.7864 90.7381C68.658 89.9904 65.3157 89.3099 65.6578 88.9049C66 88.5 68.5 89.5 70.5 90.0472C71.524 90.3325 72.052 90.3411 72.8418 89.9525C73.374 88.9049 70.5 88.7285 70.9793 87.9C71.2844 87.3726 72.2265 88.1435 73.1685 88.5562C73.8341 88.8478 74.4998 88.9606 74.9404 88.31L71.0093 96H69.1468H65.6879H60.1003H56.9074H51.3198H47.8609H45.9983L42.0115 88.3176Z" fill="#F1E9E3"/>
<path d="M43.8792 88.3971C43.507 88.28 43.0075 87 43.0075 87C43.0075 87 41.9006 87.2619 42.0072 88.3094M45.96 87.9C45.96 87.9 47.0071 90.28 47.442 89.9082M45.96 87.9C45.9532 87.3767 42.5571 89.3466 42.0115 88.3176M45.96 87.9C45.9661 88.3726 43.5615 88.3779 44.1004 89.9501M51.2898 88.9049L52.0071 90.28M51.2898 88.9049C50.7509 88.1184 46.2223 91.2587 44.1004 89.9501M51.2898 88.9049C51.6481 89.4279 48.6223 89.9516 49.1612 90.7381M56.0791 88.9049C56.0791 88.9049 56.5071 90.78 57.3479 91.1691M56.0791 88.9049C55.5402 87.8565 50.7509 91.7848 49.1612 90.7381M56.0791 88.9049C56.1797 89.1006 56.1301 89.2962 56.0072 89.4878C55.6373 90.0648 54.6035 90.6051 55.0081 90.9983M59.7937 91.1691C60.5071 90.78 61.1345 88.9049 61.1345 88.9049M61.1345 88.9049C60.5 89.5 62.1921 90.2135 61.926 90.9992M61.1345 88.9049C61.7264 88.286 63.2064 89.4967 65.0669 90.2445M65.0669 90.2445C65.5415 90.3941 65.6578 88.9049 65.6578 88.9049M65.0669 90.2445C65.9266 90.5901 66.6091 90.7381 67.7864 90.7381M65.6578 88.9049C65.3157 89.3099 68.658 89.9904 67.7864 90.7381M65.6578 88.9049C66 88.5 68.5 89.5 70.5 90.0472M70.5 90.0472C70.842 90.1035 70.9793 87.9 70.9793 87.9M70.5 90.0472C71.524 90.3325 72.052 90.3411 72.8418 89.9525M70.9793 87.9C70.5 88.7285 73.374 88.9049 72.8418 89.9525M70.9793 87.9C71.2844 87.3726 72.2265 88.1435 73.1685 88.5562M73.1685 88.5562C73.2833 88.6416 74.0069 87 74.0069 87C74.0069 87 74.9404 87.2624 74.9404 88.31M73.1685 88.5562C73.8341 88.8478 74.4998 88.9606 74.9404 88.31M42.0072 88.3094C42.0086 88.3122 42.01 88.3149 42.0115 88.3176M42.0072 88.3094L42.0115 88.3176M42.0115 88.3176L45.9983 96H47.8609M44.1004 89.9501C44.8923 92.442 45.8192 93.3861 47.8609 96M49.1612 90.7381C49.4784 92.8697 50.1834 93.6798 51.3198 96M55.0081 90.9983C56.3384 91.2602 57.1434 91.2619 58.4738 91C60.1214 91.2138 60.6191 91.3449 61.926 90.9992M55.0081 90.9983C55.4637 93.0504 55.9609 93.775 56.9074 96M61.926 90.9992C61.2983 93.3532 61.112 93.8422 60.1003 96M67.7864 90.7381C67.5948 92.8834 67.0265 93.6665 65.6879 96M72.8418 89.9525C72.0391 92.3666 71.2431 93.3028 69.1468 96M74.9404 88.31L71.0093 96H69.1468M47.8609 96H51.3198M51.3198 96H56.9074M56.9074 96H60.1003M60.1003 96H65.6879M65.6879 96H69.1468" stroke="black" stroke-width="0.7"/>
<path d="M45.8183 102.785C44.1274 101.058 43.1152 98.7036 43 95.3023C43.0002 93.5 47 93 56.5587 93.297C58.1118 92.9087 58.9733 92.9074 60.4932 93.297C70.5 93 74.0278 93.5 73.9997 95.3023C73.8844 98.7036 72.8723 101.058 71.1814 102.785C70.0541 103.361 64.8162 101.058 60.3072 95.3023L60.1982 95.8779C63.8598 102.367 67.777 110.291 67.2361 110.843C67.1291 111.246 62.7269 111.994 62.1634 111.994C61.8729 112.253 62.1838 103.658 59.9294 96.7506C58.828 97.1665 58.226 97.1835 57.1225 96.7506C54.8681 103.658 55.1268 112.253 54.8363 111.994C54.2727 111.994 49.8705 111.246 49.7636 110.843C49.2266 110.295 53.1385 102.337 56.7668 95.8779L56.6632 95.3023C52.1543 101.058 46.9456 103.361 45.8183 102.785Z" fill="#4E3749"/>
<path d="M57.1225 96.7506C56.7069 96.5876 56.3717 93.3171 56.5587 93.297C56.5587 93.297 57.5606 93.0045 58.5222 93C59.4839 93.0045 60.4932 93.297 60.4932 93.297C60.6632 93.3919 60.1367 96.6745 59.9294 96.7506C58.828 97.1665 58.226 97.1835 57.1225 96.7506Z" fill="#4E3749"/>
<path d="M60.4932 93.297C70.5 93 74.0278 93.5 73.9997 95.3023C73.8844 98.7036 72.8723 101.058 71.1814 102.785C70.0541 103.361 64.8162 101.058 60.3072 95.3023L60.1982 95.8779C63.8598 102.367 67.777 110.291 67.2361 110.843C67.1291 111.246 62.7269 111.994 62.1634 111.994C61.8729 112.253 62.1838 103.658 59.9294 96.7506M60.4932 93.297C58.9733 92.9074 58.1118 92.9087 56.5587 93.297M60.4932 93.297C60.6632 93.3919 60.1367 96.6745 59.9294 96.7506M60.4932 93.297C60.4932 93.297 59.4839 93.0045 58.5222 93C57.5606 93.0045 56.5587 93.297 56.5587 93.297M59.9294 96.7506C58.828 97.1665 58.226 97.1835 57.1225 96.7506M57.1225 96.7506C54.8681 103.658 55.1268 112.253 54.8363 111.994C54.2727 111.994 49.8705 111.246 49.7636 110.843C49.2266 110.295 53.1385 102.337 56.7668 95.8779L56.6632 95.3023C52.1543 101.058 46.9456 103.361 45.8183 102.785C44.1274 101.058 43.1152 98.7036 43 95.3023C43.0002 93.5 47 93 56.5587 93.297M57.1225 96.7506C56.7069 96.5876 56.3717 93.3171 56.5587 93.297" stroke="#6E546E" stroke-width="0.7"/>
<path d="M45.0764 94.5437C46.7198 94.0438 51.6503 93.5438 55.708 94.2503C51.8842 94.2503 48.3635 96.5437 44.748 95.75C43.9808 95.5437 43.9804 94.8769 45.0764 94.5437Z" fill="#3E303E"/>
<path d="M71.8352 94.5437C70.1918 94.0438 65.2613 93.5438 61.2036 94.2503C65.0274 94.2503 68.5482 96.5437 72.1637 95.75C72.9309 95.5437 72.9313 94.8769 71.8352 94.5437Z" fill="#3E303E"/>
<defs>
<filter id="filter0_f_1064_10405" x="18.6499" y="26.9674" width="4.9502" height="5.7406" filterUnits="userSpaceOnUse" color-interpolation-filters="sRGB">
<feFlood flood-opacity="0" result="BackgroundImageFix"/>
<feBlend mode="normal" in="SourceGraphic" in2="BackgroundImageFix" result="shape"/>
<feGaussianBlur stdDeviation="0.25" result="effect1_foregroundBlur_1064_10405"/>
</filter>
<filter id="filter1_f_1064_10405" x="92.3999" y="26.9674" width="4.9502" height="5.7406" filterUnits="userSpaceOnUse" color-interpolation-filters="sRGB">
<feFlood flood-opacity="0" result="BackgroundImageFix"/>
<feBlend mode="normal" in="SourceGraphic" in2="BackgroundImageFix" result="shape"/>
<feGaussianBlur stdDeviation="0.25" result="effect1_foregroundBlur_1064_10405"/>
</filter>
<filter id="filter2_f_1064_10405" x="28.6499" y="19.0215" width="3.7002" height="5.7406" filterUnits="userSpaceOnUse" color-interpolation-filters="sRGB">
<feFlood flood-opacity="0" result="BackgroundImageFix"/>
<feBlend mode="normal" in="SourceGraphic" in2="BackgroundImageFix" result="shape"/>
<feGaussianBlur stdDeviation="0.25" result="effect1_foregroundBlur_1064_10405"/>
</filter>
<filter id="filter3_f_1064_10405" x="43.6499" y="12.2107" width="3.71582" height="4.60547" filterUnits="userSpaceOnUse" color-interpolation-filters="sRGB">
<feFlood flood-opacity="0" result="BackgroundImageFix"/>
<feBlend mode="normal" in="SourceGraphic" in2="BackgroundImageFix" result="shape"/>
<feGaussianBlur stdDeviation="0.25" result="effect1_foregroundBlur_1064_10405"/>
</filter>
<filter id="filter4_f_1064_10405" x="42.3994" y="19.0214" width="3.7002" height="5.7406" filterUnits="userSpaceOnUse" color-interpolation-filters="sRGB">
<feFlood flood-opacity="0" result="BackgroundImageFix"/>
<feBlend mode="normal" in="SourceGraphic" in2="BackgroundImageFix" result="shape"/>
<feGaussianBlur stdDeviation="0.25" result="effect1_foregroundBlur_1064_10405"/>
</filter>
<filter id="filter5_f_1064_10405" x="69.8999" y="20.1566" width="3.7002" height="4.60522" filterUnits="userSpaceOnUse" color-interpolation-filters="sRGB">
<feFlood flood-opacity="0" result="BackgroundImageFix"/>
<feBlend mode="normal" in="SourceGraphic" in2="BackgroundImageFix" result="shape"/>
<feGaussianBlur stdDeviation="0.25" result="effect1_foregroundBlur_1064_10405"/>
</filter>
<filter id="filter6_f_1064_10405" x="68.6187" y="13.3458" width="3.73145" height="3.47034" filterUnits="userSpaceOnUse" color-interpolation-filters="sRGB">
<feFlood flood-opacity="0" result="BackgroundImageFix"/>
<feBlend mode="normal" in="SourceGraphic" in2="BackgroundImageFix" result="shape"/>
<feGaussianBlur stdDeviation="0.25" result="effect1_foregroundBlur_1064_10405"/>
</filter>
<filter id="filter7_f_1064_10405" x="82.3999" y="16.7511" width="4.9502" height="5.7406" filterUnits="userSpaceOnUse" color-interpolation-filters="sRGB">
<feFlood flood-opacity="0" result="BackgroundImageFix"/>
<feBlend mode="normal" in="SourceGraphic" in2="BackgroundImageFix" result="shape"/>
<feGaussianBlur stdDeviation="0.25" result="effect1_foregroundBlur_1064_10405"/>
</filter>
<filter id="filter8_f_1064_10405" x="56.0002" y="10.9754" width="1.49961" height="4.8054" filterUnits="userSpaceOnUse" color-interpolation-filters="sRGB">
<feFlood flood-opacity="0" result="BackgroundImageFix"/>
<feBlend mode="normal" in="SourceGraphic" in2="BackgroundImageFix" result="shape"/>
<feGaussianBlur stdDeviation="0.35" result="effect1_foregroundBlur_1064_10405"/>
</filter>
<filter id="filter9_f_1064_10405" x="58.5002" y="10.9754" width="1.49961" height="4.8054" filterUnits="userSpaceOnUse" color-interpolation-filters="sRGB">
<feFlood flood-opacity="0" result="BackgroundImageFix"/>
<feBlend mode="normal" in="SourceGraphic" in2="BackgroundImageFix" result="shape"/>
<feGaussianBlur stdDeviation="0.35" result="effect1_foregroundBlur_1064_10405"/>
</filter>
<filter id="filter10_f_1064_10405" x="14.1833" y="43.169" width="2.9835" height="2.30576" filterUnits="userSpaceOnUse" color-interpolation-filters="sRGB">
<feFlood flood-opacity="0" result="BackgroundImageFix"/>
<feBlend mode="normal" in="SourceGraphic" in2="BackgroundImageFix" result="shape"/>
<feGaussianBlur stdDeviation="0.1" result="effect1_foregroundBlur_1064_10405"/>
</filter>
<filter id="filter11_f_1064_10405" x="10.5396" y="42.869" width="2.40186" height="3.19897" filterUnits="userSpaceOnUse" color-interpolation-filters="sRGB">
<feFlood flood-opacity="0" result="BackgroundImageFix"/>
<feBlend mode="normal" in="SourceGraphic" in2="BackgroundImageFix" result="shape"/>
<feGaussianBlur stdDeviation="0.25" result="effect1_foregroundBlur_1064_10405"/>
</filter>
<filter id="filter12_f_1064_10405" x="99.8332" y="43.169" width="2.9835" height="2.30576" filterUnits="userSpaceOnUse" color-interpolation-filters="sRGB">
<feFlood flood-opacity="0" result="BackgroundImageFix"/>
<feBlend mode="normal" in="SourceGraphic" in2="BackgroundImageFix" result="shape"/>
<feGaussianBlur stdDeviation="0.1" result="effect1_foregroundBlur_1064_10405"/>
</filter>
<filter id="filter13_f_1064_10405" x="104.059" y="42.869" width="2.40186" height="3.19897" filterUnits="userSpaceOnUse" color-interpolation-filters="sRGB">
<feFlood flood-opacity="0" result="BackgroundImageFix"/>
<feBlend mode="normal" in="SourceGraphic" in2="BackgroundImageFix" result="shape"/>
<feGaussianBlur stdDeviation="0.25" result="effect1_foregroundBlur_1064_10405"/>
</filter>
</defs>
</svg>
