<svg width="71" height="133" viewBox="0 0 71 133" fill="none" xmlns="http://www.w3.org/2000/svg">
<rect x="33.0864" y="71.6445" width="4.31494" height="7.54546" fill="#D9D9D9" stroke="#343333" stroke-width="1.5"/>
<path d="M67.2376 35.8203C67.2376 53.4134 52.9756 67.6753 35.3826 67.6753C17.7896 67.6753 3.52759 53.4134 3.52759 35.8203C3.52759 18.2273 17.7896 3.96533 35.3826 3.96533C52.9756 3.96533 67.2376 18.2273 67.2376 35.8203Z" fill="#4DD9D4" fill-opacity="0.25" stroke="black" stroke-width="6.5"/>
<rect x="32.4397" y="79.7617" width="5.60715" height="52.1267" fill="#494949" stroke="#343333" stroke-width="1.5"/>
<path d="M68.6751 36.0802C68.6751 54.4934 53.7483 69.4202 35.3351 69.4202C16.9219 69.4202 1.99512 54.4934 1.99512 36.0802C1.99512 17.6671 16.9219 2.74023 35.3351 2.74023C53.7483 2.74023 68.6751 17.6671 68.6751 36.0802ZM5.06437 36.0802C5.06437 52.7983 18.617 66.351 35.3351 66.351C52.0532 66.351 65.6059 52.7983 65.6059 36.0802C65.6059 19.3622 52.0532 5.80948 35.3351 5.80948C18.617 5.80948 5.06437 19.3622 5.06437 36.0802Z" fill="#D9D9D9"/>
</svg>
