<svg width="112" height="134" viewBox="0 0 112 134" fill="none" xmlns="http://www.w3.org/2000/svg">
<path d="M1.5 110.53C1.5 110.53 2 106.53 5.5 106.03C9.85239 105.595 12 110.03 12 110.03L17 117.934L30.5 121.53L32.5 127C32.5 127 23 129.03 14 127.03C14 127.03 8.5 126 4.99996 121.53C4.99996 121.53 1.5 117.03 1.5 110.53Z" fill="white"/>
<path d="M37 102.058C37 102.058 42.5 88.5577 50 87.5579C55 86.0579 71 88.058 71 88.058C73.5 93.5578 77 121.058 77 121.058C76.5 126.058 74.5 129.058 74.5 129.058C73 131.058 68.5 129.058 68.5 129.058C66.5 131.558 64.5 132.558 63 131.558C53 133.558 43.5 131.558 37.5 129.058C33.5 126.558 31 123.558 31 118.058C32 113.058 34.5 107.558 37 102.058Z" fill="white"/>
<path d="M49.5 87.0576C37 94.0576 31 117.558 31 117.558C31.5 132.558 45 132.558 52 132.558L60 132.058C56.5 130.058 54.5 124.558 54.5 124.558C54.5 124.558 56.5 132.058 63.5 132.558C67 133.058 68 128.558 68 128.558C71 130.058 72 130.558 73.5 129.558C80 124.058 75.5 108.558 75.5 108.558C74 95.5576 71.5 87.5576 71.5 87.5576L49.5 87.0576Z" stroke="#2A1F19" stroke-width="2"/>
<mask id="mask0_1064_10377" style="mask-type:alpha" maskUnits="userSpaceOnUse" x="2" y="0" width="110" height="110">
<rect x="2" width="110" height="110" fill="#D9D9D9"/>
</mask>
<g mask="url(#mask0_1064_10377)">
<path d="M39.9072 25.2492C36.7416 22.6119 27.7725 16.2807 20.9137 13.6427C20.9137 13.6427 15.6377 16.2807 14.0549 19.9739L16.1653 22.0843C9.83415 36.3294 13.5005 46.5001 13.5005 46.5001" fill="white"/>
<path d="M75.7837 24.194C78.9493 21.5567 87.9184 15.2255 94.7772 12.5875C94.7772 12.5875 100.053 15.2255 101.636 18.9187L99.5256 21.0291C106.912 37.9122 102.164 46.8814 102.164 46.8814" fill="#7B4300"/>
<path d="M11.2744 60.9042C11.2744 39.4592 31.9017 22.075 57.3466 22.075C82.7924 22.075 103.42 39.4592 103.42 60.9042C103.42 82.3483 82.1954 87.4174 56.7497 87.4174C31.3048 87.4174 11.2744 82.3483 11.2744 60.9042Z" fill="white" stroke="#2A1F19" stroke-width="2" stroke-miterlimit="10" stroke-linejoin="round"/>
<path d="M13.5266 49.5192C11.6553 45.4522 9.52 33.6576 15.6411 21.9706L13.0379 19.8831C13.0379 19.8831 17.5787 13.6872 20.419 13.6122C26.5943 13.6454 40.9619 24.7222 40.9619 24.7222" stroke="#2A1F19" stroke-width="2"/>
<path d="M101.366 49.5442C103.237 45.4773 105.372 33.6826 99.2513 21.9956L101.854 19.9081C101.854 19.9081 97.3136 13.7122 94.4733 13.6373C88.2981 13.6705 74.2006 25.2498 74.2006 25.2498" stroke="#2A1F19" stroke-width="2"/>
<mask id="mask1_1064_10377" style="mask-type:alpha" maskUnits="userSpaceOnUse" x="74" y="-3" width="53" height="53">
<circle cx="100.58" cy="23.6669" r="25.8523" fill="#AEAEAE"/>
</mask>
<g mask="url(#mask1_1064_10377)">
<path d="M11.416 60.9042C11.416 39.4592 32.0434 22.075 57.4882 22.075C82.934 22.075 103.561 39.4592 103.561 60.9042C103.561 82.3483 82.337 87.4174 56.8913 87.4174C31.4464 87.4174 11.416 82.3483 11.416 60.9042Z" fill="#7B4300" stroke="#7B4300" stroke-width="2" stroke-miterlimit="10" stroke-linejoin="round"/>
<path d="M75.9248 24.194C79.0904 21.5567 88.0596 15.2255 94.9183 12.5875C94.9183 12.5875 100.194 15.2255 101.777 18.9187L99.6667 21.0291C107.053 37.9122 102.305 46.8814 102.305 46.8814" fill="#7B4300"/>
<path d="M101.108 50.047C102.979 45.9801 105.514 33.6829 99.393 21.9959L101.996 19.9084C101.996 19.9084 97.4553 13.7125 94.615 13.6375C88.4397 13.6707 74.2003 25.2498 74.2003 25.2498" stroke="#2A1F19" stroke-width="2"/>
</g>
</g>
<mask id="mask2_1064_10377" style="mask-type:alpha" maskUnits="userSpaceOnUse" x="1" y="106" width="31" height="22">
<path d="M1 110.53C1 110.53 1.5 106.53 5 106.03C9.35239 105.595 11.5 110.03 11.5 110.03L16 118.03L30 121.53L31.5 126.03C31.5 126.03 22.5 129.03 13.5 127.03C13.5 127.03 8.49996 125.03 4.49996 121.53C4.49996 121.53 1 117.03 1 110.53Z" fill="#5E5E5E"/>
</mask>
<g mask="url(#mask2_1064_10377)">
<ellipse cx="4.50019" cy="110.933" rx="13.7599" ry="7.9875" transform="rotate(58.4999 4.50019 110.933)" fill="#7B4300"/>
</g>
<path d="M17.2073 117.657C19.2072 119.157 27.2072 120.157 31.2073 121.657L33.2073 127.157C27.2072 129.157 17.2072 128.657 12.2073 127.157C7.20721 125.657 3.70721 121.157 2.20731 117.657C1.7072 116.657 1 115.038 1 110.538C1 106.157 6.20731 105.657 7.70731 106.157C11.5002 107.038 15.2072 116.157 17.2073 117.657Z" stroke="#2A1F19" stroke-width="2"/>
<path d="M23 64.5C22.7239 64.5 22.5 64.7239 22.5 65C22.5 65.2761 22.7239 65.5 23 65.5V64.5ZM23 65.5H38V64.5H23V65.5Z" fill="black"/>
<path d="M23.6232 53.9647C23.3637 53.8703 23.0767 54.0041 22.9823 54.2636C22.8879 54.523 23.0216 54.81 23.2811 54.9044L23.6232 53.9647ZM23.2811 54.9044L37.3765 60.0347L37.7185 59.095L23.6232 53.9647L23.2811 54.9044Z" fill="black"/>
<path d="M23.2811 75.0956C23.0216 75.19 22.8879 75.477 22.9823 75.7364C23.0767 75.9959 23.3637 76.1297 23.6232 76.0353L23.2811 75.0956ZM23.6232 76.0353L37.7185 70.905L37.3765 69.9653L23.2811 75.0956L23.6232 76.0353Z" fill="black"/>
<path d="M89 65.0654C89.2761 65.0654 89.5 65.2893 89.5 65.5654C89.5 65.8416 89.2761 66.0654 89 66.0654V65.0654ZM89 66.0654H74V65.0654H89V66.0654Z" fill="black"/>
<path d="M88.3768 54.5302C88.6363 54.4357 88.9233 54.5695 89.0177 54.829C89.1121 55.0885 88.9784 55.3754 88.7189 55.4698L88.3768 54.5302ZM88.7189 55.4698L74.6235 60.6001L74.2815 59.6605L88.3768 54.5302L88.7189 55.4698Z" fill="black"/>
<path d="M88.7189 75.661C88.9784 75.7555 89.1121 76.0424 89.0177 76.3019C88.9233 76.5614 88.6363 76.6952 88.3768 76.6007L88.7189 75.661ZM88.3768 76.6007L74.2815 71.4704L74.6235 70.5307L88.7189 75.661L88.3768 76.6007Z" fill="black"/>
<path d="M50 63C53 68 56.5 63 56.5 63C56.5 63 60 68 63 63" stroke="black" stroke-width="2" stroke-linecap="round"/>
<path d="M46.5 54C45.1193 54 44 50.8758 44 48.6667C44 46.4575 45.1193 46 46.5 46C47.8807 46 49 46.4575 49 48.6667C49 50.8758 47.8807 54 46.5 54Z" fill="black"/>
<path d="M66.5 54C65.1193 54 64 50.8758 64 48.6667C64 46.4575 65.1193 46 66.5 46C67.8807 46 69 46.4575 69 48.6667C69 50.8758 67.8807 54 66.5 54Z" fill="black"/>
<path d="M56.0769 93.4998C55.5685 93.4998 55.141 93.8812 55.0833 94.3863L53.1637 111.183C53.1265 111.509 53.2515 111.832 53.4983 112.048L57.5328 115.583C57.9141 115.917 58.4852 115.913 58.8616 115.573L62.7746 112.043C63.0144 111.827 63.135 111.508 63.0983 111.187L62.6015 111.244L63.0983 111.187L61.1783 94.3864C61.1206 93.8814 60.6931 93.5 60.1848 93.5L56.0769 93.4998Z" fill="#FFDA29" stroke="black"/>
<path d="M53.8733 88.5C53.2005 88.5 52.7196 89.151 52.9175 89.7941L54.6098 95.2941C54.7389 95.7137 55.1266 96 55.5656 96H60.827C61.266 96 61.6537 95.7137 61.7828 95.2941L63.4751 89.7941C63.673 89.151 63.1921 88.5 62.5193 88.5H53.8733Z" fill="#FFDA29" stroke="black"/>
<path d="M57.0186 87.9317L57.0183 87.9318C57.0184 87.9318 57.0185 87.9317 57.0186 87.9317L57.0528 88L57.0186 87.9317ZM47.455 92.9839C47.6071 93.3641 48.0517 93.5332 48.418 93.35L57.4658 88.8261C58.1265 88.4958 57.8914 87.5 57.1528 87.5H46.2954C45.8002 87.5 45.4616 88.0002 45.6455 88.46L47.455 92.9839Z" fill="white" stroke="black"/>
<path d="M58.9814 87.9317L58.9817 87.9318C58.9816 87.9318 58.9815 87.9317 58.9814 87.9317L58.9472 88L58.9814 87.9317ZM68.545 92.9839C68.3929 93.3641 67.9483 93.5332 67.582 93.35L58.5342 88.8261C57.8735 88.4958 58.1086 87.5 58.8472 87.5H69.7046C70.1998 87.5 70.5384 88.0002 70.3545 88.46L68.545 92.9839Z" fill="white" stroke="black"/>
</svg>
