<svg width="118" height="134" viewBox="0 0 118 134" fill="none" xmlns="http://www.w3.org/2000/svg">
<path d="M1.5 111.096C1.5 111.096 2 107.096 5.5 106.596C9.85239 106.161 12 110.596 12 110.596L17 118.5L30.5 122.096L32 126.596C32 126.596 23 129.596 14 127.596C14 127.596 8.99996 125.596 4.99996 122.096C4.99996 122.096 1.5 117.596 1.5 111.096Z" fill="white"/>
<path d="M37 102.058C37 102.058 42.5 88.5577 50 87.5579C55 86.0579 71 88.058 71 88.058C73.5 93.5578 77 121.058 77 121.058C76.5 126.058 74.5 129.058 74.5 129.058C73 131.058 68.5 129.058 68.5 129.058C66.5 131.558 64.5 132.558 63 131.558C53 133.558 43.5 131.558 37.5 129.058C33.5 126.558 31 123.558 31 118.058C32 113.058 34.5 107.558 37 102.058Z" fill="white"/>
<path d="M49.5 87.0576C37 94.0576 31 117.558 31 117.558C31.5 132.558 45 132.558 52 132.558L60 132.058C56.5 130.058 54.5 124.558 54.5 124.558C54.5 124.558 56.5 132.058 63.5 132.558C67 133.058 68 128.558 68 128.558C71 130.058 72 130.558 73.5 129.558C80 124.058 75.5 108.558 75.5 108.558C74 95.5576 71.5 87.5576 71.5 87.5576L49.5 87.0576Z" stroke="#2A1F19" stroke-width="2"/>
<mask id="mask0_260_849" style="mask-type:alpha" maskUnits="userSpaceOnUse" x="8" y="0" width="110" height="110">
<rect x="8" width="110" height="110" fill="#D9D9D9"/>
</mask>
<g mask="url(#mask0_260_849)">
<path d="M45.9067 25.2491C42.7412 22.6117 33.772 16.2806 26.9132 13.6426C26.9132 13.6426 21.6372 16.2806 20.0544 19.9738L22.1648 22.0841C15.8337 36.3293 19.5 46.5 19.5 46.5" fill="white"/>
<path d="M81.7837 24.1939C84.9493 21.5566 93.9184 15.2254 100.777 12.5874C100.777 12.5874 106.053 15.2254 107.636 18.9186L105.526 21.029C112.912 37.9121 108.164 46.8813 108.164 46.8813" fill="#220000"/>
<path d="M17.2744 60.9042C17.2744 39.4592 37.9017 22.075 63.3466 22.075C88.7924 22.075 109.42 39.4592 109.42 60.9042C109.42 82.3483 88.1954 87.4174 62.7497 87.4174C37.3048 87.4174 17.2744 82.3483 17.2744 60.9042Z" fill="white" stroke="#2A1F19" stroke-width="2" stroke-miterlimit="10" stroke-linejoin="round"/>
<path d="M19.5266 49.5189C17.6553 45.452 15.52 33.6573 21.6411 21.9704L19.0379 19.8829C19.0379 19.8829 23.5787 13.687 26.419 13.612C32.5943 13.6452 46.9619 24.722 46.9619 24.722" stroke="#2A1F19" stroke-width="2"/>
<path d="M107.366 49.5441C109.237 45.4772 111.372 33.6825 105.251 21.9955L107.854 19.908C107.854 19.908 103.314 13.7121 100.473 13.6371C94.2981 13.6703 80.2006 25.2497 80.2006 25.2497" stroke="#2A1F19" stroke-width="2"/>
<mask id="mask1_260_849" style="mask-type:alpha" maskUnits="userSpaceOnUse" x="80" y="-3" width="53" height="53">
<circle cx="106.58" cy="23.6667" r="25.8523" fill="#AEAEAE"/>
</mask>
<g mask="url(#mask1_260_849)">
<path d="M17.416 60.9042C17.416 39.4592 38.0434 22.075 63.4882 22.075C88.934 22.075 109.561 39.4592 109.561 60.9042C109.561 82.3483 88.337 87.4174 62.8913 87.4174C37.4464 87.4174 17.416 82.3483 17.416 60.9042Z" fill="#220000" stroke="#220000" stroke-width="2" stroke-miterlimit="10" stroke-linejoin="round"/>
<path d="M81.9248 24.1939C85.0904 21.5566 94.0596 15.2254 100.918 12.5874C100.918 12.5874 106.194 15.2254 107.777 18.9186L105.667 21.029C113.053 37.9121 108.305 46.8813 108.305 46.8813" fill="#220000"/>
<path d="M107.108 50.047C108.979 45.9801 111.514 33.6829 105.393 21.9959L107.996 19.9084C107.996 19.9084 103.455 13.7125 100.615 13.6375C94.4397 13.6707 80.2003 25.2498 80.2003 25.2498" stroke="#2A1F19" stroke-width="2"/>
</g>
</g>
<mask id="mask2_260_849" style="mask-type:alpha" maskUnits="userSpaceOnUse" x="1" y="106" width="31" height="22">
<path d="M1 110.53C1 110.53 1.5 106.53 5 106.03C9.35239 105.595 11.5 110.03 11.5 110.03L16 118.03L30 121.53L31.5 126.03C31.5 126.03 22.5 129.03 13.5 127.03C13.5 127.03 8.49996 125.03 4.49996 121.53C4.49996 121.53 1 117.03 1 110.53Z" fill="#5E5E5E"/>
</mask>
<g mask="url(#mask2_260_849)">
<ellipse cx="4.50019" cy="110.933" rx="13.7599" ry="7.9875" transform="rotate(58.4999 4.50019 110.933)" fill="#220000"/>
</g>
<path d="M17.2073 117.657C19.2072 119.157 27.2072 120.157 31.2073 121.657L33.2073 127.157C27.2072 129.157 17.2072 128.657 12.2073 127.157C7.20721 125.657 3.70721 121.157 2.20731 117.657C1.7072 116.657 1 115.038 1 110.538C1 106.157 6.20731 105.657 7.70731 106.157C11.5002 107.038 15.2072 116.157 17.2073 117.657Z" stroke="#2A1F19" stroke-width="2"/>
<path d="M29 64.5C28.7239 64.5 28.5 64.7239 28.5 65C28.5 65.2761 28.7239 65.5 29 65.5V64.5ZM29 65.5H44V64.5H29V65.5Z" fill="black"/>
<path d="M29.6232 53.9647C29.3637 53.8703 29.0767 54.0041 28.9823 54.2636C28.8879 54.523 29.0216 54.81 29.2811 54.9044L29.6232 53.9647ZM29.2811 54.9044L43.3765 60.0347L43.7185 59.095L29.6232 53.9647L29.2811 54.9044Z" fill="black"/>
<path d="M29.2811 75.0956C29.0216 75.19 28.8879 75.477 28.9823 75.7364C29.0767 75.9959 29.3637 76.1297 29.6232 76.0353L29.2811 75.0956ZM29.6232 76.0353L43.7185 70.905L43.3765 69.9653L29.2811 75.0956L29.6232 76.0353Z" fill="black"/>
<path d="M95 65.0654C95.2761 65.0654 95.5 65.2893 95.5 65.5654C95.5 65.8416 95.2761 66.0654 95 66.0654V65.0654ZM95 66.0654H80V65.0654H95V66.0654Z" fill="black"/>
<path d="M94.3768 54.5302C94.6363 54.4357 94.9233 54.5695 95.0177 54.829C95.1121 55.0885 94.9784 55.3754 94.7189 55.4698L94.3768 54.5302ZM94.7189 55.4698L80.6235 60.6001L80.2815 59.6605L94.3768 54.5302L94.7189 55.4698Z" fill="black"/>
<path d="M94.7189 75.661C94.9784 75.7555 95.1121 76.0424 95.0177 76.3019C94.9233 76.5614 94.6363 76.6952 94.3768 76.6007L94.7189 75.661ZM94.3768 76.6007L80.2815 71.4704L80.6235 70.5307L94.7189 75.661L94.3768 76.6007Z" fill="black"/>
<path d="M54.5 67C60 67 62.5 62.5 62.5 62.5C62.5 62.5 65 66.5 70 67" stroke="black" stroke-width="2" stroke-linecap="round"/>
<path d="M48.4719 48.0209C49.2847 46.9048 52.4691 47.8393 54.2548 49.1399C56.0405 50.4404 55.7514 51.6145 54.9386 52.7306C54.1257 53.8467 53.097 54.4821 51.3112 53.1816C49.5255 51.881 47.659 49.137 48.4719 48.0209Z" fill="black"/>
<path d="M76.9383 48.0209C76.1255 46.9048 72.9411 47.8393 71.1554 49.1399C69.3696 50.4404 69.6587 51.6145 70.4716 52.7306C71.2844 53.8467 72.3132 54.4821 74.0989 53.1816C75.8847 51.881 77.7511 49.137 76.9383 48.0209Z" fill="black"/>
<path d="M48.3404 21.8707C45.3554 21.8707 40.6294 22.8657 39.137 24.3581C39.137 24.3581 37.6446 25.6018 36.8985 27.3429C36.8985 27.3429 34.9085 26.8454 34.4112 27.0942C33.665 27.5917 34.1624 28.3379 34.1624 28.3379C34.6597 28.8353 36.8985 29.0841 36.8985 29.0841C36.8985 29.0841 36.6494 30.0789 36.6496 31.3226C36.6496 31.3226 36.4009 35.3024 38.3908 38.7847C38.726 39.2822 39.9697 41.0233 44.3606 41.0234C46.8478 41.0233 49.3351 40.0284 52.5689 38.2873C52.5689 38.2873 56.7972 35.5511 59.036 33.3126C59.036 33.3126 61.5232 31.0739 62.0208 28.0891C62.0208 28.0891 62.5181 25.8505 59.036 23.6119C57.5434 22.8658 55.3048 21.622 48.3404 21.8707Z" fill="black" stroke="black"/>
<path d="M48.3404 21.8707C45.3554 21.8707 40.6294 22.8657 39.137 24.3581C39.137 24.3581 37.6446 25.6018 36.8985 27.3429C36.8985 27.3429 34.9085 26.8454 34.4112 27.0942C33.665 27.5917 34.1624 28.3379 34.1624 28.3379C34.6597 28.8353 36.8985 29.0841 36.8985 29.0841C36.8985 29.0841 36.6494 30.0789 36.6496 31.3226C36.6496 31.3226 36.4009 35.3024 38.3908 38.7847C38.726 39.2822 39.9697 41.0233 44.3606 41.0234C46.8478 41.0233 49.3351 40.0284 52.5689 38.2873C52.5689 38.2873 56.7972 35.5511 59.036 33.3126C59.036 33.3126 61.5232 31.0739 62.0208 28.0891C62.0208 28.0891 62.5181 25.8505 59.036 23.6119C57.5434 22.8658 55.3048 21.622 48.3404 21.8707Z" stroke="black"/>
<mask id="mask3_260_849" style="mask-type:alpha" maskUnits="userSpaceOnUse" x="64" y="21" width="29" height="21">
<path d="M78.4618 21.6544C81.4469 21.6544 86.1728 22.6494 87.6652 24.1418C87.6652 24.1418 89.1577 25.3855 89.9037 27.1266C89.9037 27.1266 91.3717 26.8455 91.869 27.0943C92.6152 27.5917 92.3664 28.3379 92.3664 28.3379C91.8691 28.8354 89.9037 28.8678 89.9037 28.8678C89.9037 28.8678 90.1528 29.8626 90.1526 31.1063C90.1526 31.1063 90.1278 34.3076 88.6354 38.0386C88.2244 38.7848 86.9807 41.0235 82.9145 41.0235C80.4273 41.0234 77.4425 40.0285 74.2087 38.2874C74.2087 38.2874 69.9804 35.5512 67.7416 33.3126C67.7416 33.3126 65.279 30.8576 64.7814 27.8728C64.7814 27.8728 64.2841 25.6341 67.7662 23.3956C69.2588 22.6495 71.4974 21.4057 78.4618 21.6544Z" fill="black" stroke="black"/>
</mask>
<g mask="url(#mask3_260_849)">
<path d="M78.4618 21.6544C81.4469 21.6544 86.1728 22.6494 87.6652 24.1418C87.6652 24.1418 89.1577 25.3855 89.9037 27.1266C89.9037 27.1266 91.3717 26.8455 91.869 27.0943C92.6152 27.5917 92.3664 28.3379 92.3664 28.3379C91.8691 28.8354 89.9037 28.8678 89.9037 28.8678C89.9037 28.8678 90.1528 29.8626 90.1526 31.1063C90.1526 31.1063 90.1278 34.3076 88.6354 38.0386C88.2244 38.7848 86.9807 41.0235 82.9145 41.0235C80.4273 41.0234 77.4425 40.0285 74.2087 38.2874C74.2087 38.2874 69.9804 35.5512 67.7416 33.3126C67.7416 33.3126 65.279 30.8576 64.7814 27.8728C64.7814 27.8728 64.2841 25.6341 67.7662 23.3956C69.2588 22.6495 71.4974 21.4057 78.4618 21.6544Z" fill="black" stroke="black"/>
</g>
<path d="M64.5766 27.5918H61.8405C61.8405 27.5918 61.8405 28.0893 61.772 28.5867H64.5766C64.5081 28.338 64.5766 27.5918 64.5766 27.5918Z" fill="black" stroke="black"/>
<path d="M75.7873 21.6218C70.5639 20.8757 57.1322 20.6268 50.665 21.8705L51.4112 22.1304C57.3809 20.8866 69.3202 21.373 75.2899 22.1192L75.7873 21.6218Z" fill="black" stroke="black"/>
<path d="M75.7876 38.2872L85.737 23.363L87.4782 24.6067L77.7775 39.2821L75.7876 38.2872Z" fill="white" stroke="white" stroke-width="0.5"/>
<path d="M73.7979 37.2921L83.7473 22.6167L84.7422 23.1142L74.5441 37.7896L73.7979 37.2921Z" fill="white" stroke="white" stroke-width="0.5"/>
</svg>
